STARTFONT 2.1
COMMENT
COMMENT Converted from OpenType font "CUSONG.ttf" by "otf2bdf 3.0".
COMMENT
FONT -FreeType-Chusung-Medium-R-Normal--32-320-72-72-P-292-ISO10646-1
SIZE 32 72 72
FONTBOUNDINGBOX 32 37 0 -8
STARTPROPERTIES 19
FOUNDRY "FreeType"
FAMILY_NAME "Chusung"
WEIGHT_NAME "Medium"
SLANT "R"
SETWIDTH_NAME "Normal"
ADD_STYLE_NAME ""
PIXEL_SIZE 32
POINT_SIZE 320
RESOLUTION_X 72
RESOLUTION_Y 72
SPACING "P"
AVERAGE_WIDTH 292
CHARSET_REGISTRY "ISO10646"
CHARSET_ENCODING "1"
FONT_ASCENT 28
FONT_DESCENT 4
COPYRIGHT "Copyright (c) 1988  The Institute of Software, Academia Sinica,                2020  diaowinner <diaowinner 47 qq d07 com>"
_OTF_FONTFILE "CUSONG.ttf"
_OTF_PSNAME "Chusung16"
ENDPROPERTIES
CHARS 7573
STARTCHAR 0000
ENCODING 0
SWIDTH 500 0
DWIDTH 16 0
BBX 0 0 0 0
BITMAP
ENDCHAR
STARTCHAR 0001
ENCODING 1
SWIDTH 500 0
DWIDTH 16 0
BBX 16 20 0 0
BITMAP
3FFC
3FFC
C003
C003
CC33
CC33
C003
C003
C003
C003
CFF3
CFF3
C3C3
C3C3
C003
C003
C003
C003
3FFC
3FFC
ENDCHAR
STARTCHAR 0002
ENCODING 2
SWIDTH 500 0
DWIDTH 16 0
BBX 14 20 0 0
BITMAP
3FF0
3FF0
FFFC
FFFC
FFFC
FFFC
F33C
F33C
FFFC
FFFC
FFFC
FFFC
CFCC
CFCC
F03C
F03C
FFFC
FFFC
3FF0
3FF0
ENDCHAR
STARTCHAR 0003
ENCODING 3
SWIDTH 500 0
DWIDTH 16 0
BBX 14 18 0 0
BITMAP
3CF0
3CF0
FCFC
FCFC
FFFC
FFFC
FFFC
FFFC
FFFC
FFFC
FFFC
FFFC
3FF0
3FF0
0FC0
0FC0
0300
0300
ENDCHAR
STARTCHAR 0004
ENCODING 4
SWIDTH 500 0
DWIDTH 16 0
BBX 14 14 0 4
BITMAP
0300
0300
0FC0
0FC0
3FF0
3FF0
FFFC
FFFC
3FF0
3FF0
0FC0
0FC0
0300
0300
ENDCHAR
STARTCHAR 0005
ENCODING 5
SWIDTH 500 0
DWIDTH 16 0
BBX 14 18 0 0
BITMAP
0300
0300
0FC0
0FC0
0FC0
0FC0
0300
0300
3CF0
3CF0
FCFC
FCFC
3CF0
3CF0
0300
0300
0FC0
0FC0
ENDCHAR
STARTCHAR 0006
ENCODING 6
SWIDTH 500 0
DWIDTH 16 0
BBX 14 20 0 0
BITMAP
0300
0300
0FC0
0FC0
3FF0
3FF0
3FF0
3FF0
FFFC
FFFC
FFFC
FFFC
FFFC
FFFC
3CF0
3CF0
0300
0300
0FC0
0FC0
ENDCHAR
STARTCHAR 0007
ENCODING 7
SWIDTH 500 0
DWIDTH 16 0
BBX 8 10 4 4
BITMAP
3C
3C
FF
FF
FF
FF
FF
FF
3C
3C
ENDCHAR
STARTCHAR 0008
ENCODING 8
SWIDTH 500 0
DWIDTH 16 0
BBX 16 32 0 -8
BITMAP
FFFF
FFFF
FFFF
FFFF
FFFF
FFFF
FFFF
FFFF
FFFF
FFFF
FC3F
FC3F
F00F
F00F
F00F
F00F
F00F
F00F
FC3F
FC3F
FFFF
FFFF
FFFF
FFFF
FFFF
FFFF
FFFF
FFFF
FFFF
FFFF
FFFF
FFFF
ENDCHAR
STARTCHAR 0009
ENCODING 9
SWIDTH 500 0
DWIDTH 16 0
BBX 12 14 2 2
BITMAP
0F00
0F00
3FC0
3FC0
F0F0
F0F0
F0F0
F0F0
F0F0
F0F0
3FC0
3FC0
0F00
0F00
ENDCHAR
STARTCHAR 000A
ENCODING 10
SWIDTH 500 0
DWIDTH 16 0
BBX 16 32 0 -8
BITMAP
FFFF
FFFF
FFFF
FFFF
FFFF
FFFF
FFFF
FFFF
FC3F
FC3F
F00F
F00F
C3C3
C3C3
C3C3
C3C3
C3C3
C3C3
F00F
F00F
FC3F
FC3F
FFFF
FFFF
FFFF
FFFF
FFFF
FFFF
FFFF
FFFF
FFFF
FFFF
ENDCHAR
STARTCHAR 000B
ENCODING 11
SWIDTH 500 0
DWIDTH 16 0
BBX 14 20 0 0
BITMAP
03FC
03FC
00FC
00FC
03FC
03FC
0F3C
0F3C
3FC0
3FC0
F0F0
F0F0
F0F0
F0F0
F0F0
F0F0
F0F0
F0F0
3FC0
3FC0
ENDCHAR
STARTCHAR 000C
ENCODING 12
SWIDTH 500 0
DWIDTH 16 0
BBX 12 20 2 0
BITMAP
3FC0
3FC0
F0F0
F0F0
F0F0
F0F0
F0F0
F0F0
3FC0
3FC0
0F00
0F00
FFF0
FFF0
0F00
0F00
0F00
0F00
0F00
0F00
ENDCHAR
STARTCHAR 000D
ENCODING 13
SWIDTH 500 0
DWIDTH 16 0
BBX 14 20 0 0
BITMAP
03FC
03FC
03CC
03CC
03FC
03FC
03C0
03C0
03C0
03C0
03C0
03C0
03C0
03C0
3FC0
3FC0
FFC0
FFC0
3F00
3F00
ENDCHAR
STARTCHAR 000E
ENCODING 14
SWIDTH 500 0
DWIDTH 16 0
BBX 14 22 0 -2
BITMAP
0FFC
0FFC
0F3C
0F3C
0FFC
0FFC
0F3C
0F3C
0F3C
0F3C
3F3C
3F3C
FF3C
FF3C
3C3C
3C3C
00FC
00FC
03FC
03FC
00F0
00F0
ENDCHAR
STARTCHAR 000F
ENCODING 15
SWIDTH 500 0
DWIDTH 16 0
BBX 16 20 0 0
BITMAP
03C0
03C0
F3CF
F3CF
3FFC
3FFC
0FF0
0FF0
3C3C
3C3C
3C3C
3C3C
0FF0
0FF0
3FFC
3FFC
F3CF
F3CF
03C0
03C0
ENDCHAR
STARTCHAR 0010
ENCODING 16
SWIDTH 500 0
DWIDTH 16 0
BBX 14 18 0 0
BITMAP
C000
C000
FC00
FC00
FF00
FF00
FFF0
FFF0
FFFC
FFFC
FFF0
FFF0
FF00
FF00
FC00
FC00
C000
C000
ENDCHAR
STARTCHAR 0011
ENCODING 17
SWIDTH 500 0
DWIDTH 16 0
BBX 14 18 0 0
BITMAP
000C
000C
00FC
00FC
0FFC
0FFC
3FFC
3FFC
FFFC
FFFC
3FFC
3FFC
0FFC
0FFC
00FC
00FC
000C
000C
ENDCHAR
STARTCHAR 0012
ENCODING 18
SWIDTH 500 0
DWIDTH 16 0
BBX 12 20 2 0
BITMAP
0F00
0F00
3FC0
3FC0
FFF0
FFF0
0F00
0F00
0F00
0F00
0F00
0F00
0F00
0F00
FFF0
FFF0
3FC0
3FC0
0F00
0F00
ENDCHAR
STARTCHAR 0013
ENCODING 19
SWIDTH 500 0
DWIDTH 16 0
BBX 12 20 2 0
BITMAP
F0F0
F0F0
F0F0
F0F0
F0F0
F0F0
F0F0
F0F0
F0F0
F0F0
F0F0
F0F0
F0F0
F0F0
0000
0000
F0F0
F0F0
F0F0
F0F0
ENDCHAR
STARTCHAR 0014
ENCODING 20
SWIDTH 500 0
DWIDTH 16 0
BBX 16 20 0 0
BITMAP
3FFF
3FFF
F3CF
F3CF
F3CF
F3CF
F3CF
F3CF
F3CF
F3CF
3FCF
3FCF
03CF
03CF
03CF
03CF
03CF
03CF
03CF
03CF
ENDCHAR
STARTCHAR 0015
ENCODING 21
SWIDTH 500 0
DWIDTH 16 0
BBX 14 24 0 -4
BITMAP
3FF0
3FF0
F03C
F03C
F03C
F03C
3C00
3C00
3FF0
3FF0
FF3C
FF3C
F3FC
F3FC
3FF0
3FF0
00F0
00F0
F03C
F03C
F03C
F03C
3FF0
3FF0
ENDCHAR
STARTCHAR 0016
ENCODING 22
SWIDTH 500 0
DWIDTH 16 0
BBX 14 8 0 0
BITMAP
FFFC
FFFC
FFFC
FFFC
FFFC
FFFC
FFFC
FFFC
ENDCHAR
STARTCHAR 0017
ENCODING 23
SWIDTH 500 0
DWIDTH 16 0
BBX 12 20 2 0
BITMAP
0F00
0F00
3FC0
3FC0
FFF0
FFF0
0F00
0F00
0F00
0F00
0F00
0F00
FFF0
FFF0
3FC0
3FC0
0F00
0F00
FFF0
FFF0
ENDCHAR
STARTCHAR 0018
ENCODING 24
SWIDTH 500 0
DWIDTH 16 0
BBX 12 20 2 0
BITMAP
0F00
0F00
3FC0
3FC0
FFF0
FFF0
0F00
0F00
0F00
0F00
0F00
0F00
0F00
0F00
0F00
0F00
0F00
0F00
0F00
0F00
ENDCHAR
STARTCHAR 0019
ENCODING 25
SWIDTH 500 0
DWIDTH 16 0
BBX 12 20 2 0
BITMAP
0F00
0F00
0F00
0F00
0F00
0F00
0F00
0F00
0F00
0F00
0F00
0F00
0F00
0F00
FFF0
FFF0
3FC0
3FC0
0F00
0F00
ENDCHAR
STARTCHAR 001A
ENCODING 26
SWIDTH 500 0
DWIDTH 16 0
BBX 16 10 0 4
BITMAP
00F0
00F0
00FC
00FC
FFFF
FFFF
00FC
00FC
00F0
00F0
ENDCHAR
STARTCHAR 001B
ENCODING 27
SWIDTH 500 0
DWIDTH 16 0
BBX 14 10 0 4
BITMAP
0F00
0F00
3F00
3F00
FFFC
FFFC
3F00
3F00
0F00
0F00
ENDCHAR
STARTCHAR 001C
ENCODING 28
SWIDTH 500 0
DWIDTH 16 0
BBX 14 8 0 4
BITMAP
F000
F000
F000
F000
F000
F000
FFFC
FFFC
ENDCHAR
STARTCHAR 001D
ENCODING 29
SWIDTH 500 0
DWIDTH 16 0
BBX 16 10 0 4
BITMAP
0C30
0C30
3C3C
3C3C
FFFF
FFFF
3C3C
3C3C
0C30
0C30
ENDCHAR
STARTCHAR 001E
ENCODING 30
SWIDTH 500 0
DWIDTH 16 0
BBX 14 16 0 2
BITMAP
0300
0300
0FC0
0FC0
0FC0
0FC0
0FC0
0FC0
3FF0
3FF0
3FF0
3FF0
FFFC
FFFC
FFFC
FFFC
ENDCHAR
STARTCHAR 001F
ENCODING 31
SWIDTH 500 0
DWIDTH 16 0
BBX 14 16 0 2
BITMAP
FFFC
FFFC
FFFC
FFFC
3FF0
3FF0
3FF0
3FF0
3FF0
3FF0
0FC0
0FC0
0FC0
0FC0
0300
0300
ENDCHAR
STARTCHAR 0020
ENCODING 32
SWIDTH 500 0
DWIDTH 16 0
BBX 0 0 0 0
BITMAP
ENDCHAR
STARTCHAR 0021
ENCODING 33
SWIDTH 500 0
DWIDTH 16 0
BBX 8 20 4 0
BITMAP
3C
3C
FF
FF
FF
FF
FF
FF
FF
FF
3C
3C
3C
3C
00
00
3C
3C
3C
3C
ENDCHAR
STARTCHAR 0022
ENCODING 34
SWIDTH 500 0
DWIDTH 16 0
BBX 10 10 4 12
BITMAP
F3C0
F3C0
F3C0
F3C0
F3C0
F3C0
F3C0
F3C0
3300
3300
ENDCHAR
STARTCHAR 0023
ENCODING 35
SWIDTH 500 0
DWIDTH 16 0
BBX 14 20 0 0
BITMAP
3CF0
3CF0
3CF0
3CF0
3CF0
3CF0
FFFC
FFFC
3CF0
3CF0
3CF0
3CF0
FFFC
FFFC
3CF0
3CF0
3CF0
3CF0
3CF0
3CF0
ENDCHAR
STARTCHAR 0024
ENCODING 36
SWIDTH 500 0
DWIDTH 16 0
BBX 14 24 0 -4
BITMAP
03C0
03C0
03C0
03C0
3FF0
3FF0
F03C
F03C
F000
F000
3FC0
3FC0
0FF0
0FF0
003C
003C
F03C
F03C
3FF0
3FF0
03C0
03C0
03C0
03C0
ENDCHAR
STARTCHAR 0025
ENCODING 37
SWIDTH 500 0
DWIDTH 16 0
BBX 14 14 0 0
BITMAP
3C0C
3C0C
3C3C
3C3C
00F0
00F0
03C0
03C0
0F00
0F00
3C3C
3C3C
F03C
F03C
ENDCHAR
STARTCHAR 0026
ENCODING 38
SWIDTH 500 0
DWIDTH 16 0
BBX 14 20 0 0
BITMAP
0FC0
0FC0
3CF0
3CF0
0FC0
0FC0
0F00
0F00
3F3C
3F3C
3FFC
3FFC
F0F0
F0F0
F0F0
F0F0
F0F0
F0F0
3F3C
3F3C
ENDCHAR
STARTCHAR 0027
ENCODING 39
SWIDTH 500 0
DWIDTH 16 0
BBX 6 8 6 14
BITMAP
3C
3C
3C
3C
3C
3C
F0
F0
ENDCHAR
STARTCHAR 0028
ENCODING 40
SWIDTH 500 0
DWIDTH 16 0
BBX 8 20 4 0
BITMAP
0F
0F
3C
3C
F0
F0
F0
F0
F0
F0
F0
F0
F0
F0
F0
F0
3C
3C
0F
0F
ENDCHAR
STARTCHAR 0029
ENCODING 41
SWIDTH 500 0
DWIDTH 16 0
BBX 8 20 4 0
BITMAP
F0
F0
3C
3C
0F
0F
0F
0F
0F
0F
0F
0F
0F
0F
0F
0F
3C
3C
F0
F0
ENDCHAR
STARTCHAR 002A
ENCODING 42
SWIDTH 500 0
DWIDTH 16 0
BBX 14 10 0 4
BITMAP
3CF0
3CF0
0FC0
0FC0
FFFC
FFFC
0FC0
0FC0
3CF0
3CF0
ENDCHAR
STARTCHAR 002B
ENCODING 43
SWIDTH 500 0
DWIDTH 16 0
BBX 12 10 2 4
BITMAP
0F00
0F00
0F00
0F00
FFF0
FFF0
0F00
0F00
0F00
0F00
ENDCHAR
STARTCHAR 002C
ENCODING 44
SWIDTH 500 0
DWIDTH 16 0
BBX 6 8 6 -2
BITMAP
3C
3C
3C
3C
3C
3C
F0
F0
ENDCHAR
STARTCHAR 002D
ENCODING 45
SWIDTH 500 0
DWIDTH 16 0
BBX 14 2 0 8
BITMAP
FFFC
FFFC
ENDCHAR
STARTCHAR 002E
ENCODING 46
SWIDTH 500 0
DWIDTH 16 0
BBX 4 4 6 0
BITMAP
F0
F0
F0
F0
ENDCHAR
STARTCHAR 002F
ENCODING 47
SWIDTH 500 0
DWIDTH 16 0
BBX 14 16 0 0
BITMAP
000C
000C
003C
003C
00F0
00F0
03C0
03C0
0F00
0F00
3C00
3C00
F000
F000
C000
C000
ENDCHAR
STARTCHAR 0030
ENCODING 48
SWIDTH 500 0
DWIDTH 16 0
BBX 14 20 0 0
BITMAP
3FF0
3FF0
F03C
F03C
F03C
F03C
F0FC
F0FC
F3FC
F3FC
FF3C
FF3C
FC3C
FC3C
F03C
F03C
F03C
F03C
3FF0
3FF0
ENDCHAR
STARTCHAR 0031
ENCODING 49
SWIDTH 500 0
DWIDTH 16 0
BBX 12 20 2 0
BITMAP
0F00
0F00
FF00
FF00
0F00
0F00
0F00
0F00
0F00
0F00
0F00
0F00
0F00
0F00
0F00
0F00
0F00
0F00
FFF0
FFF0
ENDCHAR
STARTCHAR 0032
ENCODING 50
SWIDTH 500 0
DWIDTH 16 0
BBX 14 20 0 0
BITMAP
3FF0
3FF0
F03C
F03C
F03C
F03C
003C
003C
00F0
00F0
03C0
03C0
0F00
0F00
3C00
3C00
F03C
F03C
FFFC
FFFC
ENDCHAR
STARTCHAR 0033
ENCODING 51
SWIDTH 500 0
DWIDTH 16 0
BBX 14 20 0 0
BITMAP
3FF0
3FF0
F03C
F03C
003C
003C
003C
003C
0FF0
0FF0
003C
003C
003C
003C
003C
003C
F03C
F03C
3FF0
3FF0
ENDCHAR
STARTCHAR 0034
ENCODING 52
SWIDTH 500 0
DWIDTH 16 0
BBX 14 20 0 0
BITMAP
00F0
00F0
03F0
03F0
0FF0
0FF0
3CF0
3CF0
F0F0
F0F0
F0F0
F0F0
FFFC
FFFC
00F0
00F0
00F0
00F0
03FC
03FC
ENDCHAR
STARTCHAR 0035
ENCODING 53
SWIDTH 500 0
DWIDTH 16 0
BBX 14 20 0 0
BITMAP
FFFC
FFFC
F000
F000
F000
F000
F000
F000
FFF0
FFF0
003C
003C
003C
003C
003C
003C
F03C
F03C
3FF0
3FF0
ENDCHAR
STARTCHAR 0036
ENCODING 54
SWIDTH 500 0
DWIDTH 16 0
BBX 14 20 0 0
BITMAP
3FF0
3FF0
F03C
F03C
F000
F000
F000
F000
FFF0
FFF0
F03C
F03C
F03C
F03C
F03C
F03C
F03C
F03C
3FF0
3FF0
ENDCHAR
STARTCHAR 0037
ENCODING 55
SWIDTH 500 0
DWIDTH 16 0
BBX 14 20 0 0
BITMAP
FFFC
FFFC
F03C
F03C
003C
003C
00F0
00F0
03C0
03C0
0F00
0F00
0F00
0F00
0F00
0F00
0F00
0F00
0F00
0F00
ENDCHAR
STARTCHAR 0038
ENCODING 56
SWIDTH 500 0
DWIDTH 16 0
BBX 14 20 0 0
BITMAP
3FF0
3FF0
F03C
F03C
F03C
F03C
F03C
F03C
3FF0
3FF0
F03C
F03C
F03C
F03C
F03C
F03C
F03C
F03C
3FF0
3FF0
ENDCHAR
STARTCHAR 0039
ENCODING 57
SWIDTH 500 0
DWIDTH 16 0
BBX 14 20 0 0
BITMAP
3FF0
3FF0
F03C
F03C
F03C
F03C
F03C
F03C
F03C
F03C
3FFC
3FFC
003C
003C
003C
003C
F03C
F03C
3FF0
3FF0
ENDCHAR
STARTCHAR 003A
ENCODING 58
SWIDTH 500 0
DWIDTH 16 0
BBX 4 12 8 2
BITMAP
F0
F0
F0
F0
00
00
00
00
F0
F0
F0
F0
ENDCHAR
STARTCHAR 003B
ENCODING 59
SWIDTH 500 0
DWIDTH 16 0
BBX 6 16 6 -2
BITMAP
3C
3C
3C
3C
00
00
00
00
3C
3C
3C
3C
3C
3C
F0
F0
ENDCHAR
STARTCHAR 003C
ENCODING 60
SWIDTH 500 0
DWIDTH 16 0
BBX 12 18 0 0
BITMAP
00F0
00F0
03C0
03C0
0F00
0F00
3C00
3C00
F000
F000
3C00
3C00
0F00
0F00
03C0
03C0
00F0
00F0
ENDCHAR
STARTCHAR 003D
ENCODING 61
SWIDTH 500 0
DWIDTH 16 0
BBX 14 6 0 6
BITMAP
FFFC
FFFC
0000
0000
FFFC
FFFC
ENDCHAR
STARTCHAR 003E
ENCODING 62
SWIDTH 500 0
DWIDTH 16 0
BBX 12 18 2 0
BITMAP
F000
F000
3C00
3C00
0F00
0F00
03C0
03C0
00F0
00F0
03C0
03C0
0F00
0F00
3C00
3C00
F000
F000
ENDCHAR
STARTCHAR 003F
ENCODING 63
SWIDTH 500 0
DWIDTH 16 0
BBX 14 20 0 0
BITMAP
3FF0
3FF0
F03C
F03C
F03C
F03C
00F0
00F0
03C0
03C0
03C0
03C0
03C0
03C0
0000
0000
03C0
03C0
03C0
03C0
ENDCHAR
STARTCHAR 0040
ENCODING 64
SWIDTH 500 0
DWIDTH 16 0
BBX 14 20 0 0
BITMAP
3FF0
3FF0
F03C
F03C
F03C
F03C
F03C
F03C
F3FC
F3FC
F3FC
F3FC
F3FC
F3FC
F3F0
F3F0
F000
F000
3FFC
3FFC
ENDCHAR
STARTCHAR 0041
ENCODING 65
SWIDTH 500 0
DWIDTH 16 0
BBX 14 20 0 0
BITMAP
0FC0
0FC0
3CF0
3CF0
F03C
F03C
F03C
F03C
F03C
F03C
FFFC
FFFC
F03C
F03C
F03C
F03C
F03C
F03C
F03C
F03C
ENDCHAR
STARTCHAR 0042
ENCODING 66
SWIDTH 500 0
DWIDTH 16 0
BBX 14 20 0 0
BITMAP
FFF0
FFF0
3C3C
3C3C
3C3C
3C3C
3C3C
3C3C
3FF0
3FF0
3C3C
3C3C
3C3C
3C3C
3C3C
3C3C
3C3C
3C3C
FFF0
FFF0
ENDCHAR
STARTCHAR 0043
ENCODING 67
SWIDTH 500 0
DWIDTH 16 0
BBX 14 20 0 0
BITMAP
0FF0
0FF0
3C3C
3C3C
F00C
F00C
F000
F000
F000
F000
F000
F000
F000
F000
F00C
F00C
3C3C
3C3C
0FF0
0FF0
ENDCHAR
STARTCHAR 0044
ENCODING 68
SWIDTH 500 0
DWIDTH 16 0
BBX 14 20 0 0
BITMAP
FFC0
FFC0
3CF0
3CF0
3C3C
3C3C
3C3C
3C3C
3C3C
3C3C
3C3C
3C3C
3C3C
3C3C
3C3C
3C3C
3CF0
3CF0
FFC0
FFC0
ENDCHAR
STARTCHAR 0045
ENCODING 69
SWIDTH 500 0
DWIDTH 16 0
BBX 14 20 0 0
BITMAP
FFFC
FFFC
3C3C
3C3C
3C00
3C00
3C30
3C30
3FF0
3FF0
3C30
3C30
3C00
3C00
3C00
3C00
3C3C
3C3C
FFFC
FFFC
ENDCHAR
STARTCHAR 0046
ENCODING 70
SWIDTH 500 0
DWIDTH 16 0
BBX 14 20 0 0
BITMAP
FFFC
FFFC
3C3C
3C3C
3C00
3C00
3C30
3C30
3FF0
3FF0
3C30
3C30
3C00
3C00
3C00
3C00
3C00
3C00
FF00
FF00
ENDCHAR
STARTCHAR 0047
ENCODING 71
SWIDTH 500 0
DWIDTH 16 0
BBX 14 20 0 0
BITMAP
3FF0
3FF0
F03C
F03C
F03C
F03C
F000
F000
F000
F000
F000
F000
F0FC
F0FC
F03C
F03C
F03C
F03C
3FF0
3FF0
ENDCHAR
STARTCHAR 0048
ENCODING 72
SWIDTH 500 0
DWIDTH 16 0
BBX 14 20 0 0
BITMAP
F03C
F03C
F03C
F03C
F03C
F03C
F03C
F03C
FFFC
FFFC
F03C
F03C
F03C
F03C
F03C
F03C
F03C
F03C
F03C
F03C
ENDCHAR
STARTCHAR 0049
ENCODING 73
SWIDTH 500 0
DWIDTH 16 0
BBX 8 20 4 0
BITMAP
FF
FF
3C
3C
3C
3C
3C
3C
3C
3C
3C
3C
3C
3C
3C
3C
3C
3C
FF
FF
ENDCHAR
STARTCHAR 004A
ENCODING 74
SWIDTH 500 0
DWIDTH 16 0
BBX 12 20 0 0
BITMAP
0FF0
0FF0
03C0
03C0
03C0
03C0
03C0
03C0
03C0
03C0
03C0
03C0
03C0
03C0
F3C0
F3C0
F3C0
F3C0
3F00
3F00
ENDCHAR
STARTCHAR 004B
ENCODING 75
SWIDTH 500 0
DWIDTH 16 0
BBX 14 20 0 0
BITMAP
F03C
F03C
F03C
F03C
F0F0
F0F0
F3C0
F3C0
FF00
FF00
FF00
FF00
F3C0
F3C0
F0F0
F0F0
F03C
F03C
F03C
F03C
ENDCHAR
STARTCHAR 004C
ENCODING 76
SWIDTH 500 0
DWIDTH 16 0
BBX 14 20 0 0
BITMAP
FF00
FF00
3C00
3C00
3C00
3C00
3C00
3C00
3C00
3C00
3C00
3C00
3C00
3C00
3C0C
3C0C
3C3C
3C3C
FFFC
FFFC
ENDCHAR
STARTCHAR 004D
ENCODING 77
SWIDTH 500 0
DWIDTH 16 0
BBX 14 20 0 0
BITMAP
F03C
F03C
F03C
F03C
FCFC
FCFC
FCFC
FCFC
FFFC
FFFC
F33C
F33C
F33C
F33C
F33C
F33C
F03C
F03C
F03C
F03C
ENDCHAR
STARTCHAR 004E
ENCODING 78
SWIDTH 500 0
DWIDTH 16 0
BBX 14 20 0 0
BITMAP
F03C
F03C
F03C
F03C
FC3C
FC3C
FC3C
FC3C
FF3C
FF3C
F3FC
F3FC
F0FC
F0FC
F0FC
F0FC
F03C
F03C
F03C
F03C
ENDCHAR
STARTCHAR 004F
ENCODING 79
SWIDTH 500 0
DWIDTH 16 0
BBX 14 20 0 0
BITMAP
3FF0
3FF0
F03C
F03C
F03C
F03C
F03C
F03C
F03C
F03C
F03C
F03C
F03C
F03C
F03C
F03C
F03C
F03C
3FF0
3FF0
ENDCHAR
STARTCHAR 0050
ENCODING 80
SWIDTH 500 0
DWIDTH 16 0
BBX 14 20 0 0
BITMAP
FFF0
FFF0
3C3C
3C3C
3C3C
3C3C
3C3C
3C3C
3C3C
3C3C
3FF0
3FF0
3C00
3C00
3C00
3C00
3C00
3C00
FF00
FF00
ENDCHAR
STARTCHAR 0051
ENCODING 81
SWIDTH 500 0
DWIDTH 16 0
BBX 14 22 0 -2
BITMAP
3FF0
3FF0
F03C
F03C
F03C
F03C
F03C
F03C
F03C
F03C
F03C
F03C
F03C
F03C
F33C
F33C
F33C
F33C
3FF0
3FF0
003C
003C
ENDCHAR
STARTCHAR 0052
ENCODING 82
SWIDTH 500 0
DWIDTH 16 0
BBX 14 20 0 0
BITMAP
FFF0
FFF0
3C3C
3C3C
3C3C
3C3C
3C3C
3C3C
3FF0
3FF0
3FC0
3FC0
3CF0
3CF0
3C3C
3C3C
3C3C
3C3C
FC3C
FC3C
ENDCHAR
STARTCHAR 0053
ENCODING 83
SWIDTH 500 0
DWIDTH 16 0
BBX 14 20 0 0
BITMAP
3FF0
3FF0
F03C
F03C
F000
F000
F000
F000
3F00
3F00
03F0
03F0
003C
003C
003C
003C
F03C
F03C
3FF0
3FF0
ENDCHAR
STARTCHAR 0054
ENCODING 84
SWIDTH 500 0
DWIDTH 16 0
BBX 12 20 2 0
BITMAP
FFF0
FFF0
CF30
CF30
0F00
0F00
0F00
0F00
0F00
0F00
0F00
0F00
0F00
0F00
0F00
0F00
0F00
0F00
3FC0
3FC0
ENDCHAR
STARTCHAR 0055
ENCODING 85
SWIDTH 500 0
DWIDTH 16 0
BBX 14 20 0 0
BITMAP
F03C
F03C
F03C
F03C
F03C
F03C
F03C
F03C
F03C
F03C
F03C
F03C
F03C
F03C
F03C
F03C
F03C
F03C
3FF0
3FF0
ENDCHAR
STARTCHAR 0056
ENCODING 86
SWIDTH 500 0
DWIDTH 16 0
BBX 14 20 0 0
BITMAP
F03C
F03C
F03C
F03C
F03C
F03C
F03C
F03C
F03C
F03C
F03C
F03C
F03C
F03C
3CF0
3CF0
0FC0
0FC0
0300
0300
ENDCHAR
STARTCHAR 0057
ENCODING 87
SWIDTH 500 0
DWIDTH 16 0
BBX 14 20 0 0
BITMAP
F03C
F03C
F03C
F03C
F03C
F03C
F33C
F33C
F33C
F33C
F33C
F33C
FFFC
FFFC
FCFC
FCFC
F03C
F03C
F03C
F03C
ENDCHAR
STARTCHAR 0058
ENCODING 88
SWIDTH 500 0
DWIDTH 16 0
BBX 14 20 0 0
BITMAP
F03C
F03C
F03C
F03C
F03C
F03C
3CF0
3CF0
0FC0
0FC0
0FC0
0FC0
3CF0
3CF0
F03C
F03C
F03C
F03C
F03C
F03C
ENDCHAR
STARTCHAR 0059
ENCODING 89
SWIDTH 500 0
DWIDTH 16 0
BBX 12 20 2 0
BITMAP
F0F0
F0F0
F0F0
F0F0
F0F0
F0F0
F0F0
F0F0
F0F0
F0F0
3FC0
3FC0
0F00
0F00
0F00
0F00
0F00
0F00
3FC0
3FC0
ENDCHAR
STARTCHAR 005A
ENCODING 90
SWIDTH 500 0
DWIDTH 16 0
BBX 14 20 0 0
BITMAP
FFFC
FFFC
F03C
F03C
C03C
C03C
00F0
00F0
03C0
03C0
0F00
0F00
3C00
3C00
F00C
F00C
F03C
F03C
FFFC
FFFC
ENDCHAR
STARTCHAR 005B
ENCODING 91
SWIDTH 500 0
DWIDTH 16 0
BBX 10 20 2 0
BITMAP
FFC0
FFC0
F000
F000
F000
F000
F000
F000
F000
F000
F000
F000
F000
F000
F000
F000
F000
F000
FFC0
FFC0
ENDCHAR
STARTCHAR 005C
ENCODING 92
SWIDTH 500 0
DWIDTH 16 0
BBX 14 16 0 0
BITMAP
C000
C000
F000
F000
3C00
3C00
0F00
0F00
03C0
03C0
00F0
00F0
003C
003C
000C
000C
ENDCHAR
STARTCHAR 005D
ENCODING 93
SWIDTH 500 0
DWIDTH 16 0
BBX 10 20 2 0
BITMAP
FFC0
FFC0
03C0
03C0
03C0
03C0
03C0
03C0
03C0
03C0
03C0
03C0
03C0
03C0
03C0
03C0
03C0
03C0
FFC0
FFC0
ENDCHAR
STARTCHAR 005E
ENCODING 94
SWIDTH 500 0
DWIDTH 16 0
BBX 14 8 0 14
BITMAP
0300
0300
0FC0
0FC0
3CF0
3CF0
F03C
F03C
ENDCHAR
STARTCHAR 005F
ENCODING 95
SWIDTH 500 0
DWIDTH 16 0
BBX 16 2 0 -4
BITMAP
FFFF
FFFF
ENDCHAR
STARTCHAR 0060
ENCODING 96
SWIDTH 500 0
DWIDTH 16 0
BBX 6 8 6 14
BITMAP
F0
F0
F0
F0
F0
F0
3C
3C
ENDCHAR
STARTCHAR 0061
ENCODING 97
SWIDTH 500 0
DWIDTH 16 0
BBX 14 14 0 0
BITMAP
3FC0
3FC0
00F0
00F0
3FF0
3FF0
F0F0
F0F0
F0F0
F0F0
F3F0
F3F0
3F3C
3F3C
ENDCHAR
STARTCHAR 0062
ENCODING 98
SWIDTH 500 0
DWIDTH 16 0
BBX 14 20 0 0
BITMAP
FC00
FC00
3C00
3C00
3C00
3C00
3FF0
3FF0
3C3C
3C3C
3C3C
3C3C
3C3C
3C3C
3C3C
3C3C
3C3C
3C3C
FFF0
FFF0
ENDCHAR
STARTCHAR 0063
ENCODING 99
SWIDTH 500 0
DWIDTH 16 0
BBX 14 14 0 0
BITMAP
3FF0
3FF0
F03C
F03C
F000
F000
F000
F000
F000
F000
F03C
F03C
3FF0
3FF0
ENDCHAR
STARTCHAR 0064
ENCODING 100
SWIDTH 500 0
DWIDTH 16 0
BBX 14 20 0 0
BITMAP
03F0
03F0
00F0
00F0
00F0
00F0
3FF0
3FF0
F0F0
F0F0
F0F0
F0F0
F0F0
F0F0
F0F0
F0F0
F0F0
F0F0
3FFC
3FFC
ENDCHAR
STARTCHAR 0065
ENCODING 101
SWIDTH 500 0
DWIDTH 16 0
BBX 14 14 0 0
BITMAP
3FF0
3FF0
F03C
F03C
F03C
F03C
FFFC
FFFC
F000
F000
F03C
F03C
3FF0
3FF0
ENDCHAR
STARTCHAR 0066
ENCODING 102
SWIDTH 500 0
DWIDTH 16 0
BBX 14 20 0 0
BITMAP
03F0
03F0
0F3C
0F3C
0F00
0F00
0F00
0F00
FFF0
FFF0
0F00
0F00
0F00
0F00
0F00
0F00
0F00
0F00
3FC0
3FC0
ENDCHAR
STARTCHAR 0067
ENCODING 103
SWIDTH 500 0
DWIDTH 16 0
BBX 14 18 0 -4
BITMAP
3F3C
3F3C
F0FC
F0FC
F03C
F03C
F03C
F03C
F0FC
F0FC
3F3C
3F3C
003C
003C
F03C
F03C
3FF0
3FF0
ENDCHAR
STARTCHAR 0068
ENCODING 104
SWIDTH 500 0
DWIDTH 16 0
BBX 14 20 0 0
BITMAP
FC00
FC00
3C00
3C00
3C00
3C00
3FF0
3FF0
3C3C
3C3C
3C3C
3C3C
3C3C
3C3C
3C3C
3C3C
3C3C
3C3C
FC3C
FC3C
ENDCHAR
STARTCHAR 0069
ENCODING 105
SWIDTH 500 0
DWIDTH 16 0
BBX 8 20 4 0
BITMAP
3C
3C
3C
3C
00
00
FC
FC
3C
3C
3C
3C
3C
3C
3C
3C
3C
3C
FF
FF
ENDCHAR
STARTCHAR 006A
ENCODING 106
SWIDTH 500 0
DWIDTH 16 0
BBX 12 24 0 -4
BITMAP
00F0
00F0
00F0
00F0
0000
0000
03F0
03F0
00F0
00F0
00F0
00F0
00F0
00F0
00F0
00F0
00F0
00F0
F0F0
F0F0
F0F0
F0F0
3FC0
3FC0
ENDCHAR
STARTCHAR 006B
ENCODING 107
SWIDTH 500 0
DWIDTH 16 0
BBX 14 20 0 0
BITMAP
FC00
FC00
3C00
3C00
3C00
3C00
3C3C
3C3C
3C3C
3C3C
3CF0
3CF0
3FC0
3FC0
3CF0
3CF0
3C3C
3C3C
FC3C
FC3C
ENDCHAR
STARTCHAR 006C
ENCODING 108
SWIDTH 500 0
DWIDTH 16 0
BBX 6 20 6 0
BITMAP
F0
F0
F0
F0
F0
F0
F0
F0
F0
F0
F0
F0
F0
F0
F0
F0
F0
F0
FC
FC
ENDCHAR
STARTCHAR 006D
ENCODING 109
SWIDTH 500 0
DWIDTH 16 0
BBX 14 14 0 0
BITMAP
3CF0
3CF0
FFFC
FFFC
F33C
F33C
F33C
F33C
F03C
F03C
F03C
F03C
F03C
F03C
ENDCHAR
STARTCHAR 006E
ENCODING 110
SWIDTH 500 0
DWIDTH 16 0
BBX 14 14 0 0
BITMAP
F3F0
F3F0
3C3C
3C3C
3C3C
3C3C
3C3C
3C3C
3C3C
3C3C
3C3C
3C3C
3C3C
3C3C
ENDCHAR
STARTCHAR 006F
ENCODING 111
SWIDTH 500 0
DWIDTH 16 0
BBX 14 14 0 0
BITMAP
3FF0
3FF0
F03C
F03C
F03C
F03C
F03C
F03C
F03C
F03C
F03C
F03C
3FF0
3FF0
ENDCHAR
STARTCHAR 0070
ENCODING 112
SWIDTH 500 0
DWIDTH 16 0
BBX 14 18 0 -4
BITMAP
F3F0
F3F0
3C3C
3C3C
3C3C
3C3C
3C3C
3C3C
3C3C
3C3C
3FF0
3FF0
3C00
3C00
3C00
3C00
FF00
FF00
ENDCHAR
STARTCHAR 0071
ENCODING 113
SWIDTH 500 0
DWIDTH 16 0
BBX 14 18 0 -4
BITMAP
3F3C
3F3C
F0F0
F0F0
F0F0
F0F0
F0F0
F0F0
F0F0
F0F0
3FF0
3FF0
00F0
00F0
00F0
00F0
03FC
03FC
ENDCHAR
STARTCHAR 0072
ENCODING 114
SWIDTH 500 0
DWIDTH 16 0
BBX 14 14 0 0
BITMAP
F3F0
F3F0
3C3C
3C3C
3C00
3C00
3C00
3C00
3C00
3C00
3C00
3C00
FF00
FF00
ENDCHAR
STARTCHAR 0073
ENCODING 115
SWIDTH 500 0
DWIDTH 16 0
BBX 14 14 0 0
BITMAP
3FF0
3FF0
F03C
F03C
F000
F000
3FF0
3FF0
003C
003C
F03C
F03C
3FF0
3FF0
ENDCHAR
STARTCHAR 0074
ENCODING 116
SWIDTH 500 0
DWIDTH 16 0
BBX 14 20 0 0
BITMAP
0F00
0F00
0F00
0F00
0F00
0F00
FFF0
FFF0
0F00
0F00
0F00
0F00
0F00
0F00
0F00
0F00
0F3C
0F3C
03F0
03F0
ENDCHAR
STARTCHAR 0075
ENCODING 117
SWIDTH 500 0
DWIDTH 16 0
BBX 14 14 0 0
BITMAP
F0F0
F0F0
F0F0
F0F0
F0F0
F0F0
F0F0
F0F0
F0F0
F0F0
F0F0
F0F0
3F3C
3F3C
ENDCHAR
STARTCHAR 0076
ENCODING 118
SWIDTH 500 0
DWIDTH 16 0
BBX 14 14 0 0
BITMAP
F03C
F03C
F03C
F03C
F03C
F03C
F03C
F03C
3CF0
3CF0
0FC0
0FC0
0300
0300
ENDCHAR
STARTCHAR 0077
ENCODING 119
SWIDTH 500 0
DWIDTH 16 0
BBX 14 14 0 0
BITMAP
F03C
F03C
F03C
F03C
F33C
F33C
F33C
F33C
F33C
F33C
FFFC
FFFC
3CF0
3CF0
ENDCHAR
STARTCHAR 0078
ENCODING 120
SWIDTH 500 0
DWIDTH 16 0
BBX 14 14 0 0
BITMAP
F03C
F03C
F03C
F03C
3CF0
3CF0
0FC0
0FC0
3CF0
3CF0
F03C
F03C
F03C
F03C
ENDCHAR
STARTCHAR 0079
ENCODING 121
SWIDTH 500 0
DWIDTH 16 0
BBX 14 18 0 -4
BITMAP
F03C
F03C
F03C
F03C
F03C
F03C
F03C
F03C
F0FC
F0FC
3F3C
3F3C
003C
003C
F03C
F03C
3FF0
3FF0
ENDCHAR
STARTCHAR 007A
ENCODING 122
SWIDTH 500 0
DWIDTH 16 0
BBX 14 14 0 0
BITMAP
FFFC
FFFC
C03C
C03C
00F0
00F0
03C0
03C0
0F00
0F00
3C0C
3C0C
FFFC
FFFC
ENDCHAR
STARTCHAR 007B
ENCODING 123
SWIDTH 500 0
DWIDTH 16 0
BBX 12 20 2 0
BITMAP
03F0
03F0
0F00
0F00
0F00
0F00
0F00
0F00
FC00
FC00
0F00
0F00
0F00
0F00
0F00
0F00
0F00
0F00
03F0
03F0
ENDCHAR
STARTCHAR 007C
ENCODING 124
SWIDTH 500 0
DWIDTH 16 0
BBX 4 20 6 0
BITMAP
F0
F0
F0
F0
F0
F0
F0
F0
00
00
F0
F0
F0
F0
F0
F0
F0
F0
F0
F0
ENDCHAR
STARTCHAR 007D
ENCODING 125
SWIDTH 500 0
DWIDTH 16 0
BBX 12 20 2 0
BITMAP
FC00
FC00
0F00
0F00
0F00
0F00
0F00
0F00
03F0
03F0
0F00
0F00
0F00
0F00
0F00
0F00
0F00
0F00
FC00
FC00
ENDCHAR
STARTCHAR 007E
ENCODING 126
SWIDTH 500 0
DWIDTH 16 0
BBX 14 4 0 16
BITMAP
3F3C
3F3C
F3F0
F3F0
ENDCHAR
STARTCHAR 007F
ENCODING 127
SWIDTH 500 0
DWIDTH 16 0
BBX 14 12 0 2
BITMAP
0300
0300
0FC0
0FC0
0FC0
0FC0
3CF0
3CF0
3CF0
3CF0
FFFC
FFFC
ENDCHAR
STARTCHAR 00A4
ENCODING 164
SWIDTH 1000 0
DWIDTH 32 0
BBX 26 26 4 -2
BITMAP
C03F00C0
C03F00C0
33C0F300
33C0F300
0C000C00
0C000C00
30000300
30000300
30000300
30000300
C00000C0
C00000C0
C00000C0
C00000C0
C00000C0
C00000C0
30000300
30000300
30000300
30000300
0C000C00
0C000C00
33C0F300
33C0F300
C03F00C0
C03F00C0
ENDCHAR
STARTCHAR 00A7
ENCODING 167
SWIDTH 1000 0
DWIDTH 32 0
BBX 10 28 12 -2
BITMAP
3F00
3F00
C0C0
C0C0
C000
C000
3000
3000
0C00
0C00
3300
3300
C0C0
C0C0
C0C0
C0C0
3300
3300
0C00
0C00
0300
0300
00C0
00C0
C0C0
C0C0
3F00
3F00
ENDCHAR
STARTCHAR 00A8
ENCODING 168
SWIDTH 1000 0
DWIDTH 32 0
BBX 22 8 6 10
BITMAP
3C00F0
3C00F0
FF03FC
FF03FC
FF03FC
FF03FC
3C00F0
3C00F0
ENDCHAR
STARTCHAR 00B0
ENCODING 176
SWIDTH 1000 0
DWIDTH 32 0
BBX 10 10 12 16
BITMAP
3F00
3F00
C0C0
C0C0
C0C0
C0C0
C0C0
C0C0
3F00
3F00
ENDCHAR
STARTCHAR 00B1
ENCODING 177
SWIDTH 1000 0
DWIDTH 32 0
BBX 18 22 8 2
BITMAP
00C000
00C000
00C000
00C000
00C000
00C000
00C000
00C000
FFFFC0
FFFFC0
00C000
00C000
00C000
00C000
00C000
00C000
00C000
00C000
000000
000000
FFFFC0
FFFFC0
ENDCHAR
STARTCHAR 00D7
ENCODING 215
SWIDTH 1000 0
DWIDTH 32 0
BBX 18 18 8 2
BITMAP
C000C0
C000C0
300300
300300
0C0C00
0C0C00
033000
033000
00C000
00C000
033000
033000
0C0C00
0C0C00
300300
300300
C000C0
C000C0
ENDCHAR
STARTCHAR 00E0
ENCODING 224
SWIDTH 1000 0
DWIDTH 32 0
BBX 16 24 8 2
BITMAP
0F00
0F00
03C0
03C0
00F0
00F0
0000
0000
3F3C
3F3C
F0FC
F0FC
F03C
F03C
F03C
F03C
F03C
F03C
F03C
F03C
F0FC
F0FC
3F3F
3F3F
ENDCHAR
STARTCHAR 00E1
ENCODING 225
SWIDTH 1000 0
DWIDTH 32 0
BBX 16 24 8 2
BITMAP
00F0
00F0
03C0
03C0
0F00
0F00
0000
0000
3F3C
3F3C
F0FC
F0FC
F03C
F03C
F03C
F03C
F03C
F03C
F03C
F03C
F0FC
F0FC
3F3F
3F3F
ENDCHAR
STARTCHAR 00E8
ENCODING 232
SWIDTH 1000 0
DWIDTH 32 0
BBX 16 24 8 2
BITMAP
0F00
0F00
03C0
03C0
00F0
00F0
0000
0000
0FF0
0FF0
3C3C
3C3C
F00F
F00F
FFFF
FFFF
F000
F000
F000
F000
3C0F
3C0F
0FFC
0FFC
ENDCHAR
STARTCHAR 00E9
ENCODING 233
SWIDTH 1000 0
DWIDTH 32 0
BBX 16 24 8 2
BITMAP
00F0
00F0
03C0
03C0
0F00
0F00
0000
0000
0FF0
0FF0
3C3C
3C3C
F00F
F00F
FFFF
FFFF
F000
F000
F000
F000
3C0F
3C0F
0FFC
0FFC
ENDCHAR
STARTCHAR 00EA
ENCODING 234
SWIDTH 1000 0
DWIDTH 32 0
BBX 16 24 8 2
BITMAP
03C0
03C0
0FF0
0FF0
3C3C
3C3C
0000
0000
0FF0
0FF0
3C3C
3C3C
F00F
F00F
FFFF
FFFF
F000
F000
F000
F000
3C0F
3C0F
0FFC
0FFC
ENDCHAR
STARTCHAR 00EC
ENCODING 236
SWIDTH 1000 0
DWIDTH 32 0
BBX 8 24 12 2
BITMAP
F0
F0
3C
3C
0F
0F
00
00
3C
3C
3C
3C
3C
3C
3C
3C
3C
3C
3C
3C
3C
3C
3C
3C
ENDCHAR
STARTCHAR 00ED
ENCODING 237
SWIDTH 1000 0
DWIDTH 32 0
BBX 8 24 10 2
BITMAP
0F
0F
3C
3C
F0
F0
00
00
3C
3C
3C
3C
3C
3C
3C
3C
3C
3C
3C
3C
3C
3C
3C
3C
ENDCHAR
STARTCHAR 00F2
ENCODING 242
SWIDTH 1000 0
DWIDTH 32 0
BBX 16 24 8 2
BITMAP
0F00
0F00
03C0
03C0
00F0
00F0
0000
0000
0FF0
0FF0
3C3C
3C3C
F00F
F00F
F00F
F00F
F00F
F00F
F00F
F00F
3C3C
3C3C
0FF0
0FF0
ENDCHAR
STARTCHAR 00F3
ENCODING 243
SWIDTH 1000 0
DWIDTH 32 0
BBX 16 24 8 2
BITMAP
00F0
00F0
03C0
03C0
0F00
0F00
0000
0000
0FF0
0FF0
3C3C
3C3C
F00F
F00F
F00F
F00F
F00F
F00F
F00F
F00F
3C3C
3C3C
0FF0
0FF0
ENDCHAR
STARTCHAR 00F7
ENCODING 247
SWIDTH 1000 0
DWIDTH 32 0
BBX 20 18 6 4
BITMAP
00F000
00F000
00F000
00F000
000000
000000
000000
000000
FFFFF0
FFFFF0
000000
000000
000000
000000
00F000
00F000
00F000
00F000
ENDCHAR
STARTCHAR 00F9
ENCODING 249
SWIDTH 1000 0
DWIDTH 32 0
BBX 18 24 8 2
BITMAP
0F0000
0F0000
03C000
03C000
00F000
00F000
000000
000000
F00F00
F00F00
F00F00
F00F00
F00F00
F00F00
F00F00
F00F00
F00F00
F00F00
F00F00
F00F00
3C3F00
3C3F00
0FCFC0
0FCFC0
ENDCHAR
STARTCHAR 00FA
ENCODING 250
SWIDTH 1000 0
DWIDTH 32 0
BBX 18 24 8 2
BITMAP
00F000
00F000
03C000
03C000
0F0000
0F0000
000000
000000
F00F00
F00F00
F00F00
F00F00
F00F00
F00F00
F00F00
F00F00
F00F00
F00F00
F00F00
F00F00
3C3F00
3C3F00
0FCFC0
0FCFC0
ENDCHAR
STARTCHAR 00FC
ENCODING 252
SWIDTH 1000 0
DWIDTH 32 0
BBX 18 20 8 2
BITMAP
0C3000
0C3000
000000
000000
F00F00
F00F00
F00F00
F00F00
F00F00
F00F00
F00F00
F00F00
F00F00
F00F00
F00F00
F00F00
3C3F00
3C3F00
0FCFC0
0FCFC0
ENDCHAR
STARTCHAR 0101
ENCODING 257
SWIDTH 1000 0
DWIDTH 32 0
BBX 16 22 8 2
BITMAP
3FFC
3FFC
0000
0000
0000
0000
3F3C
3F3C
F0FC
F0FC
F03C
F03C
F03C
F03C
F03C
F03C
F03C
F03C
F0FC
F0FC
3F3F
3F3F
ENDCHAR
STARTCHAR 0113
ENCODING 275
SWIDTH 1000 0
DWIDTH 32 0
BBX 16 22 8 2
BITMAP
3FFC
3FFC
0000
0000
0000
0000
0FF0
0FF0
3C3C
3C3C
F00F
F00F
FFFF
FFFF
F000
F000
F000
F000
3C0F
3C0F
0FFC
0FFC
ENDCHAR
STARTCHAR 011B
ENCODING 283
SWIDTH 1000 0
DWIDTH 32 0
BBX 16 24 8 2
BITMAP
3C3C
3C3C
0FF0
0FF0
03C0
03C0
0000
0000
0FF0
0FF0
3C3C
3C3C
F00F
F00F
FFFF
FFFF
F000
F000
F000
F000
3C0F
3C0F
0FFC
0FFC
ENDCHAR
STARTCHAR 012B
ENCODING 299
SWIDTH 1000 0
DWIDTH 32 0
BBX 8 22 12 2
BITMAP
FF
FF
00
00
3C
3C
3C
3C
3C
3C
3C
3C
3C
3C
3C
3C
3C
3C
3C
3C
3C
3C
ENDCHAR
STARTCHAR 014D
ENCODING 333
SWIDTH 1000 0
DWIDTH 32 0
BBX 16 22 8 2
BITMAP
3FFC
3FFC
0000
0000
0000
0000
0FF0
0FF0
3C3C
3C3C
F00F
F00F
F00F
F00F
F00F
F00F
F00F
F00F
3C3C
3C3C
0FF0
0FF0
ENDCHAR
STARTCHAR 016B
ENCODING 363
SWIDTH 1000 0
DWIDTH 32 0
BBX 18 22 8 2
BITMAP
FFFF00
FFFF00
000000
000000
000000
000000
F00F00
F00F00
F00F00
F00F00
F00F00
F00F00
F00F00
F00F00
F00F00
F00F00
F00F00
F00F00
3C3F00
3C3F00
0FCFC0
0FCFC0
ENDCHAR
STARTCHAR 01CE
ENCODING 462
SWIDTH 1000 0
DWIDTH 32 0
BBX 16 24 8 2
BITMAP
3C3C
3C3C
0FF0
0FF0
03C0
03C0
0000
0000
3F3C
3F3C
F0FC
F0FC
F03C
F03C
F03C
F03C
F03C
F03C
F03C
F03C
F0FC
F0FC
3F3F
3F3F
ENDCHAR
STARTCHAR 01D0
ENCODING 464
SWIDTH 1000 0
DWIDTH 32 0
BBX 12 24 10 2
BITMAP
F0F0
F0F0
3FC0
3FC0
0F00
0F00
0000
0000
0F00
0F00
0F00
0F00
0F00
0F00
0F00
0F00
0F00
0F00
0F00
0F00
0F00
0F00
0F00
0F00
ENDCHAR
STARTCHAR 01D2
ENCODING 466
SWIDTH 1000 0
DWIDTH 32 0
BBX 16 24 8 2
BITMAP
3C3C
3C3C
0FF0
0FF0
03C0
03C0
0000
0000
0FF0
0FF0
3C3C
3C3C
F00F
F00F
F00F
F00F
F00F
F00F
F00F
F00F
3C3C
3C3C
0FF0
0FF0
ENDCHAR
STARTCHAR 01D4
ENCODING 468
SWIDTH 1000 0
DWIDTH 32 0
BBX 18 24 8 2
BITMAP
3C3C00
3C3C00
0FF000
0FF000
03C000
03C000
000000
000000
F00F00
F00F00
F00F00
F00F00
F00F00
F00F00
F00F00
F00F00
F00F00
F00F00
F00F00
F00F00
3C3F00
3C3F00
0FCFC0
0FCFC0
ENDCHAR
STARTCHAR 01D6
ENCODING 470
SWIDTH 1000 0
DWIDTH 32 0
BBX 18 24 8 2
BITMAP
FFFF00
FFFF00
000000
000000
0C3000
0C3000
000000
000000
F00F00
F00F00
F00F00
F00F00
F00F00
F00F00
F00F00
F00F00
F00F00
F00F00
F00F00
F00F00
3C3F00
3C3F00
0FCFC0
0FCFC0
ENDCHAR
STARTCHAR 01D8
ENCODING 472
SWIDTH 1000 0
DWIDTH 32 0
BBX 18 27 8 2
BITMAP
00F000
00F000
03C000
03C000
0F0000
0F0000
000000
000000
0C3000
0C3000
000000
F00F00
F00F00
F00F00
F00F00
F00F00
F00F00
F00F00
F00F00
F00F00
F00F00
F00F00
F00F00
3C3F00
3C3F00
0FCFC0
0FCFC0
ENDCHAR
STARTCHAR 01DA
ENCODING 474
SWIDTH 1000 0
DWIDTH 32 0
BBX 18 27 8 2
BITMAP
3C3C00
3C3C00
0FF000
0FF000
03C000
03C000
000000
000000
0C3000
0C3000
000000
F00F00
F00F00
F00F00
F00F00
F00F00
F00F00
F00F00
F00F00
F00F00
F00F00
F00F00
F00F00
3C3F00
3C3F00
0FCFC0
0FCFC0
ENDCHAR
STARTCHAR 01DC
ENCODING 476
SWIDTH 1000 0
DWIDTH 32 0
BBX 18 27 8 2
BITMAP
0F0000
0F0000
03C000
03C000
00F000
00F000
000000
000000
0C3000
0C3000
000000
F00F00
F00F00
F00F00
F00F00
F00F00
F00F00
F00F00
F00F00
F00F00
F00F00
F00F00
F00F00
3C3F00
3C3F00
0FCFC0
0FCFC0
ENDCHAR
STARTCHAR 02C7
ENCODING 711
SWIDTH 1000 0
DWIDTH 32 0
BBX 22 22 6 -2
BITMAP
C0000C
C0000C
C0000C
C0000C
300030
300030
300030
300030
0C00C0
0C00C0
0C00C0
0C00C0
030300
030300
030300
030300
00CC00
00CC00
00FC00
00FC00
003000
003000
ENDCHAR
STARTCHAR 02C9
ENCODING 713
SWIDTH 1000 0
DWIDTH 32 0
BBX 14 2 10 12
BITMAP
FFFC
FFFC
ENDCHAR
STARTCHAR 0391
ENCODING 913
SWIDTH 1000 0
DWIDTH 32 0
BBX 28 24 2 4
BITMAP
000F0000
000F0000
000FC000
000FC000
003FC000
003FC000
0030F000
0030F000
00F0F000
00F0F000
00C03C00
00C03C00
03C03C00
03C03C00
03FFFF00
03FFFF00
0F000F00
0F000F00
0C0003C0
0C0003C0
3C0003C0
3C0003C0
FF000FF0
FF000FF0
ENDCHAR
STARTCHAR 0392
ENCODING 914
SWIDTH 1000 0
DWIDTH 32 0
BBX 24 22 2 4
BITMAP
FFFFFC
FFFFFC
3F003F
3F003F
3C000F
3C000F
3C000F
3C000F
3C003F
3C003F
3FFFC0
3FFFC0
3C003F
3C003F
3C000F
3C000F
3C000F
3C000F
3F003F
3F003F
FFFFFC
FFFFFC
ENDCHAR
STARTCHAR 0393
ENCODING 915
SWIDTH 1000 0
DWIDTH 32 0
BBX 24 22 2 4
BITMAP
FFFFFF
FFFFFF
3F000F
3F000F
3C0003
3C0003
3C0000
3C0000
3C0000
3C0000
3C0000
3C0000
3C0000
3C0000
3C0000
3C0000
3C0000
3C0000
3C0000
3C0000
FF0000
FF0000
ENDCHAR
STARTCHAR 0394
ENCODING 916
SWIDTH 1000 0
DWIDTH 32 0
BBX 28 22 2 4
BITMAP
000F0000
000F0000
003FC000
003FC000
00F0F000
00F0F000
00F0F000
00F0F000
03C03C00
03C03C00
03C03C00
03C03C00
0F000F00
0F000F00
0F000F00
0F000F00
3C0003C0
3C0003C0
3C0003C0
3C0003C0
FFFFFFF0
FFFFFFF0
ENDCHAR
STARTCHAR 0395
ENCODING 917
SWIDTH 1000 0
DWIDTH 32 0
BBX 24 22 2 4
BITMAP
FFFFFF
FFFFFF
3F000F
3F000F
3C0003
3C0003
3C0000
3C0000
3C00C0
3C00C0
3FFFC0
3FFFC0
3C00C0
3C00C0
3C0000
3C0000
3C0003
3C0003
3F000F
3F000F
FFFFFF
FFFFFF
ENDCHAR
STARTCHAR 0396
ENCODING 918
SWIDTH 1000 0
DWIDTH 32 0
BBX 24 22 4 4
BITMAP
FFFFFF
FFFFFF
F0003C
F0003C
C000F0
C000F0
0003C0
0003C0
000F00
000F00
003C00
003C00
00F000
00F000
03C000
03C000
0F0003
0F0003
3C000F
3C000F
FFFFFF
FFFFFF
ENDCHAR
STARTCHAR 0397
ENCODING 919
SWIDTH 1000 0
DWIDTH 32 0
BBX 28 22 2 4
BITMAP
FF000FF0
FF000FF0
3C0003C0
3C0003C0
3C0003C0
3C0003C0
3C0003C0
3C0003C0
3C0003C0
3C0003C0
3FFFFFC0
3FFFFFC0
3C0003C0
3C0003C0
3C0003C0
3C0003C0
3C0003C0
3C0003C0
3C0003C0
3C0003C0
FF000FF0
FF000FF0
ENDCHAR
STARTCHAR 0398
ENCODING 920
SWIDTH 1000 0
DWIDTH 32 0
BBX 26 22 2 4
BITMAP
03FFF000
03FFF000
0F003C00
0F003C00
3C000F00
3C000F00
F00003C0
F00003C0
F30033C0
F30033C0
F3FFF3C0
F3FFF3C0
F30033C0
F30033C0
F00003C0
F00003C0
3C000F00
3C000F00
0F003C00
0F003C00
03FFF000
03FFF000
ENDCHAR
STARTCHAR 0399
ENCODING 921
SWIDTH 1000 0
DWIDTH 32 0
BBX 8 22 12 4
BITMAP
FF
FF
3C
3C
3C
3C
3C
3C
3C
3C
3C
3C
3C
3C
3C
3C
3C
3C
3C
3C
FF
FF
ENDCHAR
STARTCHAR 039A
ENCODING 922
SWIDTH 1000 0
DWIDTH 32 0
BBX 22 22 2 4
BITMAP
FF0FF0
FF0FF0
3C0F00
3C0F00
3C3C00
3C3C00
3CF000
3CF000
3FC000
3FC000
3FC000
3FC000
3CF000
3CF000
3C3C00
3C3C00
3C0F00
3C0F00
3C03C0
3C03C0
FF03FC
FF03FC
ENDCHAR
STARTCHAR 039B
ENCODING 923
SWIDTH 1000 0
DWIDTH 32 0
BBX 26 22 2 4
BITMAP
000C0000
000C0000
003F0000
003F0000
00F3C000
00F3C000
00F3C000
00F3C000
03C0F000
03C0F000
03C0F000
03C0F000
0F003C00
0F003C00
0F003C00
0F003C00
3C000F00
3C000F00
3C000F00
3C000F00
FF003FC0
FF003FC0
ENDCHAR
STARTCHAR 039C
ENCODING 924
SWIDTH 1000 0
DWIDTH 32 0
BBX 30 22 0 4
BITMAP
FF0003FC
FF0003FC
3F0003F0
3F0003F0
3FC00FF0
3FC00FF0
3CC00CF0
3CC00CF0
3CF03CF0
3CF03CF0
3C3030F0
3C3030F0
3C3CF0F0
3C3CF0F0
3C0CC0F0
3C0CC0F0
3C0FC0F0
3C0FC0F0
3C0300F0
3C0300F0
FF0003FC
FF0003FC
ENDCHAR
STARTCHAR 039D
ENCODING 925
SWIDTH 1000 0
DWIDTH 32 0
BBX 28 22 2 4
BITMAP
FC000FF0
FC000FF0
3F0003C0
3F0003C0
3FC003C0
3FC003C0
3CF003C0
3CF003C0
3C3C03C0
3C3C03C0
3C0F03C0
3C0F03C0
3C03C3C0
3C03C3C0
3C00F3C0
3C00F3C0
3C003FC0
3C003FC0
3C000FC0
3C000FC0
FF0003F0
FF0003F0
ENDCHAR
STARTCHAR 039E
ENCODING 926
SWIDTH 1000 0
DWIDTH 32 0
BBX 24 22 4 4
BITMAP
FFFFFF
FFFFFF
F0000F
F0000F
C00003
C00003
000000
000000
0F00F0
0F00F0
0FFFF0
0FFFF0
0F00F0
0F00F0
000000
000000
C00003
C00003
F0000F
F0000F
FFFFFF
FFFFFF
ENDCHAR
STARTCHAR 039F
ENCODING 927
SWIDTH 1000 0
DWIDTH 32 0
BBX 26 22 2 4
BITMAP
00FFC000
00FFC000
0F003C00
0F003C00
3C000F00
3C000F00
F00003C0
F00003C0
F00003C0
F00003C0
F00003C0
F00003C0
F00003C0
F00003C0
F00003C0
F00003C0
3C000F00
3C000F00
0F003C00
0F003C00
00FFC000
00FFC000
ENDCHAR
STARTCHAR 03A0
ENCODING 928
SWIDTH 1000 0
DWIDTH 32 0
BBX 28 22 2 4
BITMAP
FFFFFFF0
FFFFFFF0
3F000FC0
3F000FC0
3C0003C0
3C0003C0
3C0003C0
3C0003C0
3C0003C0
3C0003C0
3C0003C0
3C0003C0
3C0003C0
3C0003C0
3C0003C0
3C0003C0
3C0003C0
3C0003C0
3C0003C0
3C0003C0
FF000FF0
FF000FF0
ENDCHAR
STARTCHAR 03A1
ENCODING 929
SWIDTH 1000 0
DWIDTH 32 0
BBX 26 22 2 4
BITMAP
FFFFFC00
FFFFFC00
3F000F00
3F000F00
3C0003C0
3C0003C0
3C0003C0
3C0003C0
3F000F00
3F000F00
3FFFFC00
3FFFFC00
3C000000
3C000000
3C000000
3C000000
3C000000
3C000000
3C000000
3C000000
FF000000
FF000000
ENDCHAR
STARTCHAR 03A3
ENCODING 931
SWIDTH 1000 0
DWIDTH 32 0
BBX 26 22 2 4
BITMAP
FFFFFFC0
FFFFFFC0
3C0003C0
3C0003C0
0F0000C0
0F0000C0
03C00000
03C00000
00F00000
00F00000
00300000
00300000
00F00000
00F00000
03C00000
03C00000
0F0000C0
0F0000C0
3C0003C0
3C0003C0
FFFFFFC0
FFFFFFC0
ENDCHAR
STARTCHAR 03A4
ENCODING 932
SWIDTH 1000 0
DWIDTH 32 0
BBX 28 22 2 4
BITMAP
FFFFFFF0
FFFFFFF0
F00F00F0
F00F00F0
C00F0030
C00F0030
000F0000
000F0000
000F0000
000F0000
000F0000
000F0000
000F0000
000F0000
000F0000
000F0000
000F0000
000F0000
000F0000
000F0000
003FC000
003FC000
ENDCHAR
STARTCHAR 03A5
ENCODING 933
SWIDTH 1000 0
DWIDTH 32 0
BBX 16 22 8 4
BITMAP
003C
003C
3CCF
3CCF
C3C0
C3C0
03C0
03C0
03C0
03C0
03C0
03C0
03C0
03C0
03C0
03C0
03C0
03C0
03C0
03C0
0FF0
0FF0
ENDCHAR
STARTCHAR 03A6
ENCODING 934
SWIDTH 1000 0
DWIDTH 32 0
BBX 24 22 4 4
BITMAP
00FF00
00FF00
003C00
003C00
0FFFF0
0FFFF0
3C3C3C
3C3C3C
F03C0F
F03C0F
F03C0F
F03C0F
F03C0F
F03C0F
3C3C3C
3C3C3C
0FFFF0
0FFFF0
003C00
003C00
00FF00
00FF00
ENDCHAR
STARTCHAR 03A7
ENCODING 935
SWIDTH 1000 0
DWIDTH 32 0
BBX 28 22 2 4
BITMAP
FF000FF0
FF000FF0
0F000F00
0F000F00
03C03C00
03C03C00
00F0F000
00F0F000
003FC000
003FC000
000F0000
000F0000
003FC000
003FC000
00F0F000
00F0F000
03C03C00
03C03C00
0F000F00
0F000F00
FF000FF0
FF000FF0
ENDCHAR
STARTCHAR 03A8
ENCODING 936
SWIDTH 1000 0
DWIDTH 32 0
BBX 28 22 2 4
BITMAP
F03FC0F0
F03FC0F0
3C0F03C0
3C0F03C0
0C0F0300
0C0F0300
0F0F0F00
0F0F0F00
0F0F0F00
0F0F0F00
0F0F0F00
0F0F0F00
03FFFC00
03FFFC00
000F0000
000F0000
000F0000
000F0000
000F0000
000F0000
003FC000
003FC000
ENDCHAR
STARTCHAR 03A9
ENCODING 937
SWIDTH 1000 0
DWIDTH 32 0
BBX 26 22 2 4
BITMAP
00FFC000
00FFC000
03C0F000
03C0F000
0F003C00
0F003C00
3C000F00
3C000F00
3C000F00
3C000F00
3C000F00
3C000F00
3C000F00
3C000F00
0F003C00
0F003C00
C3C0F0C0
C3C0F0C0
F0C0C3C0
F0C0C3C0
FFC0FFC0
FFC0FFC0
ENDCHAR
STARTCHAR 03B1
ENCODING 945
SWIDTH 1000 0
DWIDTH 32 0
BBX 22 18 4 4
BITMAP
03F3C0
03F3C0
3C0FC0
3C0FC0
F003C0
F003C0
F003C0
F003C0
F003C0
F003C0
F003C0
F003C0
F003C0
F003C0
3C0FCC
3C0FCC
03F0F0
03F0F0
ENDCHAR
STARTCHAR 03B2
ENCODING 946
SWIDTH 1000 0
DWIDTH 32 0
BBX 18 28 6 -2
BITMAP
0FFC00
0FFC00
F00F00
F00F00
F00F00
F00F00
F03C00
F03C00
FFC000
FFC000
F03C00
F03C00
F003C0
F003C0
F003C0
F003C0
F003C0
F003C0
FC0F00
FC0F00
F3FC00
F3FC00
F00000
F00000
F00000
F00000
F00000
F00000
ENDCHAR
STARTCHAR 03B3
ENCODING 947
SWIDTH 1000 0
DWIDTH 32 0
BBX 22 24 4 -2
BITMAP
0FC03C
0FC03C
3CF0F0
3CF0F0
F0F0F0
F0F0F0
0033C0
0033C0
003FC0
003FC0
003F00
003F00
003F00
003F00
003F00
003F00
003C00
003C00
003C00
003C00
003C00
003C00
003C00
003C00
ENDCHAR
STARTCHAR 03B4
ENCODING 948
SWIDTH 1000 0
DWIDTH 32 0
BBX 16 22 8 4
BITMAP
0FF0
0FF0
3C3C
3C3C
0F00
0F00
03C0
03C0
0CF0
0CF0
3C3C
3C3C
F00F
F00F
F00F
F00F
F00F
F00F
3C3C
3C3C
0FF0
0FF0
ENDCHAR
STARTCHAR 03B5
ENCODING 949
SWIDTH 1000 0
DWIDTH 32 0
BBX 12 18 8 4
BITMAP
3FC0
3FC0
F0F0
F0F0
F000
F000
3C00
3C00
03C0
03C0
3C00
3C00
F000
F000
F0F0
F0F0
3FC0
3FC0
ENDCHAR
STARTCHAR 03B6
ENCODING 950
SWIDTH 1000 0
DWIDTH 32 0
BBX 14 28 8 -2
BITMAP
0C00
0C00
3030
3030
3CF0
3CF0
0F00
0F00
0F00
0F00
3C00
3C00
F000
F000
F000
F000
F000
F000
3C00
3C00
0FF0
0FF0
003C
003C
003C
003C
0FF0
0FF0
ENDCHAR
STARTCHAR 03B7
ENCODING 951
SWIDTH 1000 0
DWIDTH 32 0
BBX 18 24 6 -2
BITMAP
00FF00
00FF00
3303C0
3303C0
CF03C0
CF03C0
0F03C0
0F03C0
0F03C0
0F03C0
0F03C0
0F03C0
0F03C0
0F03C0
0F03C0
0F03C0
0F03C0
0F03C0
0003C0
0003C0
0003C0
0003C0
0003C0
0003C0
ENDCHAR
STARTCHAR 03B8
ENCODING 952
SWIDTH 1000 0
DWIDTH 32 0
BBX 18 22 6 4
BITMAP
03F000
03F000
3C0F00
3C0F00
300300
300300
F003C0
F003C0
F003C0
F003C0
FFFFC0
FFFFC0
F003C0
F003C0
F003C0
F003C0
300300
300300
3C0F00
3C0F00
03F000
03F000
ENDCHAR
STARTCHAR 03B9
ENCODING 953
SWIDTH 1000 0
DWIDTH 32 0
BBX 10 20 12 2
BITMAP
FC00
FC00
3C00
3C00
3C00
3C00
3C00
3C00
3C00
3C00
3C00
3C00
3C00
3C00
3C00
3C00
3CC0
3CC0
3F00
3F00
ENDCHAR
STARTCHAR 03BA
ENCODING 954
SWIDTH 1000 0
DWIDTH 32 0
BBX 20 18 6 4
BITMAP
FC03F0
FC03F0
3C0F00
3C0F00
3C3C00
3C3C00
3CF000
3CF000
3FC000
3FC000
3CF000
3CF000
3C3C00
3C3C00
3C0F00
3C0F00
FF0FF0
FF0FF0
ENDCHAR
STARTCHAR 03BB
ENCODING 955
SWIDTH 1000 0
DWIDTH 32 0
BBX 16 24 8 4
BITMAP
3000
3000
CC00
CC00
CC00
CC00
0F00
0F00
0F00
0F00
0F00
0F00
0FC0
0FC0
0CC0
0CC0
3CF0
3CF0
3033
3033
F03F
F03F
C00C
C00C
ENDCHAR
STARTCHAR 03BC
ENCODING 956
SWIDTH 1000 0
DWIDTH 32 0
BBX 18 24 8 -2
BITMAP
F03C00
F03C00
F03C00
F03C00
F03C00
F03C00
F03C00
F03C00
F03C00
F03C00
F03C00
F03C00
F03C00
F03C00
F0FCC0
F0FCC0
FF0F00
FF0F00
F00000
F00000
F00000
F00000
F00000
F00000
ENDCHAR
STARTCHAR 03BD
ENCODING 957
SWIDTH 1000 0
DWIDTH 32 0
BBX 18 18 6 4
BITMAP
F00300
F00300
3000C0
3000C0
3C03C0
3C03C0
0C0300
0C0300
0F0F00
0F0F00
030C00
030C00
033C00
033C00
03F000
03F000
00F000
00F000
ENDCHAR
STARTCHAR 03BE
ENCODING 958
SWIDTH 1000 0
DWIDTH 32 0
BBX 14 28 8 -2
BITMAP
3C00
3C00
F000
F000
3FC0
3FC0
F000
F000
F000
F000
3FC0
3FC0
F000
F000
C000
C000
C000
C000
F000
F000
3FF0
3FF0
003C
003C
0C3C
0C3C
03F0
03F0
ENDCHAR
STARTCHAR 03BF
ENCODING 959
SWIDTH 1000 0
DWIDTH 32 0
BBX 16 18 6 4
BITMAP
0FF0
0FF0
3C3C
3C3C
F00F
F00F
C003
C003
C003
C003
C003
C003
F00F
F00F
3C3C
3C3C
0FF0
0FF0
ENDCHAR
STARTCHAR 03C0
ENCODING 960
SWIDTH 1000 0
DWIDTH 32 0
BBX 24 18 4 4
BITMAP
3FFFFF
3FFFFF
C3C3C0
C3C3C0
03C3C0
03C3C0
03C3C0
03C3C0
03C3C0
03C3C0
03C3C0
03C3C0
0303C0
0303C0
0F03CC
0F03CC
3C00F0
3C00F0
ENDCHAR
STARTCHAR 03C1
ENCODING 961
SWIDTH 1000 0
DWIDTH 32 0
BBX 18 24 6 -2
BITMAP
0FFC00
0FFC00
3C0F00
3C0F00
F003C0
F003C0
F003C0
F003C0
F003C0
F003C0
F003C0
F003C0
FC03C0
FC03C0
FF0F00
FF0F00
F3FC00
F3FC00
F00000
F00000
F00000
F00000
F00000
F00000
ENDCHAR
STARTCHAR 03C3
ENCODING 963
SWIDTH 1000 0
DWIDTH 32 0
BBX 20 18 6 4
BITMAP
0FFFF0
0FFFF0
3C0F00
3C0F00
F003C0
F003C0
F003C0
F003C0
F003C0
F003C0
F003C0
F003C0
F003C0
F003C0
3C0F00
3C0F00
0FFC00
0FFC00
ENDCHAR
STARTCHAR 03C4
ENCODING 964
SWIDTH 1000 0
DWIDTH 32 0
BBX 14 18 8 4
BITMAP
3FFC
3FFC
F3C0
F3C0
03C0
03C0
03C0
03C0
03C0
03C0
03C0
03C0
03C0
03C0
03CC
03CC
00F0
00F0
ENDCHAR
STARTCHAR 03C5
ENCODING 965
SWIDTH 1000 0
DWIDTH 32 0
BBX 18 18 6 4
BITMAP
3C0F00
3C0F00
CF03C0
CF03C0
0F03C0
0F03C0
0F03C0
0F03C0
0F03C0
0F03C0
0F03C0
0F03C0
0F03C0
0F03C0
0F03C0
0F03C0
03FF00
03FF00
ENDCHAR
STARTCHAR 03C6
ENCODING 966
SWIDTH 1000 0
DWIDTH 32 0
BBX 20 28 6 -2
BITMAP
00F000
00F000
00F000
00F000
0FFF00
0FFF00
3CF3C0
3CF3C0
F0F0F0
F0F0F0
F0F0F0
F0F0F0
F0F0F0
F0F0F0
F0F0F0
F0F0F0
F0F0F0
F0F0F0
3CF3C0
3CF3C0
0FFF00
0FFF00
00F000
00F000
00F000
00F000
00F000
00F000
ENDCHAR
STARTCHAR 03C7
ENCODING 967
SWIDTH 1000 0
DWIDTH 32 0
BBX 20 24 6 2
BITMAP
3C00F0
3C00F0
CF03C0
CF03C0
0F03C0
0F03C0
03CF00
03CF00
03FC00
03FC00
00F000
00F000
00F000
00F000
03FC00
03FC00
0F3C00
0F3C00
3C0F00
3C0F00
3C0F30
3C0F30
F003C0
F003C0
ENDCHAR
STARTCHAR 03C8
ENCODING 968
SWIDTH 1000 0
DWIDTH 32 0
BBX 20 28 4 -2
BITMAP
003C00
003C00
003C00
003C00
3C3CC0
3C3CC0
CF3CF0
CF3CF0
0F3CF0
0F3CF0
0F3CF0
0F3CF0
0F3CF0
0F3CF0
0F3CF0
0F3CF0
0F3CF0
0F3CF0
0F3CF0
0F3CF0
03FFC0
03FFC0
003C00
003C00
003C00
003C00
003C00
003C00
ENDCHAR
STARTCHAR 03C9
ENCODING 969
SWIDTH 1000 0
DWIDTH 32 0
BBX 22 18 4 4
BITMAP
030300
030300
3C00F0
3C00F0
F0303C
F0303C
F0303C
F0303C
F0303C
F0303C
F0303C
F0303C
F0303C
F0303C
3CFCF0
3CFCF0
0F03C0
0F03C0
ENDCHAR
STARTCHAR 0401
ENCODING 1025
SWIDTH 1000 0
DWIDTH 32 0
BBX 20 28 6 -2
BITMAP
030300
030300
000000
000000
FFFFF0
FFFFF0
3C00F0
3C00F0
3C0030
3C0030
3C0000
3C0000
3C0300
3C0300
3FFF00
3FFF00
3C0300
3C0300
3C0000
3C0000
3C0000
3C0000
3C0030
3C0030
3F00F0
3F00F0
FFFFF0
FFFFF0
ENDCHAR
STARTCHAR 0410
ENCODING 1040
SWIDTH 1000 0
DWIDTH 32 0
BBX 22 26 6 0
BITMAP
003000
003000
00FC00
00FC00
00CC00
00CC00
03CF00
03CF00
030F00
030F00
030F00
030F00
0C03C0
0C03C0
0FFFC0
0FFFC0
0C03C0
0C03C0
3000F0
3000F0
3000F0
3000F0
3000F0
3000F0
FC03FC
FC03FC
ENDCHAR
STARTCHAR 0411
ENCODING 1041
SWIDTH 1000 0
DWIDTH 32 0
BBX 20 24 6 0
BITMAP
FFFFF0
FFFFF0
3F00F0
3F00F0
3C0030
3C0030
3C0000
3C0000
3C0000
3C0000
3FFF00
3FFF00
3C0FC0
3C0FC0
3C03F0
3C03F0
3C00F0
3C00F0
3C00F0
3C00F0
3F03C0
3F03C0
FFFF00
FFFF00
ENDCHAR
STARTCHAR 0412
ENCODING 1042
SWIDTH 1000 0
DWIDTH 32 0
BBX 20 24 6 0
BITMAP
FFFFC0
FFFFC0
3F03F0
3F03F0
3C00F0
3C00F0
3C03F0
3C03F0
3C0FC0
3C0FC0
3FFC00
3FFC00
3C0FC0
3C0FC0
3C03F0
3C03F0
3C00F0
3C00F0
3C00F0
3C00F0
3F03C0
3F03C0
FFFF00
FFFF00
ENDCHAR
STARTCHAR 0413
ENCODING 1043
SWIDTH 1000 0
DWIDTH 32 0
BBX 20 24 6 0
BITMAP
FFFFF0
FFFFF0
3F00F0
3F00F0
3C0030
3C0030
3C0000
3C0000
3C0000
3C0000
3C0000
3C0000
3C0000
3C0000
3C0000
3C0000
3C0000
3C0000
3C0000
3C0000
3C0000
3C0000
FF0000
FF0000
ENDCHAR
STARTCHAR 0414
ENCODING 1044
SWIDTH 1000 0
DWIDTH 32 0
BBX 24 24 4 0
BITMAP
0FFFFC
0FFFFC
00C0F0
00C0F0
00C0F0
00C0F0
00C0F0
00C0F0
0300F0
0300F0
0300F0
0300F0
0300F0
0300F0
0C00F0
0C00F0
0C00F0
0C00F0
0C00F0
0C00F0
FFFFFF
FFFFFF
C00003
C00003
ENDCHAR
STARTCHAR 0415
ENCODING 1045
SWIDTH 1000 0
DWIDTH 32 0
BBX 20 24 6 0
BITMAP
FFFFF0
FFFFF0
3F00F0
3F00F0
3C0030
3C0030
3C0000
3C0000
3C0300
3C0300
3FFF00
3FFF00
3C0300
3C0300
3C0000
3C0000
3C0000
3C0000
3C0030
3C0030
3F00F0
3F00F0
FFFFF0
FFFFF0
ENDCHAR
STARTCHAR 0416
ENCODING 1046
SWIDTH 1000 0
DWIDTH 32 0
BBX 28 24 2 0
BITMAP
FC3FC3F0
FC3FC3F0
3F0F0FC0
3F0F0FC0
030F0C00
030F0C00
030F0C00
030F0C00
00CF3000
00CF3000
03CF3C00
03CF3C00
03FFFC00
03FFFC00
03CF3C00
03CF3C00
0F0F0F00
0F0F0F00
0F0F0F00
0F0F0F00
3C0F03C0
3C0F03C0
FF3FCFF0
FF3FCFF0
ENDCHAR
STARTCHAR 0417
ENCODING 1047
SWIDTH 1000 0
DWIDTH 32 0
BBX 22 26 6 0
BITMAP
03FC00
03FC00
CC0FC0
CC0FC0
F003F0
F003F0
C000FC
C000FC
0003F0
0003F0
000FC0
000FC0
00FC00
00FC00
000FC0
000FC0
0003F0
0003F0
C000FC
C000FC
3003F0
3003F0
0F0FC0
0F0FC0
00FF00
00FF00
ENDCHAR
STARTCHAR 0418
ENCODING 1048
SWIDTH 1000 0
DWIDTH 32 0
BBX 22 24 6 0
BITMAP
FF03FC
FF03FC
3C00F0
3C00F0
3C03F0
3C03F0
3C0CF0
3C0CF0
3C0CF0
3C0CF0
3C30F0
3C30F0
3C30F0
3C30F0
3CC0F0
3CC0F0
3CC0F0
3CC0F0
3F00F0
3F00F0
3C00F0
3C00F0
FF03FC
FF03FC
ENDCHAR
STARTCHAR 0419
ENCODING 1049
SWIDTH 1000 0
DWIDTH 32 0
BBX 22 28 6 -2
BITMAP
0F03C0
0F03C0
03FF00
03FF00
FF03FC
FF03FC
3C00F0
3C00F0
3C03F0
3C03F0
3C0CF0
3C0CF0
3C0CF0
3C0CF0
3C30F0
3C30F0
3C30F0
3C30F0
3CC0F0
3CC0F0
3CC0F0
3CC0F0
3F00F0
3F00F0
3C00F0
3C00F0
FF03FC
FF03FC
ENDCHAR
STARTCHAR 041A
ENCODING 1050
SWIDTH 1000 0
DWIDTH 32 0
BBX 24 24 6 0
BITMAP
FF00F0
FF00F0
3C03CC
3C03CC
3C0F00
3C0F00
3C3000
3C3000
3CC000
3CC000
3FF000
3FF000
3C3C00
3C3C00
3C0F00
3C0F00
3C0FC0
3C0FC0
3C03F0
3C03F0
3C00F0
3C00F0
FF00FF
FF00FF
ENDCHAR
STARTCHAR 041B
ENCODING 1051
SWIDTH 1000 0
DWIDTH 32 0
BBX 22 24 4 0
BITMAP
0FFFFC
0FFFFC
00C0F0
00C0F0
00C0F0
00C0F0
00C0F0
00C0F0
0300F0
0300F0
0300F0
0300F0
0300F0
0300F0
0C00F0
0C00F0
0C00F0
0C00F0
CC00F0
CC00F0
FC00F0
FC00F0
F003FC
F003FC
ENDCHAR
STARTCHAR 041C
ENCODING 1052
SWIDTH 1000 0
DWIDTH 32 0
BBX 26 22 4 0
BITMAP
FC000FC0
FC000FC0
3F003F00
3F003F00
33C0CF00
33C0CF00
33C0CF00
33C0CF00
30F0CF00
30F0CF00
30F30F00
30F30F00
30330F00
30330F00
303F0F00
303F0F00
300C0F00
300C0F00
300C0F00
300C0F00
FC003FC0
FC003FC0
ENDCHAR
STARTCHAR 041D
ENCODING 1053
SWIDTH 1000 0
DWIDTH 32 0
BBX 22 24 6 0
BITMAP
FF03FC
FF03FC
3C00F0
3C00F0
3C00F0
3C00F0
3C00F0
3C00F0
3C00F0
3C00F0
3FFFF0
3FFFF0
3C00F0
3C00F0
3C00F0
3C00F0
3C00F0
3C00F0
3C00F0
3C00F0
3C00F0
3C00F0
FF03FC
FF03FC
ENDCHAR
STARTCHAR 041E
ENCODING 1054
SWIDTH 1000 0
DWIDTH 32 0
BBX 22 24 6 0
BITMAP
03FF00
03FF00
0F03C0
0F03C0
3C00F0
3C00F0
F0003C
F0003C
F0003C
F0003C
F0003C
F0003C
F0003C
F0003C
F0003C
F0003C
F0003C
F0003C
3C00F0
3C00F0
0F03C0
0F03C0
03FF00
03FF00
ENDCHAR
STARTCHAR 041F
ENCODING 1055
SWIDTH 1000 0
DWIDTH 32 0
BBX 22 24 6 0
BITMAP
FFFFFC
FFFFFC
3C00F0
3C00F0
3C00F0
3C00F0
3C00F0
3C00F0
3C00F0
3C00F0
3C00F0
3C00F0
3C00F0
3C00F0
3C00F0
3C00F0
3C00F0
3C00F0
3C00F0
3C00F0
3C00F0
3C00F0
FF03FC
FF03FC
ENDCHAR
STARTCHAR 0420
ENCODING 1056
SWIDTH 1000 0
DWIDTH 32 0
BBX 20 24 6 0
BITMAP
FFFF00
FFFF00
3F03C0
3F03C0
3C00F0
3C00F0
3C00F0
3C00F0
3C00F0
3C00F0
3F03C0
3F03C0
3FFF00
3FFF00
3C0000
3C0000
3C0000
3C0000
3C0000
3C0000
3C0000
3C0000
FF0000
FF0000
ENDCHAR
STARTCHAR 0421
ENCODING 1057
SWIDTH 1000 0
DWIDTH 32 0
BBX 20 24 6 0
BITMAP
03FF00
03FF00
0F03F0
0F03F0
3C00F0
3C00F0
F00030
F00030
F00000
F00000
F00000
F00000
F00000
F00000
F00000
F00000
F00000
F00000
3C0030
3C0030
0F03C0
0F03C0
03FF00
03FF00
ENDCHAR
STARTCHAR 0422
ENCODING 1058
SWIDTH 1000 0
DWIDTH 32 0
BBX 20 22 6 2
BITMAP
FFFFF0
FFFFF0
C0F030
C0F030
00F000
00F000
00F000
00F000
00F000
00F000
00F000
00F000
00F000
00F000
00F000
00F000
00F000
00F000
00F000
00F000
03FC00
03FC00
ENDCHAR
STARTCHAR 0423
ENCODING 1059
SWIDTH 1000 0
DWIDTH 32 0
BBX 22 26 6 -2
BITMAP
FF00FC
FF00FC
3C0030
3C0030
3C0030
3C0030
3F0030
3F0030
0F00C0
0F00C0
0FC0C0
0FC0C0
03C300
03C300
03CF00
03CF00
00FC00
00FC00
003000
003000
30C000
30C000
FF0000
FF0000
3C0000
3C0000
ENDCHAR
STARTCHAR 0424
ENCODING 1060
SWIDTH 1000 0
DWIDTH 32 0
BBX 24 24 4 0
BITMAP
00FF00
00FF00
003C00
003C00
0FFFF0
0FFFF0
3C3C3C
3C3C3C
F03C0F
F03C0F
F03C0F
F03C0F
F03C0F
F03C0F
F03C0F
F03C0F
3C3C3C
3C3C3C
0FFFF0
0FFFF0
003C00
003C00
00FF00
00FF00
ENDCHAR
STARTCHAR 0425
ENCODING 1061
SWIDTH 1000 0
DWIDTH 32 0
BBX 22 24 6 0
BITMAP
FF00FC
FF00FC
3C0030
3C0030
0F00F0
0F00F0
0FC3C0
0FC3C0
03CF00
03CF00
00FC00
00FC00
00FC00
00FC00
03CF00
03CF00
0F0F00
0F0F00
0C03C0
0C03C0
3000F0
3000F0
FC03FC
FC03FC
ENDCHAR
STARTCHAR 0426
ENCODING 1062
SWIDTH 1000 0
DWIDTH 32 0
BBX 24 26 6 -2
BITMAP
FF03FC
FF03FC
3C00F0
3C00F0
3C00F0
3C00F0
3C00F0
3C00F0
3C00F0
3C00F0
3C00F0
3C00F0
3C00F0
3C00F0
3C00F0
3C00F0
3C00F0
3C00F0
3C00F0
3C00F0
3C00F0
3C00F0
FFFFFF
FFFFFF
000003
000003
ENDCHAR
STARTCHAR 0427
ENCODING 1063
SWIDTH 1000 0
DWIDTH 32 0
BBX 22 24 6 0
BITMAP
FF03FC
FF03FC
3C00F0
3C00F0
3C00F0
3C00F0
3C00F0
3C00F0
3C00F0
3C00F0
3C03F0
3C03F0
0F0FF0
0F0FF0
03FCF0
03FCF0
0000F0
0000F0
0000F0
0000F0
0000F0
0000F0
0003FC
0003FC
ENDCHAR
STARTCHAR 0428
ENCODING 1064
SWIDTH 1000 0
DWIDTH 32 0
BBX 28 24 2 0
BITMAP
FF3FCFF0
FF3FCFF0
3C0F03C0
3C0F03C0
3C0F03C0
3C0F03C0
3C0F03C0
3C0F03C0
3C0F03C0
3C0F03C0
3C0F03C0
3C0F03C0
3C0F03C0
3C0F03C0
3C0F03C0
3C0F03C0
3C0F03C0
3C0F03C0
3C0F03C0
3C0F03C0
3C0F03C0
3C0F03C0
FFFFFFF0
FFFFFFF0
ENDCHAR
STARTCHAR 0429
ENCODING 1065
SWIDTH 1000 0
DWIDTH 32 0
BBX 30 24 2 0
BITMAP
FF3FCFF0
FF3FCFF0
3C0F03C0
3C0F03C0
3C0F03C0
3C0F03C0
3C0F03C0
3C0F03C0
3C0F03C0
3C0F03C0
3C0F03C0
3C0F03C0
3C0F03C0
3C0F03C0
3C0F03C0
3C0F03C0
3C0F03C0
3C0F03C0
3C0F03C0
3C0F03C0
FFFFFFFC
FFFFFFFC
0000000C
0000000C
ENDCHAR
STARTCHAR 042A
ENCODING 1066
SWIDTH 1000 0
DWIDTH 32 0
BBX 20 24 6 0
BITMAP
FFC000
FFC000
CF0000
CF0000
0F0000
0F0000
0F0000
0F0000
0F0000
0F0000
0FFF00
0FFF00
0FC3C0
0FC3C0
0F00F0
0F00F0
0F00F0
0F00F0
0F00F0
0F00F0
0FC3C0
0FC3C0
3FFF00
3FFF00
ENDCHAR
STARTCHAR 042B
ENCODING 1067
SWIDTH 1000 0
DWIDTH 32 0
BBX 24 24 4 0
BITMAP
FF00FF
FF00FF
3C003C
3C003C
3C003C
3C003C
3C003C
3C003C
3C003C
3C003C
3FF03C
3FF03C
3F3C3C
3F3C3C
3C0F3C
3C0F3C
3C0F3C
3C0F3C
3C0F3C
3C0F3C
3F3C3C
3F3C3C
FFF0FF
FFF0FF
ENDCHAR
STARTCHAR 042C
ENCODING 1068
SWIDTH 1000 0
DWIDTH 32 0
BBX 18 24 8 0
BITMAP
FF0000
FF0000
3C0000
3C0000
3C0000
3C0000
3C0000
3C0000
3C0000
3C0000
3FFC00
3FFC00
3F0F00
3F0F00
3C03C0
3C03C0
3C03C0
3C03C0
3C03C0
3C03C0
3F0F00
3F0F00
FFFC00
FFFC00
ENDCHAR
STARTCHAR 042D
ENCODING 1069
SWIDTH 1000 0
DWIDTH 32 0
BBX 20 24 8 0
BITMAP
CFFC00
CFFC00
FC0F00
FC0F00
F003C0
F003C0
C000F0
C000F0
0000F0
0000F0
003FF0
003FF0
0000F0
0000F0
0000F0
0000F0
0000F0
0000F0
C003C0
C003C0
3C0F00
3C0F00
0FFC00
0FFC00
ENDCHAR
STARTCHAR 042E
ENCODING 1070
SWIDTH 1000 0
DWIDTH 32 0
BBX 26 24 4 0
BITMAP
FF0FFC00
FF0FFC00
3C3C0F00
3C3C0F00
3C3003C0
3C3003C0
3CF003C0
3CF003C0
3CF003C0
3CF003C0
3FF003C0
3FF003C0
3CF003C0
3CF003C0
3CF003C0
3CF003C0
3CF003C0
3CF003C0
3CF003C0
3CF003C0
3C3C0F00
3C3C0F00
FF0FFC00
FF0FFC00
ENDCHAR
STARTCHAR 042F
ENCODING 1071
SWIDTH 1000 0
DWIDTH 32 0
BBX 24 24 4 0
BITMAP
00FFFF
00FFFF
03C03C
03C03C
0F003C
0F003C
0F003C
0F003C
0F003C
0F003C
03C3FC
03C3FC
00FF3C
00FF3C
00F03C
00F03C
03C03C
03C03C
0F003C
0F003C
3C003C
3C003C
FF00FF
FF00FF
ENDCHAR
STARTCHAR 0430
ENCODING 1072
SWIDTH 1000 0
DWIDTH 32 0
BBX 18 20 8 2
BITMAP
0FC000
0FC000
3CF000
3CF000
F03C00
F03C00
C00C00
C00C00
0FCC00
0FCC00
3CFC00
3CFC00
F00C00
F00C00
F03CC0
F03CC0
3CF3C0
3CF3C0
0FC300
0FC300
ENDCHAR
STARTCHAR 0431
ENCODING 1073
SWIDTH 1000 0
DWIDTH 32 0
BBX 14 26 10 0
BITMAP
003C
003C
03F0
03F0
3F00
3F00
C000
C000
CFC0
CFC0
FCF0
FCF0
F03C
F03C
F03C
F03C
F03C
F03C
F03C
F03C
F03C
F03C
3CF0
3CF0
0FC0
0FC0
ENDCHAR
STARTCHAR 0432
ENCODING 1074
SWIDTH 1000 0
DWIDTH 32 0
BBX 16 20 8 2
BITMAP
FFFC
FFFC
3C0F
3C0F
3C0F
3C0F
3C3C
3C3C
3FF0
3FF0
3C3C
3C3C
3C0F
3C0F
3C0F
3C0F
3C0F
3C0F
FFFC
FFFC
ENDCHAR
STARTCHAR 0433
ENCODING 1075
SWIDTH 1000 0
DWIDTH 32 0
BBX 16 20 8 2
BITMAP
FFFF
FFFF
3C0F
3C0F
3C03
3C03
3C00
3C00
3C00
3C00
3C00
3C00
3C00
3C00
3C00
3C00
3C00
3C00
FF00
FF00
ENDCHAR
STARTCHAR 0434
ENCODING 1076
SWIDTH 1000 0
DWIDTH 32 0
BBX 20 18 6 4
BITMAP
3FFFF0
3FFFF0
030F00
030F00
030F00
030F00
030F00
030F00
0C0F00
0C0F00
0C0F00
0C0F00
300F00
300F00
FFFFF0
FFFFF0
C00030
C00030
ENDCHAR
STARTCHAR 0435
ENCODING 1077
SWIDTH 1000 0
DWIDTH 32 0
BBX 18 16 8 4
BITMAP
03FC00
03FC00
0F0F00
0F0F00
3C03C0
3C03C0
FFFFC0
FFFFC0
F00000
F00000
3C00C0
3C00C0
0F0F00
0F0F00
03FC00
03FC00
ENDCHAR
STARTCHAR 0436
ENCODING 1078
SWIDTH 1000 0
DWIDTH 32 0
BBX 20 16 6 4
BITMAP
33FCC0
33FCC0
F0F0F0
F0F0F0
0CF300
0CF300
0CF300
0CF300
03FC00
03FC00
0CF300
0CF300
30F0C0
30F0C0
F3FCF0
F3FCF0
ENDCHAR
STARTCHAR 0437
ENCODING 1079
SWIDTH 1000 0
DWIDTH 32 0
BBX 16 20 8 2
BITMAP
33F0
33F0
3F3C
3F3C
300F
300F
003C
003C
00F0
00F0
003C
003C
300F
300F
F00F
F00F
3C3C
3C3C
0FF0
0FF0
ENDCHAR
STARTCHAR 0438
ENCODING 1080
SWIDTH 1000 0
DWIDTH 32 0
BBX 18 18 8 4
BITMAP
FF3FC0
FF3FC0
3C0F00
3C0F00
3C0F00
3C0F00
3C3F00
3C3F00
3CCF00
3CCF00
3F0F00
3F0F00
3C0F00
3C0F00
3C0F00
3C0F00
FF3FC0
FF3FC0
ENDCHAR
STARTCHAR 0439
ENCODING 1081
SWIDTH 1000 0
DWIDTH 32 0
BBX 18 20 8 2
BITMAP
0C0C00
0C0C00
000000
000000
FF3FC0
FF3FC0
3C3F00
3C3F00
3CCF00
3CCF00
3F0F00
3F0F00
3C0F00
3C0F00
3C0F00
3C0F00
3C0F00
3C0F00
FF3FC0
FF3FC0
ENDCHAR
STARTCHAR 043A
ENCODING 1082
SWIDTH 1000 0
DWIDTH 32 0
BBX 18 18 8 4
BITMAP
FF0300
FF0300
3C0FC0
3C0FC0
3C3000
3C3000
3FC000
3FC000
3CF000
3CF000
3C3C00
3C3C00
3C0C00
3C0C00
3C0F00
3C0F00
FF03C0
FF03C0
ENDCHAR
STARTCHAR 043B
ENCODING 1083
SWIDTH 1000 0
DWIDTH 32 0
BBX 20 18 6 4
BITMAP
3FFFF0
3FFFF0
00C3C0
00C3C0
00C3C0
00C3C0
00C3C0
00C3C0
0303C0
0303C0
0303C0
0303C0
0303C0
0303C0
FC03C0
FC03C0
3C0FF0
3C0FF0
ENDCHAR
STARTCHAR 043C
ENCODING 1084
SWIDTH 1000 0
DWIDTH 32 0
BBX 22 16 6 4
BITMAP
F000FC
F000FC
3C03F0
3C03F0
3303F0
3303F0
33CCF0
33CCF0
30FCF0
30FCF0
30F0F0
30F0F0
30C0F0
30C0F0
FC03FC
FC03FC
ENDCHAR
STARTCHAR 043D
ENCODING 1085
SWIDTH 1000 0
DWIDTH 32 0
BBX 18 18 8 4
BITMAP
FF3FC0
FF3FC0
3C0F00
3C0F00
3C0F00
3C0F00
3C0F00
3C0F00
3FFF00
3FFF00
3C0F00
3C0F00
3C0F00
3C0F00
3C0F00
3C0F00
FF3FC0
FF3FC0
ENDCHAR
STARTCHAR 043E
ENCODING 1086
SWIDTH 1000 0
DWIDTH 32 0
BBX 14 18 10 4
BITMAP
0FC0
0FC0
3CF0
3CF0
F03C
F03C
F03C
F03C
F03C
F03C
F03C
F03C
F03C
F03C
3CF0
3CF0
0FC0
0FC0
ENDCHAR
STARTCHAR 043F
ENCODING 1087
SWIDTH 1000 0
DWIDTH 32 0
BBX 18 18 8 4
BITMAP
FFFFC0
FFFFC0
3C0F00
3C0F00
3C0F00
3C0F00
3C0F00
3C0F00
3C0F00
3C0F00
3C0F00
3C0F00
3C0F00
3C0F00
3C0F00
3C0F00
FF3FC0
FF3FC0
ENDCHAR
STARTCHAR 0440
ENCODING 1088
SWIDTH 1000 0
DWIDTH 32 0
BBX 18 20 8 2
BITMAP
3CFC00
3CFC00
FFCF00
FFCF00
3C03C0
3C03C0
3C03C0
3C03C0
3F0F00
3F0F00
3CF000
3CF000
3C0000
3C0000
3C0000
3C0000
3C0000
3C0000
FF0000
FF0000
ENDCHAR
STARTCHAR 0441
ENCODING 1089
SWIDTH 1000 0
DWIDTH 32 0
BBX 14 18 10 4
BITMAP
0FF0
0FF0
3C3C
3C3C
F030
F030
F000
F000
F000
F000
F000
F000
F00C
F00C
3CF0
3CF0
0FC0
0FC0
ENDCHAR
STARTCHAR 0442
ENCODING 1090
SWIDTH 1000 0
DWIDTH 32 0
BBX 16 18 8 4
BITMAP
FFFF
FFFF
C3C3
C3C3
03C0
03C0
03C0
03C0
03C0
03C0
03C0
03C0
03C0
03C0
03C0
03C0
0FF0
0FF0
ENDCHAR
STARTCHAR 0443
ENCODING 1091
SWIDTH 1000 0
DWIDTH 32 0
BBX 18 20 8 2
BITMAP
FF0FC0
FF0FC0
3C0300
3C0300
3C0300
3C0300
0F0C00
0F0C00
033C00
033C00
03F000
03F000
00C000
00C000
030000
030000
FC0000
FC0000
300000
300000
ENDCHAR
STARTCHAR 0444
ENCODING 1092
SWIDTH 1000 0
DWIDTH 32 0
BBX 20 26 6 0
BITMAP
003000
003000
03F000
03F000
00F000
00F000
00F000
00F000
0CF300
0CF300
3FFFC0
3FFFC0
F0F0F0
F0F0F0
F0F0F0
F0F0F0
3FFFC0
3FFFC0
0CF300
0CF300
00F000
00F000
00F000
00F000
03FC00
03FC00
ENDCHAR
STARTCHAR 0445
ENCODING 1093
SWIDTH 1000 0
DWIDTH 32 0
BBX 18 20 8 2
BITMAP
FF0FC0
FF0FC0
3C0300
3C0300
3C0300
3C0300
0F0C00
0F0C00
03F000
03F000
00F000
00F000
033C00
033C00
0C0F00
0C0F00
300F00
300F00
FC3FC0
FC3FC0
ENDCHAR
STARTCHAR 0446
ENCODING 1094
SWIDTH 1000 0
DWIDTH 32 0
BBX 18 20 8 2
BITMAP
FF3FC0
FF3FC0
3C0F00
3C0F00
3C0F00
3C0F00
3C0F00
3C0F00
3C0F00
3C0F00
3C0F00
3C0F00
3C0F00
3C0F00
3C0F00
3C0F00
FFFFC0
FFFFC0
0000C0
0000C0
ENDCHAR
STARTCHAR 0447
ENCODING 1095
SWIDTH 1000 0
DWIDTH 32 0
BBX 18 20 8 2
BITMAP
FF3FC0
FF3FC0
3C0F00
3C0F00
3C0F00
3C0F00
3C0F00
3C0F00
0F3F00
0F3F00
03FF00
03FF00
000F00
000F00
000F00
000F00
000F00
000F00
003FC0
003FC0
ENDCHAR
STARTCHAR 0448
ENCODING 1096
SWIDTH 1000 0
DWIDTH 32 0
BBX 22 18 6 4
BITMAP
FCFCFC
FCFCFC
303030
303030
303030
303030
303030
303030
303030
303030
303030
303030
303030
303030
303030
303030
FFFFFC
FFFFFC
ENDCHAR
STARTCHAR 0449
ENCODING 1097
SWIDTH 1000 0
DWIDTH 32 0
BBX 22 20 6 2
BITMAP
FCFCFC
FCFCFC
303030
303030
303030
303030
303030
303030
303030
303030
303030
303030
303030
303030
303030
303030
FFFFFC
FFFFFC
00000C
00000C
ENDCHAR
STARTCHAR 044A
ENCODING 1098
SWIDTH 1000 0
DWIDTH 32 0
BBX 20 20 6 2
BITMAP
FFC000
FFC000
CF0000
CF0000
0F0000
0F0000
0F0000
0F0000
0FFF00
0FFF00
0FC3C0
0FC3C0
0F00F0
0F00F0
0F00F0
0F00F0
0FC3C0
0FC3C0
3FFF00
3FFF00
ENDCHAR
STARTCHAR 044B
ENCODING 1099
SWIDTH 1000 0
DWIDTH 32 0
BBX 22 20 6 2
BITMAP
FF03FC
FF03FC
3C00F0
3C00F0
3C00F0
3C00F0
3C00F0
3C00F0
3CF0F0
3CF0F0
3F3CF0
3F3CF0
3C0FF0
3C0FF0
3C0FF0
3C0FF0
3F3CF0
3F3CF0
FFF3FC
FFF3FC
ENDCHAR
STARTCHAR 044C
ENCODING 1100
SWIDTH 1000 0
DWIDTH 32 0
BBX 18 20 8 2
BITMAP
FF0000
FF0000
3C0000
3C0000
3C0000
3C0000
3C0000
3C0000
3FFC00
3FFC00
3F0F00
3F0F00
3C03C0
3C03C0
3C03C0
3C03C0
3F0F00
3F0F00
FFFC00
FFFC00
ENDCHAR
STARTCHAR 044D
ENCODING 1101
SWIDTH 1000 0
DWIDTH 32 0
BBX 18 20 8 2
BITMAP
0FF000
0FF000
303C00
303C00
000F00
000F00
0003C0
0003C0
00FFC0
00FFC0
0003C0
0003C0
3003C0
3003C0
F00F00
F00F00
3C3C00
3C3C00
0FF000
0FF000
ENDCHAR
STARTCHAR 044E
ENCODING 1102
SWIDTH 1000 0
DWIDTH 32 0
BBX 22 20 6 2
BITMAP
FF0FC0
FF0FC0
3C3CF0
3C3CF0
3CF03C
3CF03C
3CF03C
3CF03C
3FF03C
3FF03C
3CF03C
3CF03C
3CF03C
3CF03C
3CF03C
3CF03C
3C3CF0
3C3CF0
FF0FC0
FF0FC0
ENDCHAR
STARTCHAR 044F
ENCODING 1103
SWIDTH 1000 0
DWIDTH 32 0
BBX 20 20 6 2
BITMAP
03FFF0
03FFF0
0FCFC0
0FCFC0
0F03C0
0F03C0
0F03C0
0F03C0
03CFC0
03CFC0
00FFC0
00FFC0
03C3C0
03C3C0
3303C0
3303C0
FF03C0
FF03C0
3C0FF0
3C0FF0
ENDCHAR
STARTCHAR 0451
ENCODING 1105
SWIDTH 1000 0
DWIDTH 32 0
BBX 16 20 10 2
BITMAP
0C30
0C30
0000
0000
0FF0
0FF0
3C3C
3C3C
F00F
F00F
FFFF
FFFF
C000
C000
F003
F003
3C3C
3C3C
0FF0
0FF0
ENDCHAR
STARTCHAR 2015
ENCODING 8213
SWIDTH 1000 0
DWIDTH 32 0
BBX 30 2 2 12
BITMAP
FFFFFFFC
FFFFFFFC
ENDCHAR
STARTCHAR 2016
ENCODING 8214
SWIDTH 1000 0
DWIDTH 32 0
BBX 8 28 12 -2
BITMAP
C3
C3
C3
C3
C3
C3
C3
C3
C3
C3
C3
C3
C3
C3
C3
C3
C3
C3
C3
C3
C3
C3
C3
C3
C3
C3
C3
C3
ENDCHAR
STARTCHAR 2018
ENCODING 8216
SWIDTH 1000 0
DWIDTH 32 0
BBX 10 12 16 12
BITMAP
00C0
00C0
0F00
0F00
3C00
3C00
FF00
FF00
FF00
FF00
3C00
3C00
ENDCHAR
STARTCHAR 2019
ENCODING 8217
SWIDTH 1000 0
DWIDTH 32 0
BBX 8 14 6 12
BITMAP
3C
3C
FF
FF
FF
FF
3C
3C
0C
0C
30
30
C0
C0
ENDCHAR
STARTCHAR 201C
ENCODING 8220
SWIDTH 1000 0
DWIDTH 32 0
BBX 20 12 12 12
BITMAP
00C030
00C030
0F03C0
0F03C0
3C0F00
3C0F00
FF3FC0
FF3FC0
FF3FC0
FF3FC0
3C0F00
3C0F00
ENDCHAR
STARTCHAR 201D
ENCODING 8221
SWIDTH 1000 0
DWIDTH 32 0
BBX 18 14 4 12
BITMAP
3C0F00
3C0F00
FF3FC0
FF3FC0
FF3FC0
FF3FC0
3C0F00
3C0F00
0C0300
0C0300
300C00
300C00
C03000
C03000
ENDCHAR
STARTCHAR 2026
ENCODING 8230
SWIDTH 1000 0
DWIDTH 32 0
BBX 28 8 4 8
BITMAP
3C0F03C0
3C0F03C0
FF3FCFF0
FF3FCFF0
FF3FCFF0
FF3FCFF0
3C0F03C0
3C0F03C0
ENDCHAR
STARTCHAR 2030
ENCODING 8240
SWIDTH 1000 0
DWIDTH 32 0
BBX 28 26 4 0
BITMAP
000000C0
000000C0
0F000300
0F000300
30C00C00
30C00C00
30C03000
30C03000
30C0C000
30C0C000
0F030000
0F030000
000C0000
000C0000
00300000
00300000
00CF03C0
00CF03C0
0330CC30
0330CC30
0C30CC30
0C30CC30
3030CC30
3030CC30
C00F03C0
C00F03C0
ENDCHAR
STARTCHAR 2032
ENCODING 8242
SWIDTH 1000 0
DWIDTH 32 0
BBX 8 18 14 8
BITMAP
03
03
03
03
0F
0F
0C
0C
3C
3C
30
30
F0
F0
C0
C0
C0
C0
ENDCHAR
STARTCHAR 2033
ENCODING 8243
SWIDTH 1000 0
DWIDTH 32 0
BBX 14 18 10 8
BITMAP
030C
030C
030C
030C
0F3C
0F3C
0C30
0C30
3CF0
3CF0
30C0
30C0
F3C0
F3C0
C300
C300
C300
C300
ENDCHAR
STARTCHAR 203B
ENCODING 8251
SWIDTH 1000 0
DWIDTH 32 0
BBX 20 20 6 2
BITMAP
C0F030
C0F030
30F0C0
30F0C0
0C0300
0C0300
030C00
030C00
F0F0F0
F0F0F0
F0F0F0
F0F0F0
030C00
030C00
0C0300
0C0300
30F0C0
30F0C0
C0F030
C0F030
ENDCHAR
STARTCHAR 2103
ENCODING 8451
SWIDTH 1000 0
DWIDTH 32 0
BBX 24 28 2 0
BITMAP
3C0000
3C0000
C30000
C30000
C3000C
C3000C
3C3FFF
3C3FFF
00F03C
00F03C
03C00C
03C00C
03C000
03C000
03C000
03C000
03C000
03C000
03C000
03C000
03C000
03C000
00F003
00F003
003C0C
003C0C
000FF0
000FF0
ENDCHAR
STARTCHAR 2116
ENCODING 8470
SWIDTH 1000 0
DWIDTH 32 0
BBX 28 28 2 -2
BITMAP
3F003C00
3F003C00
0F00FC00
0F00FC00
0FC0C000
0FC0C000
0CC0C000
0CC0C000
0CF0C000
0CF0C000
0CF0C000
0CF0C000
0CF0C000
0CF0C000
0C3CC3C0
0C3CC3C0
0C3CCC30
0C3CCC30
0C0CCC30
0C0CCC30
0C0FCC30
0C0FCC30
0C03C3C0
0C03C3C0
F003C000
F003C000
F000CFF0
F000CFF0
ENDCHAR
STARTCHAR 2160
ENCODING 8544
SWIDTH 1000 0
DWIDTH 32 0
BBX 6 24 14 0
BITMAP
FC
FC
30
30
30
30
30
30
30
30
30
30
30
30
30
30
30
30
30
30
30
30
FC
FC
ENDCHAR
STARTCHAR 2161
ENCODING 8545
SWIDTH 1000 0
DWIDTH 32 0
BBX 14 24 10 0
BITMAP
FCFC
FCFC
3030
3030
3030
3030
3030
3030
3030
3030
3030
3030
3030
3030
3030
3030
3030
3030
3030
3030
3030
3030
FCFC
FCFC
ENDCHAR
STARTCHAR 2162
ENCODING 8546
SWIDTH 1000 0
DWIDTH 32 0
BBX 22 24 6 0
BITMAP
FCFCFC
FCFCFC
303030
303030
303030
303030
303030
303030
303030
303030
303030
303030
303030
303030
303030
303030
303030
303030
303030
303030
303030
303030
FCFCFC
FCFCFC
ENDCHAR
STARTCHAR 2163
ENCODING 8547
SWIDTH 1000 0
DWIDTH 32 0
BBX 22 24 6 0
BITMAP
FCFCFC
FCFCFC
303030
303030
303030
303030
303030
303030
303030
303030
303030
303030
303030
303030
300CC0
300CC0
300CC0
300CC0
300CC0
300CC0
300300
300300
FC0300
FC0300
ENDCHAR
STARTCHAR 2164
ENCODING 8548
SWIDTH 1000 0
DWIDTH 32 0
BBX 18 24 8 0
BITMAP
FC0FC0
FC0FC0
300300
300300
300300
300300
300300
300300
3C0300
3C0300
0C0C00
0C0C00
0C0C00
0C0C00
0F0C00
0F0C00
033000
033000
033000
033000
00C000
00C000
00C000
00C000
ENDCHAR
STARTCHAR 2165
ENCODING 8549
SWIDTH 1000 0
DWIDTH 32 0
BBX 22 24 6 0
BITMAP
FCFCFC
FCFCFC
303030
303030
303030
303030
303030
303030
303030
303030
303030
303030
0CC030
0CC030
0CC030
0CC030
0CC030
0CC030
0CC030
0CC030
030030
030030
0300FC
0300FC
ENDCHAR
STARTCHAR 2166
ENCODING 8550
SWIDTH 1000 0
DWIDTH 32 0
BBX 26 24 4 0
BITMAP
FCFCFFC0
FCFCFFC0
30303300
30303300
30303300
30303300
30303300
30303300
30303300
30303300
30303300
30303300
0CC03300
0CC03300
0CC03300
0CC03300
0CC03300
0CC03300
0CC03300
0CC03300
03003300
03003300
0300FFC0
0300FFC0
ENDCHAR
STARTCHAR 2167
ENCODING 8551
SWIDTH 1000 0
DWIDTH 32 0
BBX 26 24 4 0
BITMAP
FCFFFFC0
FCFFFFC0
30333300
30333300
30333300
30333300
30333300
30333300
30333300
30333300
30333300
30333300
0CC33300
0CC33300
0CC33300
0CC33300
0CC33300
0CC33300
0CC33300
0CC33300
03033300
03033300
030FFFC0
030FFFC0
ENDCHAR
STARTCHAR 2168
ENCODING 8552
SWIDTH 1000 0
DWIDTH 32 0
BBX 22 24 6 0
BITMAP
FCFCFC
FCFCFC
303030
303030
303030
303030
303030
303030
300CC0
300CC0
300CC0
300CC0
300300
300300
300CC0
300CC0
300CC0
300CC0
303030
303030
303030
303030
FCFCFC
FCFCFC
ENDCHAR
STARTCHAR 2169
ENCODING 8553
SWIDTH 1000 0
DWIDTH 32 0
BBX 18 24 8 0
BITMAP
FC0FC0
FC0FC0
300300
300300
300300
300300
0C0C00
0C0C00
033000
033000
00C000
00C000
033000
033000
0C0C00
0C0C00
0C0C00
0C0C00
300300
300300
300300
300300
FC0FC0
FC0FC0
ENDCHAR
STARTCHAR 216A
ENCODING 8554
SWIDTH 1000 0
DWIDTH 32 0
BBX 22 24 6 0
BITMAP
FCFCFC
FCFCFC
303030
303030
303030
303030
303030
303030
0CC030
0CC030
0CC030
0CC030
030030
030030
0CC030
0CC030
303030
303030
303030
303030
303030
303030
FCFCFC
FCFCFC
ENDCHAR
STARTCHAR 216B
ENCODING 8555
SWIDTH 1000 0
DWIDTH 32 0
BBX 26 24 4 0
BITMAP
FFFCFFC0
FFFCFFC0
30303300
30303300
30303300
30303300
30303300
30303300
0CC03300
0CC03300
0CC03300
0CC03300
03003300
03003300
0CC03300
0CC03300
30303300
30303300
30303300
30303300
30303300
30303300
FFFCFFC0
FFFCFFC0
ENDCHAR
STARTCHAR 2190
ENCODING 8592
SWIDTH 1000 0
DWIDTH 32 0
BBX 26 14 4 6
BITMAP
00300000
00300000
03C00000
03C00000
3FC00000
3FC00000
FFFFFFC0
FFFFFFC0
3FC00000
3FC00000
03C00000
03C00000
00300000
00300000
ENDCHAR
STARTCHAR 2191
ENCODING 8593
SWIDTH 1000 0
DWIDTH 32 0
BBX 14 28 10 -2
BITMAP
0300
0300
0FC0
0FC0
0FC0
0FC0
3FF0
3FF0
3FF0
3FF0
C30C
C30C
0300
0300
0300
0300
0300
0300
0300
0300
0300
0300
0300
0300
0300
0300
0300
0300
ENDCHAR
STARTCHAR 2192
ENCODING 8594
SWIDTH 1000 0
DWIDTH 32 0
BBX 26 14 4 6
BITMAP
00030000
00030000
0000F000
0000F000
0000FF00
0000FF00
FFFFFFC0
FFFFFFC0
0000FF00
0000FF00
0000F000
0000F000
00030000
00030000
ENDCHAR
STARTCHAR 2193
ENCODING 8595
SWIDTH 1000 0
DWIDTH 32 0
BBX 14 28 10 -2
BITMAP
0300
0300
0300
0300
0300
0300
0300
0300
0300
0300
0300
0300
0300
0300
0300
0300
C30C
C30C
3FF0
3FF0
3FF0
3FF0
0FC0
0FC0
0FC0
0FC0
0300
0300
ENDCHAR
STARTCHAR 2208
ENCODING 8712
SWIDTH 1000 0
DWIDTH 32 0
BBX 12 26 8 -2
BITMAP
00F0
00F0
0F00
0F00
3000
3000
3000
3000
C000
C000
C000
C000
FFF0
FFF0
C000
C000
C000
C000
3000
3000
3000
3000
0F00
0F00
00F0
00F0
ENDCHAR
STARTCHAR 220F
ENCODING 8719
SWIDTH 1000 0
DWIDTH 32 0
BBX 24 24 4 0
BITMAP
FFFFFF
FFFFFF
0F00F0
0F00F0
0F00F0
0F00F0
0F00F0
0F00F0
0F00F0
0F00F0
0F00F0
0F00F0
0F00F0
0F00F0
0F00F0
0F00F0
0F00F0
0F00F0
0F00F0
0F00F0
0F00F0
0F00F0
FFC3FF
FFC3FF
ENDCHAR
STARTCHAR 2211
ENCODING 8721
SWIDTH 1000 0
DWIDTH 32 0
BBX 22 24 6 0
BITMAP
FFFFFC
FFFFFC
F0000C
F0000C
3C000C
3C000C
0F0000
0F0000
03C000
03C000
03C000
03C000
030000
030000
0C0000
0C0000
0C0000
0C0000
30000C
30000C
FFFFFC
FFFFFC
FFFFFC
FFFFFC
ENDCHAR
STARTCHAR 221A
ENCODING 8730
SWIDTH 1000 0
DWIDTH 32 0
BBX 22 28 4 -2
BITMAP
00000C
00000C
00000C
00000C
000030
000030
000030
000030
0000C0
0000C0
0000C0
0000C0
000300
000300
000300
000300
000C00
000C00
300C00
300C00
FCF000
FCF000
CFC000
CFC000
0F0000
0F0000
030000
030000
ENDCHAR
STARTCHAR 221D
ENCODING 8733
SWIDTH 1000 0
DWIDTH 32 0
BBX 24 14 4 6
BITMAP
0F003F
0F003F
30C0C0
30C0C0
C03300
C03300
C00C00
C00C00
C03300
C03300
30C0C0
30C0C0
0F003F
0F003F
ENDCHAR
STARTCHAR 221E
ENCODING 8734
SWIDTH 1000 0
DWIDTH 32 0
BBX 26 14 4 6
BITMAP
0F003C00
0F003C00
30C0C300
30C0C300
C03300C0
C03300C0
C00C00C0
C00C00C0
C03300C0
C03300C0
30C0C300
30C0C300
0F003C00
0F003C00
ENDCHAR
STARTCHAR 2220
ENCODING 8736
SWIDTH 1000 0
DWIDTH 32 0
BBX 20 20 4 4
BITMAP
000030
000030
0000C0
0000C0
000300
000300
000C00
000C00
003000
003000
00C000
00C000
030000
030000
0C0000
0C0000
300000
300000
FFFFF0
FFFFF0
ENDCHAR
STARTCHAR 2225
ENCODING 8741
SWIDTH 1000 0
DWIDTH 32 0
BBX 12 24 10 0
BITMAP
0C30
0C30
0C30
0C30
0C30
0C30
0C30
0C30
30C0
30C0
30C0
30C0
30C0
30C0
30C0
30C0
C300
C300
C300
C300
C300
C300
C300
C300
ENDCHAR
STARTCHAR 2227
ENCODING 8743
SWIDTH 1000 0
DWIDTH 32 0
BBX 26 24 4 2
BITMAP
000C0000
000C0000
00330000
00330000
00C0C000
00C0C000
00C0C000
00C0C000
03003000
03003000
03003000
03003000
0C000C00
0C000C00
0C000C00
0C000C00
30000300
30000300
30000300
30000300
C00000C0
C00000C0
C00000C0
C00000C0
ENDCHAR
STARTCHAR 2228
ENCODING 8744
SWIDTH 1000 0
DWIDTH 32 0
BBX 26 24 4 -2
BITMAP
C00000C0
C00000C0
C00000C0
C00000C0
30000300
30000300
30000300
30000300
0C000C00
0C000C00
0C000C00
0C000C00
03003000
03003000
03003000
03003000
00C0C000
00C0C000
00C0C000
00C0C000
00330000
00330000
000C0000
000C0000
ENDCHAR
STARTCHAR 2229
ENCODING 8745
SWIDTH 1000 0
DWIDTH 32 0
BBX 22 28 6 -2
BITMAP
0FFFC0
0FFFC0
3C00F0
3C00F0
F0003C
F0003C
C0000C
C0000C
C0000C
C0000C
C0000C
C0000C
C0000C
C0000C
C0000C
C0000C
C0000C
C0000C
C0000C
C0000C
C0000C
C0000C
C0000C
C0000C
C0000C
C0000C
C0000C
C0000C
ENDCHAR
STARTCHAR 222A
ENCODING 8746
SWIDTH 1000 0
DWIDTH 32 0
BBX 22 28 6 -2
BITMAP
C0000C
C0000C
C0000C
C0000C
C0000C
C0000C
C0000C
C0000C
C0000C
C0000C
C0000C
C0000C
C0000C
C0000C
C0000C
C0000C
C0000C
C0000C
C0000C
C0000C
C0000C
C0000C
F0003C
F0003C
3C00F0
3C00F0
0FFFC0
0FFFC0
ENDCHAR
STARTCHAR 222B
ENCODING 8747
SWIDTH 1000 0
DWIDTH 32 0
BBX 18 24 6 0
BITMAP
000F00
000F00
0030C0
0030C0
00C000
00C000
00C000
00C000
00C000
00C000
00C000
00C000
00C000
00C000
00C000
00C000
00C000
00C000
00C000
00C000
C30000
C30000
3C0000
3C0000
ENDCHAR
STARTCHAR 222E
ENCODING 8750
SWIDTH 1000 0
DWIDTH 32 0
BBX 18 26 6 0
BITMAP
000F00
000F00
0030C0
0030C0
00C000
00C000
00C000
00C000
03F000
03F000
0CCC00
0CCC00
0CCC00
0CCC00
0CCC00
0CCC00
03F000
03F000
00C000
00C000
00C000
00C000
C30000
C30000
3C0000
3C0000
ENDCHAR
STARTCHAR 2234
ENCODING 8756
SWIDTH 1000 0
DWIDTH 32 0
BBX 24 22 4 2
BITMAP
003C00
003C00
00FF00
00FF00
00FF00
00FF00
003C00
003C00
000000
000000
000000
000000
000000
000000
3C003C
3C003C
FF00FF
FF00FF
FF00FF
FF00FF
3C003C
3C003C
ENDCHAR
STARTCHAR 2235
ENCODING 8757
SWIDTH 1000 0
DWIDTH 32 0
BBX 24 22 6 2
BITMAP
3C003C
3C003C
FF00FF
FF00FF
FF00FF
FF00FF
3C003C
3C003C
000000
000000
000000
000000
000000
000000
003C00
003C00
00FF00
00FF00
00FF00
00FF00
003C00
003C00
ENDCHAR
STARTCHAR 2236
ENCODING 8758
SWIDTH 1000 0
DWIDTH 32 0
BBX 8 22 12 2
BITMAP
3C
3C
FF
FF
FF
FF
3C
3C
00
00
00
00
00
00
3C
3C
FF
FF
FF
FF
3C
3C
ENDCHAR
STARTCHAR 2237
ENCODING 8759
SWIDTH 1000 0
DWIDTH 32 0
BBX 24 24 4 0
BITMAP
3C003C
3C003C
FF00FF
FF00FF
FF00FF
FF00FF
3C003C
3C003C
000000
000000
000000
000000
000000
000000
000000
000000
3C003C
3C003C
FF00FF
FF00FF
FF00FF
FF00FF
3C003C
3C003C
ENDCHAR
STARTCHAR 223D
ENCODING 8765
SWIDTH 1000 0
DWIDTH 32 0
BBX 26 14 4 6
BITMAP
0F003C00
0F003C00
3000C300
3000C300
C00300C0
C00300C0
C00C00C0
C00C00C0
C03000C0
C03000C0
30C00300
30C00300
0F003C00
0F003C00
ENDCHAR
STARTCHAR 2248
ENCODING 8776
SWIDTH 1000 0
DWIDTH 32 0
BBX 24 14 4 6
BITMAP
0FC000
0FC000
303003
303003
C00C0C
C00C0C
0FC3F0
0FC3F0
303003
303003
C00C0C
C00C0C
0003F0
0003F0
ENDCHAR
STARTCHAR 224C
ENCODING 8780
SWIDTH 1000 0
DWIDTH 32 0
BBX 24 20 6 4
BITMAP
0C00F0
0C00F0
30030C
30030C
C00C03
C00C03
C03003
C03003
30C00C
30C00C
0F0030
0F0030
000000
000000
FFFFFF
FFFFFF
000000
000000
FFFFFF
FFFFFF
ENDCHAR
STARTCHAR 2260
ENCODING 8800
SWIDTH 1000 0
DWIDTH 32 0
BBX 22 28 6 -2
BITMAP
000300
000300
000300
000300
000300
000300
000C00
000C00
FFFFFC
FFFFFC
000C00
000C00
003000
003000
003000
003000
00C000
00C000
FFFFFC
FFFFFC
00C000
00C000
030000
030000
030000
030000
030000
030000
ENDCHAR
STARTCHAR 2261
ENCODING 8801
SWIDTH 1000 0
DWIDTH 32 0
BBX 22 10 6 8
BITMAP
FFFFFC
FFFFFC
000000
000000
FFFFFC
FFFFFC
000000
000000
FFFFFC
FFFFFC
ENDCHAR
STARTCHAR 2264
ENCODING 8804
SWIDTH 1000 0
DWIDTH 32 0
BBX 26 32 4 -4
BITMAP
000003C0
000003C0
00003C00
00003C00
0003C000
0003C000
003C0000
003C0000
03C00000
03C00000
3C000000
3C000000
F0000000
F0000000
3C000000
3C000000
03C00000
03C00000
C03C0000
C03C0000
3C03C000
3C03C000
03C03C00
03C03C00
003C03C0
003C03C0
0003C000
0003C000
00003C00
00003C00
000003C0
000003C0
ENDCHAR
STARTCHAR 2265
ENCODING 8805
SWIDTH 1000 0
DWIDTH 32 0
BBX 26 32 4 -4
BITMAP
F0000000
F0000000
0F000000
0F000000
00F00000
00F00000
000F0000
000F0000
0000F000
0000F000
00000F00
00000F00
000003C0
000003C0
00000F00
00000F00
0000F000
0000F000
000F00C0
000F00C0
00F00F00
00F00F00
0F00F000
0F00F000
F00F0000
F00F0000
00F00000
00F00000
0F000000
0F000000
F0000000
F0000000
ENDCHAR
STARTCHAR 226E
ENCODING 8814
SWIDTH 1000 0
DWIDTH 32 0
BBX 26 26 2 -2
BITMAP
003003C0
003003C0
00303C00
00303C00
0033C000
0033C000
003C0000
003C0000
03F00000
03F00000
3C300000
3C300000
F0300000
F0300000
3C300000
3C300000
03F00000
03F00000
003C0000
003C0000
0033C000
0033C000
00303C00
00303C00
003003C0
003003C0
ENDCHAR
STARTCHAR 226F
ENCODING 8815
SWIDTH 1000 0
DWIDTH 32 0
BBX 26 26 6 0
BITMAP
F0030000
F0030000
0F030000
0F030000
00F30000
00F30000
000F0000
000F0000
0003F000
0003F000
00030F00
00030F00
000303C0
000303C0
00030F00
00030F00
0003F000
0003F000
000F0000
000F0000
00F30000
00F30000
0F030000
0F030000
F0030000
F0030000
ENDCHAR
STARTCHAR 2299
ENCODING 8857
SWIDTH 1000 0
DWIDTH 32 0
BBX 30 30 2 -2
BITMAP
003FF000
003FF000
03C00F00
03C00F00
0C0000C0
0C0000C0
30000030
30000030
30000030
30000030
C003000C
C003000C
C00FC00C
C00FC00C
C03FF00C
C03FF00C
C00FC00C
C00FC00C
C003000C
C003000C
30000030
30000030
30000030
30000030
0C0000C0
0C0000C0
03C00F00
03C00F00
003FF000
003FF000
ENDCHAR
STARTCHAR 22A5
ENCODING 8869
SWIDTH 1000 0
DWIDTH 32 0
BBX 22 26 6 0
BITMAP
003000
003000
003000
003000
003000
003000
003000
003000
003000
003000
003000
003000
003000
003000
003000
003000
003000
003000
003000
003000
003000
003000
003000
003000
FFFFFC
FFFFFC
ENDCHAR
STARTCHAR 2312
ENCODING 8978
SWIDTH 1000 0
DWIDTH 32 0
BBX 26 16 4 8
BITMAP
003F0000
003F0000
03C0F000
03C0F000
0F003C00
0F003C00
0C000C00
0C000C00
30000300
30000300
30000300
30000300
C00000C0
C00000C0
C00000C0
C00000C0
ENDCHAR
STARTCHAR 2460
ENCODING 9312
SWIDTH 1000 0
DWIDTH 32 0
BBX 30 30 2 -2
BITMAP
003FF000
003FF000
03C00F00
03C00F00
0C00C0C0
0C00C0C0
300FC030
300FC030
3003C030
3003C030
C003C00C
C003C00C
C003C00C
C003C00C
C003C00C
C003C00C
C003C00C
C003C00C
C003C00C
C003C00C
3003C030
3003C030
300FF030
300FF030
0C0000C0
0C0000C0
03C00F00
03C00F00
003FF000
003FF000
ENDCHAR
STARTCHAR 2461
ENCODING 9313
SWIDTH 1000 0
DWIDTH 32 0
BBX 30 30 2 -2
BITMAP
003FF000
003FF000
03C00F00
03C00F00
0C0FC0C0
0C0FC0C0
303CF030
303CF030
30F03C30
30F03C30
C0C03C0C
C0C03C0C
C0003C0C
C0003C0C
C000F00C
C000F00C
C003C00C
C003C00C
C00F000C
C00F000C
303C0C30
303C0C30
30FFFC30
30FFFC30
0C0000C0
0C0000C0
03C00F00
03C00F00
003FF000
003FF000
ENDCHAR
STARTCHAR 2462
ENCODING 9314
SWIDTH 1000 0
DWIDTH 32 0
BBX 30 30 2 -2
BITMAP
003FF000
003FF000
03C00F00
03C00F00
0C0FC0C0
0C0FC0C0
303CF030
303CF030
30F03C30
30F03C30
C0303C0C
C0303C0C
C000F00C
C000F00C
C003C00C
C003C00C
C000F00C
C000F00C
C0303C0C
C0303C0C
30F03C30
30F03C30
303CF030
303CF030
0C0FC0C0
0C0FC0C0
03C00F00
03C00F00
003FF000
003FF000
ENDCHAR
STARTCHAR 2463
ENCODING 9315
SWIDTH 1000 0
DWIDTH 32 0
BBX 30 30 2 -2
BITMAP
003FF000
003FF000
03C00F00
03C00F00
0C00C0C0
0C00C0C0
3003C030
3003C030
300FC030
300FC030
C033C00C
C033C00C
C033C00C
C033C00C
C0C3C00C
C0C3C00C
C0C3C00C
C0C3C00C
C3FFFC0C
C3FFFC0C
3003C030
3003C030
3003C030
3003C030
0C0FF0C0
0C0FF0C0
03C00F00
03C00F00
003FF000
003FF000
ENDCHAR
STARTCHAR 2464
ENCODING 9316
SWIDTH 1000 0
DWIDTH 32 0
BBX 30 30 2 -2
BITMAP
003FF000
003FF000
03C00F00
03C00F00
0C0000C0
0C0000C0
30FFFC30
30FFFC30
30FFF030
30FFF030
C0C0000C
C0C0000C
C0CFC00C
C0CFC00C
C0FCF00C
C0FCF00C
C0C03C0C
C0C03C0C
C0003C0C
C0003C0C
30F03C30
30F03C30
303CF030
303CF030
0C0FC0C0
0C0FC0C0
03C00F00
03C00F00
003FF000
003FF000
ENDCHAR
STARTCHAR 2465
ENCODING 9317
SWIDTH 1000 0
DWIDTH 32 0
BBX 30 30 2 -2
BITMAP
003FF000
003FF000
03C00F00
03C00F00
0C0FF0C0
0C0FF0C0
303C3C30
303C3C30
30F00C30
30F00C30
C0F0000C
C0F0000C
C0F3C00C
C0F3C00C
C0FCF00C
C0FCF00C
C0FC3C0C
C0FC3C0C
C0F03C0C
C0F03C0C
30F03C30
30F03C30
303CF030
303CF030
0C0FC0C0
0C0FC0C0
03C00F00
03C00F00
003FF000
003FF000
ENDCHAR
STARTCHAR 2466
ENCODING 9318
SWIDTH 1000 0
DWIDTH 32 0
BBX 30 30 2 -2
BITMAP
003FF000
003FF000
03C00F00
03C00F00
0C0000C0
0C0000C0
30FFFC30
30FFFC30
30FFFC30
30FFFC30
C0C03C0C
C0C03C0C
C000300C
C000300C
C000F00C
C000F00C
C000F00C
C000F00C
C003C00C
C003C00C
300F0030
300F0030
303C0030
303C0030
0C3C00C0
0C3C00C0
03C00F00
03C00F00
003FF000
003FF000
ENDCHAR
STARTCHAR 2467
ENCODING 9319
SWIDTH 1000 0
DWIDTH 32 0
BBX 30 30 2 -2
BITMAP
003FF000
003FF000
03C00F00
03C00F00
0C0FC0C0
0C0FC0C0
303CF030
303CF030
30F03C30
30F03C30
C0F03C0C
C0F03C0C
C03CF00C
C03CF00C
C00FC00C
C00FC00C
C03CF00C
C03CF00C
C0F03C0C
C0F03C0C
30F03C30
30F03C30
303CF030
303CF030
0C0FC0C0
0C0FC0C0
03C00F00
03C00F00
003FF000
003FF000
ENDCHAR
STARTCHAR 2468
ENCODING 9320
SWIDTH 1000 0
DWIDTH 32 0
BBX 30 30 2 -2
BITMAP
003FF000
003FF000
03C00F00
03C00F00
0C0000C0
0C0000C0
300FC030
300FC030
303CF030
303CF030
C0F03C0C
C0F03C0C
C0F03C0C
C0F03C0C
C0F03C0C
C0F03C0C
C03CFC0C
C03CFC0C
C0033C0C
C0033C0C
30F03C30
30F03C30
303CF030
303CF030
0C0FC0C0
0C0FC0C0
03C00F00
03C00F00
003FF000
003FF000
ENDCHAR
STARTCHAR 2469
ENCODING 9321
SWIDTH 1000 0
DWIDTH 32 0
BBX 30 30 2 -2
BITMAP
003FF000
003FF000
03C00F00
03C00F00
0C30FCC0
0C30FCC0
33F3CF30
33F3CF30
30F3CF30
30F3CF30
C0F3CF0C
C0F3CF0C
C0F3CF0C
C0F3CF0C
C0F3CF0C
C0F3CF0C
C0F3CF0C
C0F3CF0C
C0F3CF0C
C0F3CF0C
30F3CF30
30F3CF30
33FCFC30
33FCFC30
0C0000C0
0C0000C0
03C00F00
03C00F00
003FF000
003FF000
ENDCHAR
STARTCHAR 2474
ENCODING 9332
SWIDTH 1000 0
DWIDTH 32 0
BBX 26 28 4 -2
BITMAP
0C000C00
0C000C00
300C0300
300C0300
30FC0300
30FC0300
C03C00C0
C03C00C0
C03C00C0
C03C00C0
C03C00C0
C03C00C0
C03C00C0
C03C00C0
C03C00C0
C03C00C0
C03C00C0
C03C00C0
C03C00C0
C03C00C0
C03C00C0
C03C00C0
30FF0300
30FF0300
30000300
30000300
0C000C00
0C000C00
ENDCHAR
STARTCHAR 2475
ENCODING 9333
SWIDTH 1000 0
DWIDTH 32 0
BBX 26 28 4 -2
BITMAP
0C000C00
0C000C00
303F0300
303F0300
30F3C300
30F3C300
C3C0F0C0
C3C0F0C0
C300F0C0
C300F0C0
C000F0C0
C000F0C0
C003C0C0
C003C0C0
C00F00C0
C00F00C0
C03C00C0
C03C00C0
C0F030C0
C0F030C0
C3FFF0C0
C3FFF0C0
30000300
30000300
30000300
30000300
0C000C00
0C000C00
ENDCHAR
STARTCHAR 2476
ENCODING 9334
SWIDTH 1000 0
DWIDTH 32 0
BBX 26 28 4 -2
BITMAP
0C000C00
0C000C00
303F0300
303F0300
30F3C300
30F3C300
C3C0F0C0
C3C0F0C0
C0C0F0C0
C0C0F0C0
C003C0C0
C003C0C0
C00F00C0
C00F00C0
C003C0C0
C003C0C0
C0C0F0C0
C0C0F0C0
C3C0F0C0
C3C0F0C0
C0F3C0C0
C0F3C0C0
303F0300
303F0300
30000300
30000300
0C000C00
0C000C00
ENDCHAR
STARTCHAR 2477
ENCODING 9335
SWIDTH 1000 0
DWIDTH 32 0
BBX 26 28 4 -2
BITMAP
0C030C00
0C030C00
300F0300
300F0300
303F0300
303F0300
C0CF00C0
C0CF00C0
C0CF00C0
C0CF00C0
C30F00C0
C30F00C0
C30F00C0
C30F00C0
CC0F00C0
CC0F00C0
CFFFF0C0
CFFFF0C0
C00F00C0
C00F00C0
C00F00C0
C00F00C0
303FC300
303FC300
30000300
30000300
0C000C00
0C000C00
ENDCHAR
STARTCHAR 2478
ENCODING 9336
SWIDTH 1000 0
DWIDTH 32 0
BBX 26 28 4 -2
BITMAP
0C000C00
0C000C00
30000300
30000300
33FFF300
33FFF300
C3FFC0C0
C3FFC0C0
C30000C0
C30000C0
C33F00C0
C33F00C0
C3F3C0C0
C3F3C0C0
C300F0C0
C300F0C0
C000F0C0
C000F0C0
C3C0F0C0
C3C0F0C0
C0F3C0C0
C0F3C0C0
303F0300
303F0300
30000300
30000300
0C000C00
0C000C00
ENDCHAR
STARTCHAR 2479
ENCODING 9337
SWIDTH 1000 0
DWIDTH 32 0
BBX 26 28 4 -2
BITMAP
0C000C00
0C000C00
303FC300
303FC300
30F0F300
30F0F300
C3C030C0
C3C030C0
C3C000C0
C3C000C0
C3CF00C0
C3CF00C0
C3F3C0C0
C3F3C0C0
C3F0F0C0
C3F0F0C0
C3C0F0C0
C3C0F0C0
C3C0F0C0
C3C0F0C0
C0F3C0C0
C0F3C0C0
303F0300
303F0300
30000300
30000300
0C000C00
0C000C00
ENDCHAR
STARTCHAR 247A
ENCODING 9338
SWIDTH 1000 0
DWIDTH 32 0
BBX 26 28 4 -2
BITMAP
0C000C00
0C000C00
30000300
30000300
33FFF300
33FFF300
C3FFF0C0
C3FFF0C0
C300F0C0
C300F0C0
C000C0C0
C000C0C0
C003C0C0
C003C0C0
C003C0C0
C003C0C0
C00F00C0
C00F00C0
C03C00C0
C03C00C0
C0F000C0
C0F000C0
30F00300
30F00300
30C00300
30C00300
0C000C00
0C000C00
ENDCHAR
STARTCHAR 247B
ENCODING 9339
SWIDTH 1000 0
DWIDTH 32 0
BBX 26 28 4 -2
BITMAP
0C000C00
0C000C00
303F0300
303F0300
30F3C300
30F3C300
C3C0F0C0
C3C0F0C0
C3C0F0C0
C3C0F0C0
C0F3C0C0
C0F3C0C0
C03F00C0
C03F00C0
C0F3C0C0
C0F3C0C0
C3C0F0C0
C3C0F0C0
C3C0F0C0
C3C0F0C0
C0F3C0C0
C0F3C0C0
303F0300
303F0300
30000300
30000300
0C000C00
0C000C00
ENDCHAR
STARTCHAR 247C
ENCODING 9340
SWIDTH 1000 0
DWIDTH 32 0
BBX 26 28 4 -2
BITMAP
0C000C00
0C000C00
30000300
30000300
303F0300
303F0300
C0F3C0C0
C0F3C0C0
C3C0F0C0
C3C0F0C0
C3C0F0C0
C3C0F0C0
C3C0F0C0
C3C0F0C0
C0F3F0C0
C0F3F0C0
C00CF0C0
C00CF0C0
C3C0F0C0
C3C0F0C0
C0F3C0C0
C0F3C0C0
303F0300
303F0300
30000300
30000300
0C000C00
0C000C00
ENDCHAR
STARTCHAR 247D
ENCODING 9341
SWIDTH 1000 0
DWIDTH 32 0
BBX 26 28 4 -2
BITMAP
0C000C00
0C000C00
30C3F300
30C3F300
3FCF3F00
3FCF3F00
C3CF3CC0
C3CF3CC0
C3CF3CC0
C3CF3CC0
C3CF3CC0
C3CF3CC0
C3CF3CC0
C3CF3CC0
C3CF3CC0
C3CF3CC0
C3CF3CC0
C3CF3CC0
C3CF3CC0
C3CF3CC0
C3CF3CC0
C3CF3CC0
3FF3F300
3FF3F300
30000300
30000300
0C000C00
0C000C00
ENDCHAR
STARTCHAR 247E
ENCODING 9342
SWIDTH 1000 0
DWIDTH 32 0
BBX 26 28 4 -2
BITMAP
0C000C00
0C000C00
30C03300
30C03300
3FC3F300
3FC3F300
C3C0F0C0
C3C0F0C0
C3C0F0C0
C3C0F0C0
C3C0F0C0
C3C0F0C0
C3C0F0C0
C3C0F0C0
C3C0F0C0
C3C0F0C0
C3C0F0C0
C3C0F0C0
C3C0F0C0
C3C0F0C0
C3C0F0C0
C3C0F0C0
3FF3FF00
3FF3FF00
30000300
30000300
0C000C00
0C000C00
ENDCHAR
STARTCHAR 247F
ENCODING 9343
SWIDTH 1000 0
DWIDTH 32 0
BBX 26 28 4 -2
BITMAP
0C000C00
0C000C00
30C3F300
30C3F300
3FCF3F00
3FCF3F00
C3FC3CC0
C3FC3CC0
C3CC3CC0
C3CC3CC0
C3C03CC0
C3C03CC0
C3C0F0C0
C3C0F0C0
C3C0F0C0
C3C0F0C0
C3C3C0C0
C3C3C0C0
C3C3C0C0
C3C3C0C0
C3CF0CC0
C3CF0CC0
3FFFFF00
3FFFFF00
30000300
30000300
0C000C00
0C000C00
ENDCHAR
STARTCHAR 2480
ENCODING 9344
SWIDTH 1000 0
DWIDTH 32 0
BBX 26 28 4 -2
BITMAP
0C000C00
0C000C00
30C3F300
30C3F300
3FCF3F00
3FCF3F00
C3FC3CC0
C3FC3CC0
C3CC3CC0
C3CC3CC0
C3C0FCC0
C3C0FCC0
C3C0F0C0
C3C0F0C0
C3C03CC0
C3C03CC0
C3CC3CC0
C3CC3CC0
C3FC3CC0
C3FC3CC0
C3CF3CC0
C3CF3CC0
3FF3F300
3FF3F300
30000300
30000300
0C000C00
0C000C00
ENDCHAR
STARTCHAR 2481
ENCODING 9345
SWIDTH 1000 0
DWIDTH 32 0
BBX 26 28 4 -2
BITMAP
0C000C00
0C000C00
30C03300
30C03300
3FC0F300
3FC0F300
C3C3F0C0
C3C3F0C0
C3CFF0C0
C3CFF0C0
C3CCF0C0
C3CCF0C0
C3FCF0C0
C3FCF0C0
C3FCF0C0
C3FCF0C0
C3FFFCC0
C3FFFCC0
C3C0F0C0
C3C0F0C0
C3C0F0C0
C3C0F0C0
3FF3FF00
3FF3FF00
30000300
30000300
0C000C00
0C000C00
ENDCHAR
STARTCHAR 2482
ENCODING 9346
SWIDTH 1000 0
DWIDTH 32 0
BBX 26 28 4 -2
BITMAP
0C000C00
0C000C00
30C00300
30C00300
3FCFFF00
3FCFFF00
C3CF00C0
C3CF00C0
C3CFC0C0
C3CFC0C0
C3CCFCC0
C3CCFCC0
C3C03FC0
C3C03FC0
C3C30FC0
C3C30FC0
C3CF0FC0
C3CF0FC0
C3CF0FC0
C3CF0FC0
C3CFFCC0
C3CFFCC0
3FF3FF00
3FF3FF00
30000300
30000300
0C000C00
0C000C00
ENDCHAR
STARTCHAR 2483
ENCODING 9347
SWIDTH 1000 0
DWIDTH 32 0
BBX 26 28 4 -2
BITMAP
0C000C00
0C000C00
30C3F300
30C3F300
3FCFFF00
3FCFFF00
C3CF0CC0
C3CF0CC0
C3CF00C0
C3CF00C0
C3CFF0C0
C3CFF0C0
C3CFFCC0
C3CFFCC0
C3CF3CC0
C3CF3CC0
C3CF3CC0
C3CF3CC0
C3CF3CC0
C3CF3CC0
C3CFFCC0
C3CFFCC0
3FF3F300
3FF3F300
30000300
30000300
0C000C00
0C000C00
ENDCHAR
STARTCHAR 2484
ENCODING 9348
SWIDTH 1000 0
DWIDTH 32 0
BBX 26 28 4 -2
BITMAP
0C000C00
0C000C00
30C00300
30C00300
3FCFFF00
3FCFFF00
C3C03CC0
C3C03CC0
C3C03CC0
C3C03CC0
C3C03CC0
C3C03CC0
C3C0F0C0
C3C0F0C0
C3C0F0C0
C3C0F0C0
C3C0F0C0
C3C0F0C0
C3C3C0C0
C3C3C0C0
C3C3C0C0
C3C3C0C0
3FF3C300
3FF3C300
30000300
30000300
0C000C00
0C000C00
ENDCHAR
STARTCHAR 2485
ENCODING 9349
SWIDTH 1000 0
DWIDTH 32 0
BBX 26 28 4 -2
BITMAP
0C000C00
0C000C00
30C3F300
30C3F300
3FCF3F00
3FCF3F00
C3FF3CC0
C3FF3CC0
C3CF3CC0
C3CF3CC0
C3CFFCC0
C3CFFCC0
C3C3F0C0
C3C3F0C0
C3CF3CC0
C3CF3CC0
C3CF3CC0
C3CF3CC0
C3FF3CC0
C3FF3CC0
C3CF3CC0
C3CF3CC0
3FF3F300
3FF3F300
30000300
30000300
0C000C00
0C000C00
ENDCHAR
STARTCHAR 2486
ENCODING 9350
SWIDTH 1000 0
DWIDTH 32 0
BBX 26 28 4 -2
BITMAP
0C000C00
0C000C00
30C3F300
30C3F300
3FCF3F00
3FCF3F00
C3FF3CC0
C3FF3CC0
C3CF3CC0
C3CF3CC0
C3CF3CC0
C3CF3CC0
C3C3FCC0
C3C3FCC0
C3C03CC0
C3C03CC0
C3C33CC0
C3C33CC0
C3FF3CC0
C3FF3CC0
C3CF3CC0
C3CF3CC0
3FF3F300
3FF3F300
30000300
30000300
0C000C00
0C000C00
ENDCHAR
STARTCHAR 2487
ENCODING 9351
SWIDTH 1000 0
DWIDTH 32 0
BBX 26 28 4 -2
BITMAP
0C000C00
0C000C00
3FC3F300
3FC3F300
3CFF3F00
3CFF3F00
C0FF3CC0
C0FF3CC0
C0FF3CC0
C0FF3CC0
C0FF3CC0
C0FF3CC0
C3CF3CC0
C3CF3CC0
C3CF3CC0
C3CF3CC0
CF0F3CC0
CF0F3CC0
CF0F3CC0
CF0F3CC0
FC3F3CC0
FC3F3CC0
3FF3F300
3FF3F300
30000300
30000300
0C000C00
0C000C00
ENDCHAR
STARTCHAR 2488
ENCODING 9352
SWIDTH 1000 0
DWIDTH 32 0
BBX 14 28 10 -2
BITMAP
0C00
0C00
FC00
FC00
3C00
3C00
3C00
3C00
3C00
3C00
3C00
3C00
3C00
3C00
3C00
3C00
3C00
3C00
3C00
3C00
3C00
3C00
3C00
3C00
3C3C
3C3C
FF3C
FF3C
ENDCHAR
STARTCHAR 2489
ENCODING 9353
SWIDTH 1000 0
DWIDTH 32 0
BBX 20 28 6 -2
BITMAP
0FC000
0FC000
3CF000
3CF000
F03C00
F03C00
303C00
303C00
003C00
003C00
003000
003000
00F000
00F000
03C000
03C000
030000
030000
0F0000
0F0000
0C0000
0C0000
3C0C00
3C0C00
303CF0
303CF0
FFFCF0
FFFCF0
ENDCHAR
STARTCHAR 248A
ENCODING 9354
SWIDTH 1000 0
DWIDTH 32 0
BBX 20 30 6 -4
BITMAP
0FC000
0FC000
3CF000
3CF000
F03C00
F03C00
303C00
303C00
003C00
003C00
003000
003000
00F000
00F000
0FC000
0FC000
00F000
00F000
003000
003000
303C00
303C00
F03C00
F03C00
303CF0
303CF0
3CF0F0
3CF0F0
0FC000
0FC000
ENDCHAR
STARTCHAR 248B
ENCODING 9355
SWIDTH 1000 0
DWIDTH 32 0
BBX 20 28 4 -2
BITMAP
003000
003000
00F000
00F000
03F000
03F000
0CF000
0CF000
0CF000
0CF000
30F000
30F000
30F000
30F000
30F000
30F000
FFFFC0
FFFFC0
00F000
00F000
00F000
00F000
00F000
00F000
00F0F0
00F0F0
03FCF0
03FCF0
ENDCHAR
STARTCHAR 248C
ENCODING 9356
SWIDTH 1000 0
DWIDTH 32 0
BBX 20 28 8 -2
BITMAP
FFFC00
FFFC00
C03C00
C03C00
C00C00
C00C00
C00000
C00000
C00000
C00000
CFC000
CFC000
F0F000
F0F000
C03000
C03000
003C00
003C00
003C00
003C00
C03C00
C03C00
C03C00
C03C00
30F0F0
30F0F0
0FC0F0
0FC0F0
ENDCHAR
STARTCHAR 248D
ENCODING 9357
SWIDTH 1000 0
DWIDTH 32 0
BBX 22 28 6 -2
BITMAP
0FFC00
0FFC00
303F00
303F00
F00C00
F00C00
F00000
F00000
F00000
F00000
F3F000
F3F000
FC3C00
FC3C00
F00C00
F00C00
F00F00
F00F00
F00F00
F00F00
F00F00
F00F00
F00F00
F00F00
3C3C3C
3C3C3C
0FF03C
0FF03C
ENDCHAR
STARTCHAR 248E
ENCODING 9358
SWIDTH 1000 0
DWIDTH 32 0
BBX 18 28 6 -2
BITMAP
FFFF00
FFFF00
C03C00
C03C00
003C00
003C00
003C00
003C00
003C00
003C00
003C00
003C00
00F000
00F000
03F000
03F000
03C000
03C000
03C000
03C000
0F0000
0F0000
0F0000
0F0000
0F03C0
0F03C0
0303C0
0303C0
ENDCHAR
STARTCHAR 248F
ENCODING 9359
SWIDTH 1000 0
DWIDTH 32 0
BBX 20 28 6 -2
BITMAP
0FC000
0FC000
3CF000
3CF000
F03C00
F03C00
F03C00
F03C00
F03C00
F03C00
303000
303000
0CF000
0CF000
0FC000
0FC000
3CF000
3CF000
F03C00
F03C00
F03C00
F03C00
F03C00
F03C00
3CF0F0
3CF0F0
0FC0F0
0FC0F0
ENDCHAR
STARTCHAR 2490
ENCODING 9360
SWIDTH 1000 0
DWIDTH 32 0
BBX 20 28 6 -2
BITMAP
0FC000
0FC000
3CF000
3CF000
F03C00
F03C00
F03C00
F03C00
F03C00
F03C00
F03C00
F03C00
3CFC00
3CFC00
0F3C00
0F3C00
003C00
003C00
003C00
003C00
C03C00
C03C00
F03C00
F03C00
3CF0F0
3CF0F0
0FC0F0
0FC0F0
ENDCHAR
STARTCHAR 2491
ENCODING 9361
SWIDTH 1000 0
DWIDTH 32 0
BBX 26 28 4 -2
BITMAP
0C0FC000
0C0FC000
FC3CF000
FC3CF000
3CF03C00
3CF03C00
3CF03C00
3CF03C00
3CF03C00
3CF03C00
3CF03C00
3CF03C00
3CF03C00
3CF03C00
3CF03C00
3CF03C00
3CF03C00
3CF03C00
3CF03C00
3CF03C00
3CF03C00
3CF03C00
3CF03C00
3CF03C00
3C3CF3C0
3C3CF3C0
FF0FC3C0
FF0FC3C0
ENDCHAR
STARTCHAR 2492
ENCODING 9362
SWIDTH 1000 0
DWIDTH 32 0
BBX 24 28 6 -2
BITMAP
0C0300
0C0300
FC3F00
FC3F00
3C0F00
3C0F00
3C0F00
3C0F00
3C0F00
3C0F00
3C0F00
3C0F00
3C0F00
3C0F00
3C0F00
3C0F00
3C0F00
3C0F00
3C0F00
3C0F00
3C0F00
3C0F00
3C0F00
3C0F00
3C0F0F
3C0F0F
FF3FCF
FF3FCF
ENDCHAR
STARTCHAR 2493
ENCODING 9363
SWIDTH 1000 0
DWIDTH 32 0
BBX 28 28 4 -2
BITMAP
0C0FC000
0C0FC000
FC3CF000
FC3CF000
3CF03C00
3CF03C00
3CF03C00
3CF03C00
3C303C00
3C303C00
3C003000
3C003000
3C00F000
3C00F000
3C00C000
3C00C000
3C03C000
3C03C000
3C030000
3C030000
3C0F0000
3C0F0000
3C0C0C00
3C0C0C00
3C3C3CF0
3C3C3CF0
FF3FFCF0
FF3FFCF0
ENDCHAR
STARTCHAR 2494
ENCODING 9364
SWIDTH 1000 0
DWIDTH 32 0
BBX 28 28 4 -2
BITMAP
0C0FC000
0C0FC000
FC3CF000
FC3CF000
3CF03C00
3CF03C00
3CF03C00
3CF03C00
3C303C00
3C303C00
3C003000
3C003000
3C00F000
3C00F000
3C0FC000
3C0FC000
3C03F000
3C03F000
3C303C00
3C303C00
3CF03C00
3CF03C00
3CF03C00
3CF03C00
3C3CF0F0
3C3CF0F0
FF0FC0F0
FF0FC0F0
ENDCHAR
STARTCHAR 2495
ENCODING 9365
SWIDTH 1000 0
DWIDTH 32 0
BBX 28 28 4 -2
BITMAP
0C00C000
0C00C000
FC03C000
FC03C000
3C0FC000
3C0FC000
3C0FC000
3C0FC000
3C33C000
3C33C000
3C33C000
3C33C000
3C33C000
3C33C000
3CC3C000
3CC3C000
3CC3C000
3CC3C000
3CC3C000
3CC3C000
3FFFFC00
3FFFFC00
3C03C000
3C03C000
3C03C0F0
3C03C0F0
FF0FF0F0
FF0FF0F0
ENDCHAR
STARTCHAR 2496
ENCODING 9366
SWIDTH 1000 0
DWIDTH 32 0
BBX 28 28 4 -2
BITMAP
0CFFFC00
0CFFFC00
FCC00C00
FCC00C00
3CC00000
3CC00000
3CC00000
3CC00000
3CC00000
3CC00000
3CCFC000
3CCFC000
3CF0F000
3CF0F000
3CC03C00
3CC03C00
3C003C00
3C003C00
3C003C00
3C003C00
3CC03C00
3CC03C00
3CF03C00
3CF03C00
3C3CF0F0
3C3CF0F0
FF0FC0F0
FF0FC0F0
ENDCHAR
STARTCHAR 2497
ENCODING 9367
SWIDTH 1000 0
DWIDTH 32 0
BBX 28 28 4 -2
BITMAP
0C0FF000
0C0FF000
FC3CFC00
FC3CFC00
3CF03000
3CF03000
3CC00000
3CC00000
3CC00000
3CC00000
3CCFC000
3CCFC000
3CFCF000
3CFCF000
3CF03C00
3CF03C00
3CF03C00
3CF03C00
3CF03C00
3CF03C00
3CF03C00
3CF03C00
3CF03C00
3CF03C00
3C3CF0F0
3C3CF0F0
FF0FC0F0
FF0FC0F0
ENDCHAR
STARTCHAR 2498
ENCODING 9368
SWIDTH 1000 0
DWIDTH 32 0
BBX 22 28 4 -2
BITMAP
0CFFFC
0CFFFC
FCC03C
FCC03C
3C0030
3C0030
3C00F0
3C00F0
3C00C0
3C00C0
3C03C0
3C03C0
3C0300
3C0300
3C0F00
3C0F00
3C0F00
3C0F00
3C0C00
3C0C00
3C3C00
3C3C00
3C3C00
3C3C00
3C3C3C
3C3C3C
FF303C
FF303C
ENDCHAR
STARTCHAR 2499
ENCODING 9369
SWIDTH 1000 0
DWIDTH 32 0
BBX 28 28 4 -2
BITMAP
0C0FC000
0C0FC000
FC3CF000
FC3CF000
3CF03C00
3CF03C00
3CF03C00
3CF03C00
3CF03C00
3CF03C00
3C303000
3C303000
3C0CF000
3C0CF000
3C0FC000
3C0FC000
3C3CF000
3C3CF000
3CF03C00
3CF03C00
3CF03C00
3CF03C00
3CF03C00
3CF03C00
3C3CF0F0
3C3CF0F0
FF0FC0F0
FF0FC0F0
ENDCHAR
STARTCHAR 249A
ENCODING 9370
SWIDTH 1000 0
DWIDTH 32 0
BBX 28 28 4 -2
BITMAP
0C0FC000
0C0FC000
FC3CF000
FC3CF000
3CF03C00
3CF03C00
3CF03C00
3CF03C00
3CF03C00
3CF03C00
3CF03C00
3CF03C00
3C3CFC00
3C3CFC00
3C0F3C00
3C0F3C00
3C003C00
3C003C00
3C303C00
3C303C00
3CF03C00
3CF03C00
3CF03C00
3CF03C00
3C3CF0F0
3C3CF0F0
FF0FC0F0
FF0FC0F0
ENDCHAR
STARTCHAR 249B
ENCODING 9371
SWIDTH 1000 0
DWIDTH 32 0
BBX 30 28 2 -2
BITMAP
0FC0FC00
0FC0FC00
3CF3CF00
3CF3CF00
30F3CF00
30F3CF00
F0F3CF00
F0F3CF00
30F3CF00
30F3CF00
00F3CF00
00F3CF00
00F3CF00
00F3CF00
00C3CF00
00C3CF00
03C3CF00
03C3CF00
03C3CF00
03C3CF00
0F03CF00
0F03CF00
0F03CF00
0F03CF00
3C33CF3C
3C33CF3C
3FF0FC3C
3FF0FC3C
ENDCHAR
STARTCHAR 2500
ENCODING 9472
SWIDTH 1000 0
DWIDTH 32 0
BBX 32 2 0 12
BITMAP
FFFFFFFF
FFFFFFFF
ENDCHAR
STARTCHAR 2501
ENCODING 9473
SWIDTH 1000 0
DWIDTH 32 0
BBX 32 4 0 10
BITMAP
FFFFFFFF
FFFFFFFF
FFFFFFFF
FFFFFFFF
ENDCHAR
STARTCHAR 2502
ENCODING 9474
SWIDTH 1000 0
DWIDTH 32 0
BBX 2 32 14 -4
BITMAP
C0
C0
C0
C0
C0
C0
C0
C0
C0
C0
C0
C0
C0
C0
C0
C0
C0
C0
C0
C0
C0
C0
C0
C0
C0
C0
C0
C0
C0
C0
C0
C0
ENDCHAR
STARTCHAR 2503
ENCODING 9475
SWIDTH 1000 0
DWIDTH 32 0
BBX 4 32 14 -4
BITMAP
F0
F0
F0
F0
F0
F0
F0
F0
F0
F0
F0
F0
F0
F0
F0
F0
F0
F0
F0
F0
F0
F0
F0
F0
F0
F0
F0
F0
F0
F0
F0
F0
ENDCHAR
STARTCHAR 2504
ENCODING 9476
SWIDTH 1000 0
DWIDTH 32 0
BBX 26 2 2 12
BITMAP
FC3F0FC0
FC3F0FC0
ENDCHAR
STARTCHAR 2505
ENCODING 9477
SWIDTH 1000 0
DWIDTH 32 0
BBX 26 4 2 10
BITMAP
FC3F0FC0
FC3F0FC0
FC3F0FC0
FC3F0FC0
ENDCHAR
STARTCHAR 2506
ENCODING 9478
SWIDTH 1000 0
DWIDTH 32 0
BBX 2 26 14 0
BITMAP
C0
C0
C0
C0
C0
C0
00
00
00
00
C0
C0
C0
C0
C0
C0
00
00
00
00
C0
C0
C0
C0
C0
C0
ENDCHAR
STARTCHAR 2507
ENCODING 9479
SWIDTH 1000 0
DWIDTH 32 0
BBX 4 26 14 0
BITMAP
F0
F0
F0
F0
F0
F0
00
00
00
00
F0
F0
F0
F0
F0
F0
00
00
00
00
F0
F0
F0
F0
F0
F0
ENDCHAR
STARTCHAR 2508
ENCODING 9480
SWIDTH 1000 0
DWIDTH 32 0
BBX 30 2 0 12
BITMAP
FCFCFCFC
FCFCFCFC
ENDCHAR
STARTCHAR 2509
ENCODING 9481
SWIDTH 1000 0
DWIDTH 32 0
BBX 30 4 0 10
BITMAP
FCFCFCFC
FCFCFCFC
FCFCFCFC
FCFCFCFC
ENDCHAR
STARTCHAR 250A
ENCODING 9482
SWIDTH 1000 0
DWIDTH 32 0
BBX 2 30 14 -2
BITMAP
C0
C0
C0
C0
C0
C0
00
00
C0
C0
C0
C0
C0
C0
00
00
C0
C0
C0
C0
C0
C0
00
00
C0
C0
C0
C0
C0
C0
ENDCHAR
STARTCHAR 250B
ENCODING 9483
SWIDTH 1000 0
DWIDTH 32 0
BBX 4 30 14 -2
BITMAP
F0
F0
F0
F0
F0
F0
00
00
F0
F0
F0
F0
F0
F0
00
00
F0
F0
F0
F0
F0
F0
00
00
F0
F0
F0
F0
F0
F0
ENDCHAR
STARTCHAR 250C
ENCODING 9484
SWIDTH 1000 0
DWIDTH 32 0
BBX 18 18 14 -4
BITMAP
FFFFC0
FFFFC0
C00000
C00000
C00000
C00000
C00000
C00000
C00000
C00000
C00000
C00000
C00000
C00000
C00000
C00000
C00000
C00000
ENDCHAR
STARTCHAR 250D
ENCODING 9485
SWIDTH 1000 0
DWIDTH 32 0
BBX 18 18 14 -4
BITMAP
FFFFC0
FFFFC0
FFFFC0
FFFFC0
C00000
C00000
C00000
C00000
C00000
C00000
C00000
C00000
C00000
C00000
C00000
C00000
C00000
C00000
ENDCHAR
STARTCHAR 250E
ENCODING 9486
SWIDTH 1000 0
DWIDTH 32 0
BBX 18 18 14 -4
BITMAP
FFFFC0
FFFFC0
F00000
F00000
F00000
F00000
F00000
F00000
F00000
F00000
F00000
F00000
F00000
F00000
F00000
F00000
F00000
F00000
ENDCHAR
STARTCHAR 250F
ENCODING 9487
SWIDTH 1000 0
DWIDTH 32 0
BBX 18 18 14 -4
BITMAP
FFFFC0
FFFFC0
FFFFC0
FFFFC0
F00000
F00000
F00000
F00000
F00000
F00000
F00000
F00000
F00000
F00000
F00000
F00000
F00000
F00000
ENDCHAR
STARTCHAR 2510
ENCODING 9488
SWIDTH 1000 0
DWIDTH 32 0
BBX 16 18 0 -4
BITMAP
FFFF
FFFF
0003
0003
0003
0003
0003
0003
0003
0003
0003
0003
0003
0003
0003
0003
0003
0003
ENDCHAR
STARTCHAR 2511
ENCODING 9489
SWIDTH 1000 0
DWIDTH 32 0
BBX 16 18 0 -4
BITMAP
FFFF
FFFF
FFFF
FFFF
0003
0003
0003
0003
0003
0003
0003
0003
0003
0003
0003
0003
0003
0003
ENDCHAR
STARTCHAR 2512
ENCODING 9490
SWIDTH 1000 0
DWIDTH 32 0
BBX 18 18 0 -4
BITMAP
FFFFC0
FFFFC0
0003C0
0003C0
0003C0
0003C0
0003C0
0003C0
0003C0
0003C0
0003C0
0003C0
0003C0
0003C0
0003C0
0003C0
0003C0
0003C0
ENDCHAR
STARTCHAR 2513
ENCODING 9491
SWIDTH 1000 0
DWIDTH 32 0
BBX 18 18 0 -4
BITMAP
FFFFC0
FFFFC0
FFFFC0
FFFFC0
0003C0
0003C0
0003C0
0003C0
0003C0
0003C0
0003C0
0003C0
0003C0
0003C0
0003C0
0003C0
0003C0
0003C0
ENDCHAR
STARTCHAR 2514
ENCODING 9492
SWIDTH 1000 0
DWIDTH 32 0
BBX 18 16 14 12
BITMAP
C00000
C00000
C00000
C00000
C00000
C00000
C00000
C00000
C00000
C00000
C00000
C00000
C00000
C00000
FFFFC0
FFFFC0
ENDCHAR
STARTCHAR 2515
ENCODING 9493
SWIDTH 1000 0
DWIDTH 32 0
BBX 18 18 14 10
BITMAP
C00000
C00000
C00000
C00000
C00000
C00000
C00000
C00000
C00000
C00000
C00000
C00000
C00000
C00000
FFFFC0
FFFFC0
FFFFC0
FFFFC0
ENDCHAR
STARTCHAR 2516
ENCODING 9494
SWIDTH 1000 0
DWIDTH 32 0
BBX 20 16 12 12
BITMAP
F00000
F00000
F00000
F00000
F00000
F00000
F00000
F00000
F00000
F00000
F00000
F00000
F00000
F00000
FFFFF0
FFFFF0
ENDCHAR
STARTCHAR 2517
ENCODING 9495
SWIDTH 1000 0
DWIDTH 32 0
BBX 18 18 14 10
BITMAP
F00000
F00000
F00000
F00000
F00000
F00000
F00000
F00000
F00000
F00000
F00000
F00000
F00000
F00000
FFFFC0
FFFFC0
FFFFC0
FFFFC0
ENDCHAR
STARTCHAR 2518
ENCODING 9496
SWIDTH 1000 0
DWIDTH 32 0
BBX 16 16 0 12
BITMAP
0003
0003
0003
0003
0003
0003
0003
0003
0003
0003
0003
0003
0003
0003
FFFF
FFFF
ENDCHAR
STARTCHAR 2519
ENCODING 9497
SWIDTH 1000 0
DWIDTH 32 0
BBX 16 18 0 10
BITMAP
0003
0003
0003
0003
0003
0003
0003
0003
0003
0003
0003
0003
0003
0003
FFFF
FFFF
FFFF
FFFF
ENDCHAR
STARTCHAR 251A
ENCODING 9498
SWIDTH 1000 0
DWIDTH 32 0
BBX 18 16 0 12
BITMAP
0003C0
0003C0
0003C0
0003C0
0003C0
0003C0
0003C0
0003C0
0003C0
0003C0
0003C0
0003C0
0003C0
0003C0
FFFFC0
FFFFC0
ENDCHAR
STARTCHAR 251B
ENCODING 9499
SWIDTH 1000 0
DWIDTH 32 0
BBX 18 18 0 10
BITMAP
0003C0
0003C0
0003C0
0003C0
0003C0
0003C0
0003C0
0003C0
0003C0
0003C0
0003C0
0003C0
0003C0
0003C0
FFFFC0
FFFFC0
FFFFC0
FFFFC0
ENDCHAR
STARTCHAR 251C
ENCODING 9500
SWIDTH 1000 0
DWIDTH 32 0
BBX 18 32 14 -4
BITMAP
C00000
C00000
C00000
C00000
C00000
C00000
C00000
C00000
C00000
C00000
C00000
C00000
C00000
C00000
FFFFC0
FFFFC0
C00000
C00000
C00000
C00000
C00000
C00000
C00000
C00000
C00000
C00000
C00000
C00000
C00000
C00000
C00000
C00000
ENDCHAR
STARTCHAR 251D
ENCODING 9501
SWIDTH 1000 0
DWIDTH 32 0
BBX 18 32 14 -4
BITMAP
C00000
C00000
C00000
C00000
C00000
C00000
C00000
C00000
C00000
C00000
C00000
C00000
C00000
C00000
FFFFC0
FFFFC0
FFFFC0
FFFFC0
C00000
C00000
C00000
C00000
C00000
C00000
C00000
C00000
C00000
C00000
C00000
C00000
C00000
C00000
ENDCHAR
STARTCHAR 251E
ENCODING 9502
SWIDTH 1000 0
DWIDTH 32 0
BBX 18 32 14 -4
BITMAP
F00000
F00000
F00000
F00000
F00000
F00000
F00000
F00000
F00000
F00000
F00000
F00000
F00000
F00000
FFFFC0
FFFFC0
C00000
C00000
C00000
C00000
C00000
C00000
C00000
C00000
C00000
C00000
C00000
C00000
C00000
C00000
C00000
C00000
ENDCHAR
STARTCHAR 251F
ENCODING 9503
SWIDTH 1000 0
DWIDTH 32 0
BBX 18 32 14 -4
BITMAP
C00000
C00000
C00000
C00000
C00000
C00000
C00000
C00000
C00000
C00000
C00000
C00000
C00000
C00000
FFFFC0
FFFFC0
F00000
F00000
F00000
F00000
F00000
F00000
F00000
F00000
F00000
F00000
F00000
F00000
F00000
F00000
F00000
F00000
ENDCHAR
STARTCHAR 2520
ENCODING 9504
SWIDTH 1000 0
DWIDTH 32 0
BBX 18 32 14 -4
BITMAP
F00000
F00000
F00000
F00000
F00000
F00000
F00000
F00000
F00000
F00000
F00000
F00000
F00000
F00000
FFFFC0
FFFFC0
F00000
F00000
F00000
F00000
F00000
F00000
F00000
F00000
F00000
F00000
F00000
F00000
F00000
F00000
F00000
F00000
ENDCHAR
STARTCHAR 2521
ENCODING 9505
SWIDTH 1000 0
DWIDTH 32 0
BBX 18 32 14 -4
BITMAP
F00000
F00000
F00000
F00000
F00000
F00000
F00000
F00000
F00000
F00000
F00000
F00000
F00000
F00000
FFFFC0
FFFFC0
FFFFC0
FFFFC0
C00000
C00000
C00000
C00000
C00000
C00000
C00000
C00000
C00000
C00000
C00000
C00000
C00000
C00000
ENDCHAR
STARTCHAR 2522
ENCODING 9506
SWIDTH 1000 0
DWIDTH 32 0
BBX 18 32 14 -4
BITMAP
C00000
C00000
C00000
C00000
C00000
C00000
C00000
C00000
C00000
C00000
C00000
C00000
C00000
C00000
FFFFC0
FFFFC0
FFFFC0
FFFFC0
F00000
F00000
F00000
F00000
F00000
F00000
F00000
F00000
F00000
F00000
F00000
F00000
F00000
F00000
ENDCHAR
STARTCHAR 2523
ENCODING 9507
SWIDTH 1000 0
DWIDTH 32 0
BBX 18 32 14 -4
BITMAP
F00000
F00000
F00000
F00000
F00000
F00000
F00000
F00000
F00000
F00000
F00000
F00000
F00000
F00000
FFFFC0
FFFFC0
FFFFC0
FFFFC0
F00000
F00000
F00000
F00000
F00000
F00000
F00000
F00000
F00000
F00000
F00000
F00000
F00000
F00000
ENDCHAR
STARTCHAR 2524
ENCODING 9508
SWIDTH 1000 0
DWIDTH 32 0
BBX 16 32 0 -4
BITMAP
0003
0003
0003
0003
0003
0003
0003
0003
0003
0003
0003
0003
0003
0003
FFFF
FFFF
0003
0003
0003
0003
0003
0003
0003
0003
0003
0003
0003
0003
0003
0003
0003
0003
ENDCHAR
STARTCHAR 2525
ENCODING 9509
SWIDTH 1000 0
DWIDTH 32 0
BBX 16 32 0 -4
BITMAP
0003
0003
0003
0003
0003
0003
0003
0003
0003
0003
0003
0003
0003
0003
FFFF
FFFF
FFFF
FFFF
0003
0003
0003
0003
0003
0003
0003
0003
0003
0003
0003
0003
0003
0003
ENDCHAR
STARTCHAR 2526
ENCODING 9510
SWIDTH 1000 0
DWIDTH 32 0
BBX 18 32 0 -4
BITMAP
0003C0
0003C0
0003C0
0003C0
0003C0
0003C0
0003C0
0003C0
0003C0
0003C0
0003C0
0003C0
0003C0
0003C0
FFFFC0
FFFFC0
000300
000300
000300
000300
000300
000300
000300
000300
000300
000300
000300
000300
000300
000300
000300
000300
ENDCHAR
STARTCHAR 2527
ENCODING 9511
SWIDTH 1000 0
DWIDTH 32 0
BBX 18 32 0 -4
BITMAP
000300
000300
000300
000300
000300
000300
000300
000300
000300
000300
000300
000300
000300
000300
FFFFC0
FFFFC0
0003C0
0003C0
0003C0
0003C0
0003C0
0003C0
0003C0
0003C0
0003C0
0003C0
0003C0
0003C0
0003C0
0003C0
0003C0
0003C0
ENDCHAR
STARTCHAR 2528
ENCODING 9512
SWIDTH 1000 0
DWIDTH 32 0
BBX 18 32 0 -4
BITMAP
0003C0
0003C0
0003C0
0003C0
0003C0
0003C0
0003C0
0003C0
0003C0
0003C0
0003C0
0003C0
0003C0
0003C0
FFFFC0
FFFFC0
0003C0
0003C0
0003C0
0003C0
0003C0
0003C0
0003C0
0003C0
0003C0
0003C0
0003C0
0003C0
0003C0
0003C0
0003C0
0003C0
ENDCHAR
STARTCHAR 2529
ENCODING 9513
SWIDTH 1000 0
DWIDTH 32 0
BBX 18 32 0 -4
BITMAP
0003C0
0003C0
0003C0
0003C0
0003C0
0003C0
0003C0
0003C0
0003C0
0003C0
0003C0
0003C0
0003C0
0003C0
FFFFC0
FFFFC0
FFFFC0
FFFFC0
000300
000300
000300
000300
000300
000300
000300
000300
000300
000300
000300
000300
000300
000300
ENDCHAR
STARTCHAR 252A
ENCODING 9514
SWIDTH 1000 0
DWIDTH 32 0
BBX 18 32 0 -4
BITMAP
000300
000300
000300
000300
000300
000300
000300
000300
000300
000300
000300
000300
000300
000300
FFFFC0
FFFFC0
FFFFC0
FFFFC0
0003C0
0003C0
0003C0
0003C0
0003C0
0003C0
0003C0
0003C0
0003C0
0003C0
0003C0
0003C0
0003C0
0003C0
ENDCHAR
STARTCHAR 252B
ENCODING 9515
SWIDTH 1000 0
DWIDTH 32 0
BBX 18 32 0 -4
BITMAP
0003C0
0003C0
0003C0
0003C0
0003C0
0003C0
0003C0
0003C0
0003C0
0003C0
0003C0
0003C0
0003C0
0003C0
FFFFC0
FFFFC0
FFFFC0
FFFFC0
0003C0
0003C0
0003C0
0003C0
0003C0
0003C0
0003C0
0003C0
0003C0
0003C0
0003C0
0003C0
0003C0
0003C0
ENDCHAR
STARTCHAR 252C
ENCODING 9516
SWIDTH 1000 0
DWIDTH 32 0
BBX 32 18 0 -4
BITMAP
FFFFFFFF
FFFFFFFF
00030000
00030000
00030000
00030000
00030000
00030000
00030000
00030000
00030000
00030000
00030000
00030000
00030000
00030000
00030000
00030000
ENDCHAR
STARTCHAR 252D
ENCODING 9517
SWIDTH 1000 0
DWIDTH 32 0
BBX 32 18 0 -4
BITMAP
FFFFFFFF
FFFFFFFF
FFFF0000
FFFF0000
00030000
00030000
00030000
00030000
00030000
00030000
00030000
00030000
00030000
00030000
00030000
00030000
00030000
00030000
ENDCHAR
STARTCHAR 252E
ENCODING 9518
SWIDTH 1000 0
DWIDTH 32 0
BBX 32 18 0 -4
BITMAP
FFFFFFFF
FFFFFFFF
0003FFFF
0003FFFF
00030000
00030000
00030000
00030000
00030000
00030000
00030000
00030000
00030000
00030000
00030000
00030000
00030000
00030000
ENDCHAR
STARTCHAR 252F
ENCODING 9519
SWIDTH 1000 0
DWIDTH 32 0
BBX 32 18 0 -4
BITMAP
FFFFFFFF
FFFFFFFF
FFFFFFFF
FFFFFFFF
00030000
00030000
00030000
00030000
00030000
00030000
00030000
00030000
00030000
00030000
00030000
00030000
00030000
00030000
ENDCHAR
STARTCHAR 2530
ENCODING 9520
SWIDTH 1000 0
DWIDTH 32 0
BBX 32 18 0 -4
BITMAP
FFFFFFFF
FFFFFFFF
000F0000
000F0000
000F0000
000F0000
000F0000
000F0000
000F0000
000F0000
000F0000
000F0000
000F0000
000F0000
000F0000
000F0000
000F0000
000F0000
ENDCHAR
STARTCHAR 2531
ENCODING 9521
SWIDTH 1000 0
DWIDTH 32 0
BBX 32 18 0 -4
BITMAP
FFFFFFFF
FFFFFFFF
FFFF0000
FFFF0000
000F0000
000F0000
000F0000
000F0000
000F0000
000F0000
000F0000
000F0000
000F0000
000F0000
000F0000
000F0000
000F0000
000F0000
ENDCHAR
STARTCHAR 2532
ENCODING 9522
SWIDTH 1000 0
DWIDTH 32 0
BBX 32 18 0 -4
BITMAP
FFFFFFFF
FFFFFFFF
0003FFFF
0003FFFF
0003C000
0003C000
0003C000
0003C000
0003C000
0003C000
0003C000
0003C000
0003C000
0003C000
0003C000
0003C000
0003C000
0003C000
ENDCHAR
STARTCHAR 2533
ENCODING 9523
SWIDTH 1000 0
DWIDTH 32 0
BBX 32 18 0 -4
BITMAP
FFFFFFFF
FFFFFFFF
FFFFFFFF
FFFFFFFF
0003C000
0003C000
0003C000
0003C000
0003C000
0003C000
0003C000
0003C000
0003C000
0003C000
0003C000
0003C000
0003C000
0003C000
ENDCHAR
STARTCHAR 2534
ENCODING 9524
SWIDTH 1000 0
DWIDTH 32 0
BBX 32 16 0 12
BITMAP
00030000
00030000
00030000
00030000
00030000
00030000
00030000
00030000
00030000
00030000
00030000
00030000
00030000
00030000
FFFFFFFF
FFFFFFFF
ENDCHAR
STARTCHAR 2535
ENCODING 9525
SWIDTH 1000 0
DWIDTH 32 0
BBX 32 18 0 10
BITMAP
00030000
00030000
00030000
00030000
00030000
00030000
00030000
00030000
00030000
00030000
00030000
00030000
00030000
00030000
FFFFFFFF
FFFFFFFF
FFFF0000
FFFF0000
ENDCHAR
STARTCHAR 2536
ENCODING 9526
SWIDTH 1000 0
DWIDTH 32 0
BBX 32 18 0 10
BITMAP
00030000
00030000
00030000
00030000
00030000
00030000
00030000
00030000
00030000
00030000
00030000
00030000
00030000
00030000
FFFFFFFF
FFFFFFFF
0003FFFF
0003FFFF
ENDCHAR
STARTCHAR 2537
ENCODING 9527
SWIDTH 1000 0
DWIDTH 32 0
BBX 32 18 0 10
BITMAP
00030000
00030000
00030000
00030000
00030000
00030000
00030000
00030000
00030000
00030000
00030000
00030000
00030000
00030000
FFFFFFFF
FFFFFFFF
FFFFFFFF
FFFFFFFF
ENDCHAR
STARTCHAR 2538
ENCODING 9528
SWIDTH 1000 0
DWIDTH 32 0
BBX 32 16 0 12
BITMAP
0003C000
0003C000
0003C000
0003C000
0003C000
0003C000
0003C000
0003C000
0003C000
0003C000
0003C000
0003C000
0003C000
0003C000
FFFFFFFF
FFFFFFFF
ENDCHAR
STARTCHAR 2539
ENCODING 9529
SWIDTH 1000 0
DWIDTH 32 0
BBX 32 18 0 10
BITMAP
0003C000
0003C000
0003C000
0003C000
0003C000
0003C000
0003C000
0003C000
0003C000
0003C000
0003C000
0003C000
0003C000
0003C000
FFFFFFFF
FFFFFFFF
FFFFC000
FFFFC000
ENDCHAR
STARTCHAR 253A
ENCODING 9530
SWIDTH 1000 0
DWIDTH 32 0
BBX 32 18 0 10
BITMAP
0003C000
0003C000
0003C000
0003C000
0003C000
0003C000
0003C000
0003C000
0003C000
0003C000
0003C000
0003C000
0003C000
0003C000
FFFFFFFF
FFFFFFFF
0003FFFF
0003FFFF
ENDCHAR
STARTCHAR 253B
ENCODING 9531
SWIDTH 1000 0
DWIDTH 32 0
BBX 32 18 0 10
BITMAP
0003C000
0003C000
0003C000
0003C000
0003C000
0003C000
0003C000
0003C000
0003C000
0003C000
0003C000
0003C000
0003C000
0003C000
FFFFFFFF
FFFFFFFF
FFFFFFFF
FFFFFFFF
ENDCHAR
STARTCHAR 253C
ENCODING 9532
SWIDTH 1000 0
DWIDTH 32 0
BBX 32 32 0 -4
BITMAP
00030000
00030000
00030000
00030000
00030000
00030000
00030000
00030000
00030000
00030000
00030000
00030000
00030000
00030000
FFFFFFFF
FFFFFFFF
00030000
00030000
00030000
00030000
00030000
00030000
00030000
00030000
00030000
00030000
00030000
00030000
00030000
00030000
00030000
00030000
ENDCHAR
STARTCHAR 253D
ENCODING 9533
SWIDTH 1000 0
DWIDTH 32 0
BBX 32 32 0 -4
BITMAP
00030000
00030000
00030000
00030000
00030000
00030000
00030000
00030000
00030000
00030000
00030000
00030000
00030000
00030000
FFFFFFFF
FFFFFFFF
FFFF0000
FFFF0000
00030000
00030000
00030000
00030000
00030000
00030000
00030000
00030000
00030000
00030000
00030000
00030000
00030000
00030000
ENDCHAR
STARTCHAR 253E
ENCODING 9534
SWIDTH 1000 0
DWIDTH 32 0
BBX 32 32 0 -4
BITMAP
00030000
00030000
00030000
00030000
00030000
00030000
00030000
00030000
00030000
00030000
00030000
00030000
00030000
00030000
FFFFFFFF
FFFFFFFF
0003FFFF
0003FFFF
00030000
00030000
00030000
00030000
00030000
00030000
00030000
00030000
00030000
00030000
00030000
00030000
00030000
00030000
ENDCHAR
STARTCHAR 253F
ENCODING 9535
SWIDTH 1000 0
DWIDTH 32 0
BBX 32 32 0 -4
BITMAP
00030000
00030000
00030000
00030000
00030000
00030000
00030000
00030000
00030000
00030000
00030000
00030000
00030000
00030000
FFFFFFFF
FFFFFFFF
FFFFFFFF
FFFFFFFF
00030000
00030000
00030000
00030000
00030000
00030000
00030000
00030000
00030000
00030000
00030000
00030000
00030000
00030000
ENDCHAR
STARTCHAR 2540
ENCODING 9536
SWIDTH 1000 0
DWIDTH 32 0
BBX 32 32 0 -4
BITMAP
0003C000
0003C000
0003C000
0003C000
0003C000
0003C000
0003C000
0003C000
0003C000
0003C000
0003C000
0003C000
0003C000
0003C000
FFFFFFFF
FFFFFFFF
00030000
00030000
00030000
00030000
00030000
00030000
00030000
00030000
00030000
00030000
00030000
00030000
00030000
00030000
00030000
00030000
ENDCHAR
STARTCHAR 2541
ENCODING 9537
SWIDTH 1000 0
DWIDTH 32 0
BBX 32 32 0 -4
BITMAP
00030000
00030000
00030000
00030000
00030000
00030000
00030000
00030000
00030000
00030000
00030000
00030000
00030000
00030000
FFFFFFFF
FFFFFFFF
0003C000
0003C000
0003C000
0003C000
0003C000
0003C000
0003C000
0003C000
0003C000
0003C000
0003C000
0003C000
0003C000
0003C000
0003C000
0003C000
ENDCHAR
STARTCHAR 2542
ENCODING 9538
SWIDTH 1000 0
DWIDTH 32 0
BBX 32 32 0 -4
BITMAP
0003C000
0003C000
0003C000
0003C000
0003C000
0003C000
0003C000
0003C000
0003C000
0003C000
0003C000
0003C000
0003C000
0003C000
FFFFFFFF
FFFFFFFF
0003C000
0003C000
0003C000
0003C000
0003C000
0003C000
0003C000
0003C000
0003C000
0003C000
0003C000
0003C000
0003C000
0003C000
0003C000
0003C000
ENDCHAR
STARTCHAR 2543
ENCODING 9539
SWIDTH 1000 0
DWIDTH 32 0
BBX 32 32 0 -4
BITMAP
0003C000
0003C000
0003C000
0003C000
0003C000
0003C000
0003C000
0003C000
0003C000
0003C000
0003C000
0003C000
0003C000
0003C000
FFFFFFFF
FFFFFFFF
FFFFC000
FFFFC000
00030000
00030000
00030000
00030000
00030000
00030000
00030000
00030000
00030000
00030000
00030000
00030000
00030000
00030000
ENDCHAR
STARTCHAR 2544
ENCODING 9540
SWIDTH 1000 0
DWIDTH 32 0
BBX 32 32 0 -4
BITMAP
0003C000
0003C000
0003C000
0003C000
0003C000
0003C000
0003C000
0003C000
0003C000
0003C000
0003C000
0003C000
0003C000
0003C000
FFFFFFFF
FFFFFFFF
0003FFFF
0003FFFF
00030000
00030000
00030000
00030000
00030000
00030000
00030000
00030000
00030000
00030000
00030000
00030000
00030000
00030000
ENDCHAR
STARTCHAR 2545
ENCODING 9541
SWIDTH 1000 0
DWIDTH 32 0
BBX 32 32 0 -4
BITMAP
00030000
00030000
00030000
00030000
00030000
00030000
00030000
00030000
00030000
00030000
00030000
00030000
00030000
00030000
FFFFFFFF
FFFFFFFF
FFFFC000
FFFFC000
0003C000
0003C000
0003C000
0003C000
0003C000
0003C000
0003C000
0003C000
0003C000
0003C000
0003C000
0003C000
0003C000
0003C000
ENDCHAR
STARTCHAR 2546
ENCODING 9542
SWIDTH 1000 0
DWIDTH 32 0
BBX 32 32 0 -4
BITMAP
00030000
00030000
00030000
00030000
00030000
00030000
00030000
00030000
00030000
00030000
00030000
00030000
00030000
00030000
FFFFFFFF
FFFFFFFF
0003FFFF
0003FFFF
0003C000
0003C000
0003C000
0003C000
0003C000
0003C000
0003C000
0003C000
0003C000
0003C000
0003C000
0003C000
0003C000
0003C000
ENDCHAR
STARTCHAR 2547
ENCODING 9543
SWIDTH 1000 0
DWIDTH 32 0
BBX 32 32 0 -4
BITMAP
0003C000
0003C000
0003C000
0003C000
0003C000
0003C000
0003C000
0003C000
0003C000
0003C000
0003C000
0003C000
0003C000
0003C000
FFFFFFFF
FFFFFFFF
FFFFFFFF
FFFFFFFF
00030000
00030000
00030000
00030000
00030000
00030000
00030000
00030000
00030000
00030000
00030000
00030000
00030000
00030000
ENDCHAR
STARTCHAR 2548
ENCODING 9544
SWIDTH 1000 0
DWIDTH 32 0
BBX 32 32 0 -4
BITMAP
00030000
00030000
00030000
00030000
00030000
00030000
00030000
00030000
00030000
00030000
00030000
00030000
00030000
00030000
FFFFFFFF
FFFFFFFF
FFFFFFFF
FFFFFFFF
0003C000
0003C000
0003C000
0003C000
0003C000
0003C000
0003C000
0003C000
0003C000
0003C000
0003C000
0003C000
0003C000
0003C000
ENDCHAR
STARTCHAR 2549
ENCODING 9545
SWIDTH 1000 0
DWIDTH 32 0
BBX 26 28 2 -2
BITMAP
003C0000
003C0000
003C0000
003C0000
003C0000
003C0000
003C0000
003C0000
003C0000
003C0000
003C0000
003C0000
FFFFFFC0
FFFFFFC0
FFFC0000
FFFC0000
003C0000
003C0000
003C0000
003C0000
003C0000
003C0000
003C0000
003C0000
003C0000
003C0000
003C0000
003C0000
ENDCHAR
STARTCHAR 254A
ENCODING 9546
SWIDTH 1000 0
DWIDTH 32 0
BBX 32 32 0 -4
BITMAP
0003C000
0003C000
0003C000
0003C000
0003C000
0003C000
0003C000
0003C000
0003C000
0003C000
0003C000
0003C000
0003C000
0003C000
FFFFFFFF
FFFFFFFF
0003FFFF
0003FFFF
0003C000
0003C000
0003C000
0003C000
0003C000
0003C000
0003C000
0003C000
0003C000
0003C000
0003C000
0003C000
0003C000
0003C000
ENDCHAR
STARTCHAR 254B
ENCODING 9547
SWIDTH 1000 0
DWIDTH 32 0
BBX 32 32 0 -4
BITMAP
0003C000
0003C000
0003C000
0003C000
0003C000
0003C000
0003C000
0003C000
0003C000
0003C000
0003C000
0003C000
0003C000
0003C000
FFFFFFFF
FFFFFFFF
FFFFFFFF
FFFFFFFF
0003C000
0003C000
0003C000
0003C000
0003C000
0003C000
0003C000
0003C000
0003C000
0003C000
0003C000
0003C000
0003C000
0003C000
ENDCHAR
STARTCHAR 25A0
ENCODING 9632
SWIDTH 1000 0
DWIDTH 32 0
BBX 24 24 6 0
BITMAP
FFFFFF
FFFFFF
FFFFFF
FFFFFF
FFFFFF
FFFFFF
FFFFFF
FFFFFF
FFFFFF
FFFFFF
FFFFFF
FFFFFF
FFFFFF
FFFFFF
FFFFFF
FFFFFF
FFFFFF
FFFFFF
FFFFFF
FFFFFF
FFFFFF
FFFFFF
FFFFFF
FFFFFF
ENDCHAR
STARTCHAR 25A1
ENCODING 9633
SWIDTH 1000 0
DWIDTH 32 0
BBX 24 24 6 0
BITMAP
FFFFFF
FFFFFF
C00003
C00003
C00003
C00003
C00003
C00003
C00003
C00003
C00003
C00003
C00003
C00003
C00003
C00003
C00003
C00003
C00003
C00003
C00003
C00003
FFFFFF
FFFFFF
ENDCHAR
STARTCHAR 25B2
ENCODING 9650
SWIDTH 1000 0
DWIDTH 32 0
BBX 30 26 2 0
BITMAP
00030000
00030000
000FC000
000FC000
000FC000
000FC000
003FF000
003FF000
003FF000
003FF000
00FFFC00
00FFFC00
00FFFC00
00FFFC00
03FFFF00
03FFFF00
03FFFF00
03FFFF00
0FFFFFC0
0FFFFFC0
0FFFFFC0
0FFFFFC0
3FFFFFF0
3FFFFFF0
FFFFFFFC
FFFFFFFC
ENDCHAR
STARTCHAR 25B3
ENCODING 9651
SWIDTH 1000 0
DWIDTH 32 0
BBX 30 26 2 0
BITMAP
00030000
00030000
000FC000
000FC000
000CC000
000CC000
00303000
00303000
00303000
00303000
00C00C00
00C00C00
00C00C00
00C00C00
03000300
03000300
03000300
03000300
0C0000C0
0C0000C0
0C0000C0
0C0000C0
30000030
30000030
FFFFFFFC
FFFFFFFC
ENDCHAR
STARTCHAR 25C6
ENCODING 9670
SWIDTH 1000 0
DWIDTH 32 0
BBX 30 30 2 -2
BITMAP
00030000
00030000
000FC000
000FC000
003FF000
003FF000
00FFFC00
00FFFC00
03FFFF00
03FFFF00
0FFFFFC0
0FFFFFC0
3FFFFFF0
3FFFFFF0
FFFFFFFC
FFFFFFFC
3FFFFFF0
3FFFFFF0
0FFFFFC0
0FFFFFC0
03FFFF00
03FFFF00
00FFFC00
00FFFC00
003FF000
003FF000
000FC000
000FC000
00030000
00030000
ENDCHAR
STARTCHAR 25C7
ENCODING 9671
SWIDTH 1000 0
DWIDTH 32 0
BBX 30 30 2 -2
BITMAP
00030000
00030000
000CC000
000CC000
00303000
00303000
00C00C00
00C00C00
03000300
03000300
0C0000C0
0C0000C0
30000030
30000030
C000000C
C000000C
30000030
30000030
0C0000C0
0C0000C0
03000300
03000300
00C00C00
00C00C00
00303000
00303000
000CC000
000CC000
00030000
00030000
ENDCHAR
STARTCHAR 25CB
ENCODING 9675
SWIDTH 1000 0
DWIDTH 32 0
BBX 30 30 2 -2
BITMAP
003FF000
003FF000
03C00F00
03C00F00
0C0000C0
0C0000C0
30000030
30000030
30000030
30000030
C000000C
C000000C
C000000C
C000000C
C000000C
C000000C
C000000C
C000000C
C000000C
C000000C
30000030
30000030
30000030
30000030
0C0000C0
0C0000C0
03C00F00
03C00F00
003FF000
003FF000
ENDCHAR
STARTCHAR 25CE
ENCODING 9678
SWIDTH 1000 0
DWIDTH 32 0
BBX 30 30 2 -2
BITMAP
003FF000
003FF000
03C00F00
03C00F00
0C0FC0C0
0C0FC0C0
30F03C30
30F03C30
33000330
33000330
C300030C
C300030C
CC0000CC
CC0000CC
CC0000CC
CC0000CC
CC0000CC
CC0000CC
C300030C
C300030C
33000330
33000330
30F03C30
30F03C30
0C0FC0C0
0C0FC0C0
03C00F00
03C00F00
003FF000
003FF000
ENDCHAR
STARTCHAR 25CF
ENCODING 9679
SWIDTH 1000 0
DWIDTH 32 0
BBX 30 30 2 -2
BITMAP
003FF000
003FF000
03FFFF00
03FFFF00
0FFFFFC0
0FFFFFC0
3FFFFFF0
3FFFFFF0
3FFFFFF0
3FFFFFF0
FFFFFFFC
FFFFFFFC
FFFFFFFC
FFFFFFFC
FFFFFFFC
FFFFFFFC
FFFFFFFC
FFFFFFFC
FFFFFFFC
FFFFFFFC
3FFFFFF0
3FFFFFF0
3FFFFFF0
3FFFFFF0
0FFFFFC0
0FFFFFC0
03FFFF00
03FFFF00
003FF000
003FF000
ENDCHAR
STARTCHAR 2605
ENCODING 9733
SWIDTH 1000 0
DWIDTH 32 0
BBX 30 30 2 -2
BITMAP
00030000
00030000
00030000
00030000
000FC000
000FC000
000FC000
000FC000
003FF000
003FF000
FFFFFFFC
FFFFFFFC
3FFFFFF0
3FFFFFF0
0FFFFFC0
0FFFFFC0
03FFFF00
03FFFF00
00FFFC00
00FFFC00
03FFFF00
03FFFF00
03FCFF00
03FCFF00
0FF03FC0
0FF03FC0
0F0003C0
0F0003C0
30000030
30000030
ENDCHAR
STARTCHAR 2606
ENCODING 9734
SWIDTH 1000 0
DWIDTH 32 0
BBX 30 30 2 -2
BITMAP
00030000
00030000
00030000
00030000
000CC000
000CC000
000CC000
000CC000
00303000
00303000
FFC00FFC
FFC00FFC
30000030
30000030
0C0000C0
0C0000C0
03000300
03000300
00C00C00
00C00C00
03030300
03030300
030CC300
030CC300
0CF03CC0
0CF03CC0
0F0003C0
0F0003C0
30000030
30000030
ENDCHAR
STARTCHAR 2640
ENCODING 9792
SWIDTH 1000 0
DWIDTH 32 0
BBX 18 26 8 0
BITMAP
03F000
03F000
0C0C00
0C0C00
0C0C00
0C0C00
0C0C00
0C0C00
03F000
03F000
00C000
00C000
00C000
00C000
FFFFC0
FFFFC0
00C000
00C000
00C000
00C000
00C000
00C000
00C000
00C000
00C000
00C000
ENDCHAR
STARTCHAR 2642
ENCODING 9794
SWIDTH 1000 0
DWIDTH 32 0
BBX 14 26 10 0
BITMAP
0300
0300
0FC0
0FC0
3330
3330
C30C
C30C
0300
0300
0300
0300
0300
0300
0300
0300
0FC0
0FC0
3030
3030
3030
3030
3030
3030
0FC0
0FC0
ENDCHAR
STARTCHAR 3000
ENCODING 12288
SWIDTH 1000 0
DWIDTH 32 0
BBX 0 0 0 0
BITMAP
ENDCHAR
STARTCHAR 3001
ENCODING 12289
SWIDTH 1000 0
DWIDTH 32 0
BBX 12 8 4 0
BITMAP
F000
F000
3FC0
3FC0
0FF0
0FF0
03F0
03F0
ENDCHAR
STARTCHAR 3002
ENCODING 12290
SWIDTH 1000 0
DWIDTH 32 0
BBX 12 10 2 -2
BITMAP
3FC0
3FC0
F0F0
F0F0
F0F0
F0F0
F0F0
F0F0
3FC0
3FC0
ENDCHAR
STARTCHAR 3003
ENCODING 12291
SWIDTH 1000 0
DWIDTH 32 0
BBX 18 22 6 0
BITMAP
00C0C0
00C0C0
00C0C0
00C0C0
03C3C0
03C3C0
03C3C0
03C3C0
0F0F00
0F0F00
0C0C00
0C0C00
0C0C00
0C0C00
303000
303000
303000
303000
C0C000
C0C000
C0C000
C0C000
ENDCHAR
STARTCHAR 3005
ENCODING 12293
SWIDTH 1000 0
DWIDTH 32 0
BBX 22 26 6 0
BITMAP
00C000
00C000
03F000
03F000
03C000
03C000
0F0030
0F0030
3FFFFC
3FFFFC
3C00F0
3C00F0
C003C0
C003C0
0003C0
0003C0
030F00
030F00
00FC00
00FC00
003C00
003C00
003F00
003F00
000C00
000C00
ENDCHAR
STARTCHAR 3008
ENCODING 12296
SWIDTH 1000 0
DWIDTH 32 0
BBX 12 22 8 0
BITMAP
0030
0030
00C0
00C0
0300
0300
0C00
0C00
3000
3000
C000
C000
3000
3000
0C00
0C00
0300
0300
00C0
00C0
0030
0030
ENDCHAR
STARTCHAR 3009
ENCODING 12297
SWIDTH 1000 0
DWIDTH 32 0
BBX 12 22 16 2
BITMAP
C000
C000
3000
3000
0C00
0C00
0300
0300
00C0
00C0
0030
0030
00C0
00C0
0300
0300
0C00
0C00
3000
3000
C000
C000
ENDCHAR
STARTCHAR 300A
ENCODING 12298
SWIDTH 1000 0
DWIDTH 32 0
BBX 12 20 8 2
BITMAP
0C30
0C30
0C30
0C30
30C0
30C0
30C0
30C0
C300
C300
C300
C300
30C0
30C0
30C0
30C0
0C30
0C30
0C30
0C30
ENDCHAR
STARTCHAR 300B
ENCODING 12299
SWIDTH 1000 0
DWIDTH 32 0
BBX 12 20 12 2
BITMAP
C300
C300
C300
C300
30C0
30C0
30C0
30C0
0C30
0C30
0C30
0C30
30C0
30C0
30C0
30C0
C300
C300
C300
C300
ENDCHAR
STARTCHAR 300C
ENCODING 12300
SWIDTH 1000 0
DWIDTH 32 0
BBX 10 24 14 0
BITMAP
FFC0
FFC0
C000
C000
C000
C000
C000
C000
C000
C000
C000
C000
C000
C000
C000
C000
C000
C000
C000
C000
C000
C000
C000
C000
ENDCHAR
STARTCHAR 300D
ENCODING 12301
SWIDTH 1000 0
DWIDTH 32 0
BBX 10 24 8 0
BITMAP
00C0
00C0
00C0
00C0
00C0
00C0
00C0
00C0
00C0
00C0
00C0
00C0
00C0
00C0
00C0
00C0
00C0
00C0
00C0
00C0
00C0
00C0
FFC0
FFC0
ENDCHAR
STARTCHAR 300E
ENCODING 12302
SWIDTH 1000 0
DWIDTH 32 0
BBX 14 24 12 0
BITMAP
FFFC
FFFC
C00C
C00C
CFFC
CFFC
CC00
CC00
CC00
CC00
CC00
CC00
CC00
CC00
CC00
CC00
CC00
CC00
CC00
CC00
CC00
CC00
FC00
FC00
ENDCHAR
STARTCHAR 300F
ENCODING 12303
SWIDTH 1000 0
DWIDTH 32 0
BBX 18 26 6 -2
BITMAP
000FC0
000FC0
000CC0
000CC0
000CC0
000CC0
000CC0
000CC0
000CC0
000CC0
000CC0
000CC0
000CC0
000CC0
000CC0
000CC0
000CC0
000CC0
000CC0
000CC0
FFFCC0
FFFCC0
C00CC0
C00CC0
FFFFC0
FFFFC0
ENDCHAR
STARTCHAR 3010
ENCODING 12304
SWIDTH 1000 0
DWIDTH 32 0
BBX 14 24 10 0
BITMAP
FFFC
FFFC
FFF0
FFF0
FFC0
FFC0
FF00
FF00
FF00
FF00
FC00
FC00
FC00
FC00
FF00
FF00
FF00
FF00
FFC0
FFC0
FFF0
FFF0
FFFC
FFFC
ENDCHAR
STARTCHAR 3011
ENCODING 12305
SWIDTH 1000 0
DWIDTH 32 0
BBX 14 24 10 0
BITMAP
FFFC
FFFC
3FFC
3FFC
0FFC
0FFC
03FC
03FC
03FC
03FC
00FC
00FC
00FC
00FC
03FC
03FC
03FC
03FC
0FFC
0FFC
3FFC
3FFC
FFFC
FFFC
ENDCHAR
STARTCHAR 3013
ENCODING 12307
SWIDTH 1000 0
DWIDTH 32 0
BBX 22 28 6 -2
BITMAP
FFFFFC
FFFFFC
FFFFFC
FFFFFC
FFFFFC
FFFFFC
FFFFFC
FFFFFC
FFFFFC
FFFFFC
000000
000000
000000
000000
000000
000000
000000
000000
FFFFFC
FFFFFC
FFFFFC
FFFFFC
FFFFFC
FFFFFC
FFFFFC
FFFFFC
FFFFFC
FFFFFC
ENDCHAR
STARTCHAR 3014
ENCODING 12308
SWIDTH 1000 0
DWIDTH 32 0
BBX 10 28 18 -2
BITMAP
03C0
03C0
3F00
3F00
F000
F000
C000
C000
C000
C000
C000
C000
C000
C000
C000
C000
C000
C000
C000
C000
C000
C000
F000
F000
3F00
3F00
03C0
03C0
ENDCHAR
STARTCHAR 3015
ENCODING 12309
SWIDTH 1000 0
DWIDTH 32 0
BBX 10 28 6 -2
BITMAP
F000
F000
3F00
3F00
03C0
03C0
00C0
00C0
00C0
00C0
00C0
00C0
00C0
00C0
00C0
00C0
00C0
00C0
00C0
00C0
00C0
00C0
03C0
03C0
3F00
3F00
F000
F000
ENDCHAR
STARTCHAR 3016
ENCODING 12310
SWIDTH 1000 0
DWIDTH 32 0
BBX 16 24 8 0
BITMAP
FFFF
FFFF
C00C
C00C
C030
C030
C0C0
C0C0
C0C0
C0C0
C300
C300
C300
C300
C0C0
C0C0
C0C0
C0C0
C030
C030
C00C
C00C
FFFF
FFFF
ENDCHAR
STARTCHAR 3017
ENCODING 12311
SWIDTH 1000 0
DWIDTH 32 0
BBX 16 24 10 0
BITMAP
FFFF
FFFF
3003
3003
0C03
0C03
0303
0303
0303
0303
00C3
00C3
00C3
00C3
0303
0303
0303
0303
0C03
0C03
3003
3003
FFFF
FFFF
ENDCHAR
STARTCHAR 3041
ENCODING 12353
SWIDTH 1000 0
DWIDTH 32 0
BBX 20 26 6 -2
BITMAP
00C000
00C000
00C000
00C000
00C000
00C000
3FFFC0
3FFFC0
00C000
00C000
03F000
03F000
0CCC00
0CCC00
30F3C0
30F3C0
C0C030
C0C030
CF3030
CF3030
3000C0
3000C0
000300
000300
000C00
000C00
ENDCHAR
STARTCHAR 3042
ENCODING 12354
SWIDTH 1000 0
DWIDTH 32 0
BBX 22 28 6 -2
BITMAP
003000
003000
003000
003000
00C000
00C000
FFFFF0
FFFFF0
00C000
00C000
00F000
00F000
03CF00
03CF00
0CCCC0
0CCCC0
30CC30
30CC30
30300C
30300C
C0CC0C
C0CC0C
3F0030
3F0030
0000C0
0000C0
000300
000300
ENDCHAR
STARTCHAR 3043
ENCODING 12355
SWIDTH 1000 0
DWIDTH 32 0
BBX 18 20 8 2
BITMAP
C00000
C00000
C00C00
C00C00
C00300
C00300
C003C0
C003C0
C000C0
C000C0
300000
300000
300000
300000
0C0000
0C0000
0CC000
0CC000
030000
030000
ENDCHAR
STARTCHAR 3044
ENCODING 12356
SWIDTH 1000 0
DWIDTH 32 0
BBX 22 24 6 0
BITMAP
C00000
C00000
C00000
C00000
C00300
C00300
C000C0
C000C0
C000FC
C000FC
F00030
F00030
300000
300000
300000
300000
3C0000
3C0000
0C3000
0C3000
0CC000
0CC000
030000
030000
ENDCHAR
STARTCHAR 3045
ENCODING 12357
SWIDTH 1000 0
DWIDTH 32 0
BBX 16 22 8 0
BITMAP
3FF0
3FF0
003C
003C
03C0
03C0
0C00
0C00
FFFC
FFFC
000F
000F
0003
0003
003C
003C
00F0
00F0
0300
0300
0C00
0C00
ENDCHAR
STARTCHAR 3046
ENCODING 12358
SWIDTH 1000 0
DWIDTH 32 0
BBX 18 26 8 -2
BITMAP
3FF000
3FF000
003C00
003C00
00F000
00F000
030000
030000
FFFC00
FFFC00
000F00
000F00
0003C0
0003C0
000300
000300
000F00
000F00
003C00
003C00
00C000
00C000
030000
030000
0C0000
0C0000
ENDCHAR
STARTCHAR 3047
ENCODING 12359
SWIDTH 1000 0
DWIDTH 32 0
BBX 18 22 8 2
BITMAP
0F0000
0F0000
03C000
03C000
0C0000
0C0000
000000
000000
FFFC00
FFFC00
003000
003000
00C000
00C000
030000
030000
0CC000
0CC000
30F0C0
30F0C0
C03F00
C03F00
ENDCHAR
STARTCHAR 3048
ENCODING 12360
SWIDTH 1000 0
DWIDTH 32 0
BBX 22 24 6 0
BITMAP
03FC00
03FC00
003000
003000
00C000
00C000
000000
000000
3FFF00
3FFF00
000C00
000C00
003000
003000
00C000
00C000
033000
033000
0C3000
0C3000
303C0C
303C0C
C00FFC
C00FFC
ENDCHAR
STARTCHAR 3049
ENCODING 12361
SWIDTH 1000 0
DWIDTH 32 0
BBX 20 22 6 2
BITMAP
300000
300000
0C0F00
0C0F00
0C03C0
0C03C0
3F0000
3F0000
0C0F00
0C0F00
0CF0C0
0CF0C0
0F0030
0F0030
3C0030
3C0030
CC30C0
CC30C0
3C0F00
3C0F00
0C0000
0C0000
ENDCHAR
STARTCHAR 304A
ENCODING 12362
SWIDTH 1000 0
DWIDTH 32 0
BBX 22 24 6 0
BITMAP
3000F0
3000F0
0C003C
0C003C
0C0000
0C0000
FFC3C0
FFC3C0
0C0C30
0C0C30
0C300C
0C300C
0CC00C
0CC00C
0F000C
0F000C
3C3030
3C3030
CC0CC0
CC0CC0
3C0300
3C0300
0C0000
0C0000
ENDCHAR
STARTCHAR 304B
ENCODING 12363
SWIDTH 1000 0
DWIDTH 32 0
BBX 22 24 6 0
BITMAP
030000
030000
00C000
00C000
C0C0C0
C0C0C0
3FF030
3FF030
00CC30
00CC30
030C0C
030C0C
030C0C
030C0C
0C0C0C
0C0C0C
0C0C3C
0C0C3C
303030
303030
303000
303000
C0C000
C0C000
ENDCHAR
STARTCHAR 304C
ENCODING 12364
SWIDTH 1000 0
DWIDTH 32 0
BBX 24 26 6 0
BITMAP
000030
000030
03000F
03000F
00C000
00C000
C0C0CF
C0C0CF
3FF030
3FF030
00CC30
00CC30
030C0C
030C0C
030C0C
030C0C
0C0C0C
0C0C0C
0C0C3C
0C0C3C
303030
303030
303000
303000
C0C000
C0C000
ENDCHAR
STARTCHAR 304D
ENCODING 12365
SWIDTH 1000 0
DWIDTH 32 0
BBX 16 28 8 -2
BITMAP
0C00
0C00
0C00
0C00
03FF
03FF
FF00
FF00
00C0
00C0
00FF
00FF
FF30
FF30
0030
0030
000C
000C
0F0C
0F0C
30F3
30F3
300C
300C
0F00
0F00
00FC
00FC
ENDCHAR
STARTCHAR 304E
ENCODING 12366
SWIDTH 1000 0
DWIDTH 32 0
BBX 22 30 8 -2
BITMAP
0000C0
0000C0
0C003C
0C003C
0C00C0
0C00C0
03FF3C
03FF3C
FF0000
FF0000
00C000
00C000
00FF00
00FF00
FF3000
FF3000
003000
003000
000C00
000C00
0F0C00
0F0C00
30F300
30F300
300C00
300C00
0F0000
0F0000
00FC00
00FC00
ENDCHAR
STARTCHAR 304F
ENCODING 12367
SWIDTH 1000 0
DWIDTH 32 0
BBX 12 26 8 -2
BITMAP
0030
0030
00F0
00F0
03C0
03C0
0F00
0F00
0C00
0C00
3000
3000
F000
F000
3000
3000
0C00
0C00
0F00
0F00
03C0
03C0
00F0
00F0
0030
0030
ENDCHAR
STARTCHAR 3050
ENCODING 12368
SWIDTH 1000 0
DWIDTH 32 0
BBX 22 30 8 -2
BITMAP
0000C0
0000C0
00003C
00003C
0030C0
0030C0
00F03C
00F03C
03C000
03C000
0F0000
0F0000
0C0000
0C0000
300000
300000
F00000
F00000
300000
300000
0C0000
0C0000
0F0000
0F0000
03C000
03C000
00F000
00F000
003000
003000
ENDCHAR
STARTCHAR 3051
ENCODING 12369
SWIDTH 1000 0
DWIDTH 32 0
BBX 22 28 6 -2
BITMAP
000300
000300
C003C0
C003C0
C000C0
C000C0
C00FFC
C00FFC
C000C0
C000C0
C000C0
C000C0
F000C0
F000C0
3000C0
3000C0
3000C0
3000C0
3C00C0
3C00C0
0CC0C0
0CC0C0
0F00C0
0F00C0
0C0300
0C0300
000C00
000C00
ENDCHAR
STARTCHAR 3052
ENCODING 12370
SWIDTH 1000 0
DWIDTH 32 0
BBX 26 30 6 -2
BITMAP
00000C00
00000C00
000003C0
000003C0
C0030C00
C0030C00
C000C3C0
C000C3C0
C000C000
C000C000
C00FFC00
C00FFC00
C000C000
C000C000
F000C000
F000C000
3000C000
3000C000
3000C000
3000C000
3C00C000
3C00C000
0CC0C000
0CC0C000
0F00C000
0F00C000
0C030000
0C030000
000C0000
000C0000
ENDCHAR
STARTCHAR 3053
ENCODING 12371
SWIDTH 1000 0
DWIDTH 32 0
BBX 20 20 6 2
BITMAP
3FFC00
3FFC00
003F00
003F00
00F000
00F000
000000
000000
000000
000000
000000
000000
C00000
C00000
C00000
C00000
3C03F0
3C03F0
0FFFC0
0FFFC0
ENDCHAR
STARTCHAR 3054
ENCODING 12372
SWIDTH 1000 0
DWIDTH 32 0
BBX 24 26 6 2
BITMAP
000030
000030
00000F
00000F
000030
000030
3FFC0F
3FFC0F
003F00
003F00
00F000
00F000
000000
000000
000000
000000
000000
000000
C00000
C00000
C00000
C00000
3C03F0
3C03F0
0FFFC0
0FFFC0
ENDCHAR
STARTCHAR 3055
ENCODING 12373
SWIDTH 1000 0
DWIDTH 32 0
BBX 16 28 8 -2
BITMAP
0C00
0C00
0C00
0C00
0300
0300
03FF
03FF
FCC0
FCC0
00F0
00F0
0030
0030
0030
0030
000C
000C
0F0F
0F0F
30F0
30F0
300C
300C
0F00
0F00
00FC
00FC
ENDCHAR
STARTCHAR 3056
ENCODING 12374
SWIDTH 1000 0
DWIDTH 32 0
BBX 22 30 8 -2
BITMAP
0000C0
0000C0
0C003C
0C003C
0C00C0
0C00C0
03003C
03003C
03FF00
03FF00
FCC000
FCC000
00F000
00F000
003000
003000
003000
003000
000C00
000C00
0F0F00
0F0F00
30F000
30F000
300C00
300C00
0F0000
0F0000
00FC00
00FC00
ENDCHAR
STARTCHAR 3057
ENCODING 12375
SWIDTH 1000 0
DWIDTH 32 0
BBX 16 24 10 0
BITMAP
C000
C000
C000
C000
C000
C000
C000
C000
C000
C000
C000
C000
C000
C000
C000
C000
C003
C003
F00C
F00C
3C30
3C30
0FC0
0FC0
ENDCHAR
STARTCHAR 3058
ENCODING 12376
SWIDTH 1000 0
DWIDTH 32 0
BBX 18 26 10 0
BITMAP
000C00
000C00
C003C0
C003C0
C00C00
C00C00
C003C0
C003C0
C00000
C00000
C00000
C00000
C00000
C00000
C00000
C00000
C00000
C00000
C00300
C00300
F00C00
F00C00
3C3000
3C3000
0FC000
0FC000
ENDCHAR
STARTCHAR 3059
ENCODING 12377
SWIDTH 1000 0
DWIDTH 32 0
BBX 22 28 6 -2
BITMAP
003000
003000
003000
003000
003000
003000
003000
003000
FFFFFC
FFFFFC
003000
003000
00F000
00F000
033000
033000
033000
033000
00CC00
00CC00
000C00
000C00
003000
003000
00C000
00C000
030000
030000
ENDCHAR
STARTCHAR 305A
ENCODING 12378
SWIDTH 1000 0
DWIDTH 32 0
BBX 24 30 6 -2
BITMAP
000030
000030
00300F
00300F
003030
003030
00300F
00300F
003000
003000
FFFFFC
FFFFFC
003000
003000
00F000
00F000
033000
033000
033000
033000
00CC00
00CC00
000C00
000C00
003000
003000
00C000
00C000
030000
030000
ENDCHAR
STARTCHAR 305B
ENCODING 12379
SWIDTH 1000 0
DWIDTH 32 0
BBX 22 24 6 0
BITMAP
000300
000300
030300
030300
030300
030300
FFFFFC
FFFFFC
030300
030300
030300
030300
030300
030300
033300
033300
030C00
030C00
030000
030000
030000
030000
00FFF0
00FFF0
ENDCHAR
STARTCHAR 305C
ENCODING 12380
SWIDTH 1000 0
DWIDTH 32 0
BBX 24 28 6 0
BITMAP
000030
000030
00000F
00000F
000330
000330
03030F
03030F
030300
030300
FFFFFC
FFFFFC
030300
030300
030300
030300
030300
030300
033300
033300
030C00
030C00
030000
030000
030000
030000
00FFF0
00FFF0
ENDCHAR
STARTCHAR 305D
ENCODING 12381
SWIDTH 1000 0
DWIDTH 32 0
BBX 18 26 6 -2
BITMAP
0FFC00
0FFC00
030C00
030C00
003000
003000
00C000
00C000
030000
030000
0C0FC0
0C0FC0
33F000
33F000
FC3000
FC3000
00C000
00C000
00C000
00C000
00C000
00C000
003000
003000
000FC0
000FC0
ENDCHAR
STARTCHAR 305E
ENCODING 12382
SWIDTH 1000 0
DWIDTH 32 0
BBX 24 30 6 -2
BITMAP
000030
000030
00000F
00000F
0FFC30
0FFC30
030C0F
030C0F
003000
003000
00C000
00C000
030000
030000
0C0FC0
0C0FC0
33F000
33F000
FC3000
FC3000
00C000
00C000
00C000
00C000
00C000
00C000
003000
003000
000FC0
000FC0
ENDCHAR
STARTCHAR 305F
ENCODING 12383
SWIDTH 1000 0
DWIDTH 32 0
BBX 24 26 4 -2
BITMAP
030000
030000
0300FC
0300FC
3FF00F
3FF00F
03000C
03000C
030030
030030
030000
030000
030000
030000
030000
030000
0F0C00
0F0C00
3C0C00
3C0C00
300300
300300
F000FF
F000FF
C00000
C00000
ENDCHAR
STARTCHAR 3060
ENCODING 12384
SWIDTH 1000 0
DWIDTH 32 0
BBX 28 30 4 -2
BITMAP
00000300
00000300
000000F0
000000F0
03000300
03000300
0300FCF0
0300FCF0
3FF00F00
3FF00F00
03000C00
03000C00
03003000
03003000
03000000
03000000
03000000
03000000
03000000
03000000
0F0C0000
0F0C0000
3C0C0000
3C0C0000
30030000
30030000
F000FF00
F000FF00
C0000000
C0000000
ENDCHAR
STARTCHAR 3061
ENCODING 12385
SWIDTH 1000 0
DWIDTH 32 0
BBX 20 28 8 -2
BITMAP
00C000
00C000
00CC00
00CC00
F0C300
F0C300
3FFC00
3FFC00
00C000
00C000
00C000
00C000
00C000
00C000
00CF00
00CF00
00F0C0
00F0C0
03C0F0
03C0F0
0000F0
0000F0
0003C0
0003C0
000F00
000F00
003000
003000
ENDCHAR
STARTCHAR 3062
ENCODING 12386
SWIDTH 1000 0
DWIDTH 32 0
BBX 24 30 8 -2
BITMAP
000030
000030
00C00F
00C00F
00CC30
00CC30
F0C30F
F0C30F
3FFC00
3FFC00
00C000
00C000
00C000
00C000
00C000
00C000
00CF00
00CF00
00F0C0
00F0C0
03C0F0
03C0F0
0000F0
0000F0
0003C0
0003C0
000F00
000F00
003000
003000
ENDCHAR
STARTCHAR 3063
ENCODING 12387
SWIDTH 1000 0
DWIDTH 32 0
BBX 18 14 8 4
BITMAP
C0FC00
C0FC00
3F0300
3F0300
0000C0
0000C0
0000C0
0000C0
000300
000300
003C00
003C00
00C000
00C000
ENDCHAR
STARTCHAR 3064
ENCODING 12388
SWIDTH 1000 0
DWIDTH 32 0
BBX 24 18 4 2
BITMAP
0003F0
0003F0
C0FC0C
C0FC0C
3F0003
3F0003
000003
000003
00000C
00000C
00000C
00000C
0000F0
0000F0
000F00
000F00
003000
003000
ENDCHAR
STARTCHAR 3065
ENCODING 12389
SWIDTH 1000 0
DWIDTH 32 0
BBX 26 26 4 2
BITMAP
00000C00
00000C00
000003C0
000003C0
00000C00
00000C00
000003C0
000003C0
0003F000
0003F000
C0FC0C00
C0FC0C00
3F000300
3F000300
00000300
00000300
00000C00
00000C00
00000C00
00000C00
0000F000
0000F000
000F0000
000F0000
00300000
00300000
ENDCHAR
STARTCHAR 3066
ENCODING 12390
SWIDTH 1000 0
DWIDTH 32 0
BBX 22 22 6 0
BITMAP
0003FC
0003FC
03FC00
03FC00
FCC000
FCC000
00C000
00C000
00C000
00C000
00C000
00C000
00C000
00C000
030000
030000
030000
030000
00C3C0
00C3C0
003F00
003F00
ENDCHAR
STARTCHAR 3067
ENCODING 12391
SWIDTH 1000 0
DWIDTH 32 0
BBX 26 28 6 0
BITMAP
00000C00
00000C00
000003C0
000003C0
00000C00
00000C00
0003F3C0
0003F3C0
03FC0000
03FC0000
FCC00000
FCC00000
00C00000
00C00000
00C00000
00C00000
00C00000
00C00000
00C00000
00C00000
03000000
03000000
03000000
03000000
00C3C000
00C3C000
003F0000
003F0000
ENDCHAR
STARTCHAR 3068
ENCODING 12392
SWIDTH 1000 0
DWIDTH 32 0
BBX 14 26 8 -2
BITMAP
0300
0300
0300
0300
0300
0300
0300
0300
0330
0330
03C0
03C0
0F00
0F00
3000
3000
C000
C000
C000
C000
C000
C000
303C
303C
0FF0
0FF0
ENDCHAR
STARTCHAR 3069
ENCODING 12393
SWIDTH 1000 0
DWIDTH 32 0
BBX 22 28 8 -2
BITMAP
0000C0
0000C0
03003C
03003C
0300C0
0300C0
03003C
03003C
030000
030000
033000
033000
03C000
03C000
0F0000
0F0000
300000
300000
C00000
C00000
C00000
C00000
C00000
C00000
303C00
303C00
0FF000
0FF000
ENDCHAR
STARTCHAR 306A
ENCODING 12394
SWIDTH 1000 0
DWIDTH 32 0
BBX 24 26 4 -2
BITMAP
030000
030000
0300F0
0300F0
3FF03C
3FF03C
03000C
03000C
030030
030030
0300C0
0300C0
0300C0
0300C0
030030
030030
0F0030
0F0030
3C0F30
3C0F30
3030FC
3030FC
F00C33
F00C33
C003C0
C003C0
ENDCHAR
STARTCHAR 306B
ENCODING 12395
SWIDTH 1000 0
DWIDTH 32 0
BBX 22 24 6 0
BITMAP
300000
300000
300030
300030
303FC0
303FC0
300000
300000
300000
300000
C00000
C00000
C00000
C00000
C00000
C00000
C00000
C00000
C30000
C30000
3C303C
3C303C
300FF0
300FF0
ENDCHAR
STARTCHAR 306C
ENCODING 12396
SWIDTH 1000 0
DWIDTH 32 0
BBX 26 22 4 2
BITMAP
03000000
03000000
00C3F000
00C3F000
003C0C00
003C0C00
33F00300
33F00300
33300300
33300300
0CC00300
0CC00300
0CC00300
0CC00300
33000300
33000300
CCC0FC00
CCC0FC00
CC330F00
CC330F00
3000F3C0
3000F3C0
ENDCHAR
STARTCHAR 306D
ENCODING 12397
SWIDTH 1000 0
DWIDTH 32 0
BBX 28 26 2 0
BITMAP
03000000
03000000
03000000
03000000
0300F000
0300F000
3FC30C00
3FC30C00
030C0300
030C0300
030C00C0
030C00C0
333000C0
333000C0
33C000C0
33C000C0
0F000300
0F000300
0F003F00
0F003F00
3300C3C0
3300C3C0
CF003CF0
CF003CF0
03000000
03000000
ENDCHAR
STARTCHAR 306E
ENCODING 12398
SWIDTH 1000 0
DWIDTH 32 0
BBX 24 24 4 0
BITMAP
00FC00
00FC00
0F03C0
0F03C0
303030
303030
C0300C
C0300C
C0300C
C0300C
C03003
C03003
C03003
C03003
30C00C
30C00C
30C00C
30C00C
330030
330030
0C00C0
0C00C0
000300
000300
ENDCHAR
STARTCHAR 306F
ENCODING 12399
SWIDTH 1000 0
DWIDTH 32 0
BBX 22 28 6 -2
BITMAP
000300
000300
300300
300300
30C30C
30C30C
303FF0
303FF0
300300
300300
300300
300300
300300
300300
3000C0
3000C0
C000C0
C000C0
C000C0
C000C0
C03F00
C03F00
CCC3F0
CCC3F0
30CC0C
30CC0C
003000
003000
ENDCHAR
STARTCHAR 3070
ENCODING 12400
SWIDTH 1000 0
DWIDTH 32 0
BBX 26 30 6 -2
BITMAP
00000C00
00000C00
000303C0
000303C0
30030C00
30030C00
30C303C0
30C303C0
303FF000
303FF000
30030000
30030000
30030000
30030000
30030000
30030000
3000C000
3000C000
C000C000
C000C000
C000C000
C000C000
C03F0000
C03F0000
CCC3F000
CCC3F000
30CC0C00
30CC0C00
00300000
00300000
ENDCHAR
STARTCHAR 3071
ENCODING 12401
SWIDTH 1000 0
DWIDTH 32 0
BBX 26 30 6 -2
BITMAP
00000300
00000300
00030CC0
00030CC0
30030300
30030300
30C30C00
30C30C00
303FF000
303FF000
30030000
30030000
30030000
30030000
30030000
30030000
3000C000
3000C000
C000C000
C000C000
C000C000
C000C000
C03F0000
C03F0000
CCC3F000
CCC3F000
30CC0C00
30CC0C00
00300000
00300000
ENDCHAR
STARTCHAR 3072
ENCODING 12402
SWIDTH 1000 0
DWIDTH 32 0
BBX 24 26 6 -2
BITMAP
0000C0
0000C0
0F00F0
0F00F0
FC00F0
FC00F0
3000CC
3000CC
3000CC
3000CC
3000C3
3000C3
3000C0
3000C0
C000C0
C000C0
C00030
C00030
C00030
C00030
3000C0
3000C0
0F0F00
0F0F00
00F000
00F000
ENDCHAR
STARTCHAR 3073
ENCODING 12403
SWIDTH 1000 0
DWIDTH 32 0
BBX 26 30 6 -2
BITMAP
00000C00
00000C00
000003C0
000003C0
0000CC00
0000CC00
0F00F3C0
0F00F3C0
FC00F000
FC00F000
3000CC00
3000CC00
3000CC00
3000CC00
3000C300
3000C300
3000C000
3000C000
C000C000
C000C000
C0003000
C0003000
C0003000
C0003000
3000C000
3000C000
0F0F0000
0F0F0000
00F00000
00F00000
ENDCHAR
STARTCHAR 3074
ENCODING 12404
SWIDTH 1000 0
DWIDTH 32 0
BBX 26 28 6 -2
BITMAP
00000300
00000300
0000CCC0
0000CCC0
0F00F300
0F00F300
FC00F000
FC00F000
3000CC00
3000CC00
3000CC00
3000CC00
3000C300
3000C300
3000C000
3000C000
C000C000
C000C000
C0003000
C0003000
C0003000
C0003000
3000C000
3000C000
0F0F0000
0F0F0000
00F00000
00F00000
ENDCHAR
STARTCHAR 3075
ENCODING 12405
SWIDTH 1000 0
DWIDTH 32 0
BBX 26 22 4 0
BITMAP
00F00000
00F00000
003C0000
003C0000
00300000
00300000
00C00000
00C00000
00300000
00300000
000C0000
000C0000
003FC000
003FC000
03C33C00
03C33C00
FCC30FC0
FCC30FC0
30330300
30330300
000C0000
000C0000
ENDCHAR
STARTCHAR 3076
ENCODING 12406
SWIDTH 1000 0
DWIDTH 32 0
BBX 26 26 4 0
BITMAP
00003000
00003000
00000F00
00000F00
00F03000
00F03000
003C0F00
003C0F00
00300000
00300000
00C00000
00C00000
00300000
00300000
000C0000
000C0000
003FC000
003FC000
03C33C00
03C33C00
FCC30FC0
FCC30FC0
30330300
30330300
000C0000
000C0000
ENDCHAR
STARTCHAR 3077
ENCODING 12407
SWIDTH 1000 0
DWIDTH 32 0
BBX 26 24 4 0
BITMAP
00000C00
00000C00
00F03300
00F03300
003C0C00
003C0C00
00300000
00300000
00C00000
00C00000
00300000
00300000
000C0000
000C0000
003FC000
003FC000
03C33C00
03C33C00
FCC30FC0
FCC30FC0
30330300
30330300
000C0000
000C0000
ENDCHAR
STARTCHAR 3078
ENCODING 12408
SWIDTH 1000 0
DWIDTH 32 0
BBX 24 12 6 4
BITMAP
0C0000
0C0000
330000
330000
C0F000
C0F000
003F00
003F00
0003F0
0003F0
00003F
00003F
ENDCHAR
STARTCHAR 3079
ENCODING 12409
SWIDTH 1000 0
DWIDTH 32 0
BBX 24 22 6 4
BITMAP
0000C0
0000C0
00003C
00003C
0000C0
0000C0
00003C
00003C
000000
000000
0C0000
0C0000
330000
330000
C0F000
C0F000
003F00
003F00
0003F0
0003F0
00003F
00003F
ENDCHAR
STARTCHAR 307A
ENCODING 12410
SWIDTH 1000 0
DWIDTH 32 0
BBX 24 20 6 4
BITMAP
000030
000030
0000CC
0000CC
000030
000030
000000
000000
0C0000
0C0000
330000
330000
C0F000
C0F000
003F00
003F00
0003F0
0003F0
00003F
00003F
ENDCHAR
STARTCHAR 307B
ENCODING 12411
SWIDTH 1000 0
DWIDTH 32 0
BBX 22 28 6 -2
BITMAP
003FF0
003FF0
300300
300300
300300
300300
30FFFC
30FFFC
300300
300300
300300
300300
300300
300300
3000C0
3000C0
C000C0
C000C0
C000C0
C000C0
C03F00
C03F00
CCC3F0
CCC3F0
30CC0C
30CC0C
003000
003000
ENDCHAR
STARTCHAR 307C
ENCODING 12412
SWIDTH 1000 0
DWIDTH 32 0
BBX 26 30 6 -2
BITMAP
00000C00
00000C00
003FF3C0
003FF3C0
30030C00
30030C00
300303C0
300303C0
30FFFC00
30FFFC00
30030000
30030000
30030000
30030000
30030000
30030000
3000C000
3000C000
C000C000
C000C000
C000C000
C000C000
C03F0000
C03F0000
CCC3F000
CCC3F000
30CC0C00
30CC0C00
00300000
00300000
ENDCHAR
STARTCHAR 307D
ENCODING 12413
SWIDTH 1000 0
DWIDTH 32 0
BBX 26 28 6 -2
BITMAP
003FF300
003FF300
30030CC0
30030CC0
30030300
30030300
30FFFC00
30FFFC00
30030000
30030000
30030000
30030000
30030000
30030000
3000C000
3000C000
C000C000
C000C000
C000C000
C000C000
C03F0000
C03F0000
CCC3F000
CCC3F000
30CC0C00
30CC0C00
00300000
00300000
ENDCHAR
STARTCHAR 307E
ENCODING 12414
SWIDTH 1000 0
DWIDTH 32 0
BBX 18 28 6 -2
BITMAP
003000
003000
003000
003000
003000
003000
03FF00
03FF00
003000
003000
003000
003000
0FFFC0
0FFFC0
003000
003000
003000
003000
003000
003000
0F3000
0F3000
30FC00
30FC00
C3CF00
C3CF00
3C0000
3C0000
ENDCHAR
STARTCHAR 307F
ENCODING 12415
SWIDTH 1000 0
DWIDTH 32 0
BBX 24 22 2 0
BITMAP
03FC00
03FC00
000C00
000C00
00300C
00300C
00300C
00300C
00C00C
00C00C
0CC03C
0CC03C
33F030
33F030
C30F30
C30F30
CC00F0
CC00F0
CC033C
CC033C
300C0F
300C0F
ENDCHAR
STARTCHAR 3080
ENCODING 12416
SWIDTH 1000 0
DWIDTH 32 0
BBX 24 28 6 -2
BITMAP
0C0000
0C0000
0C0000
0C0000
FFC000
FFC000
0C003C
0C003C
0C00C3
0C00C3
0C00C0
0C00C0
3C00C0
3C00C0
CF0030
CF0030
CF0030
CF0030
3C0030
3C0030
0C0030
0C0030
0C0030
0C0030
0F00C0
0F00C0
33FF00
33FF00
ENDCHAR
STARTCHAR 3081
ENCODING 12417
SWIDTH 1000 0
DWIDTH 32 0
BBX 24 26 4 0
BITMAP
000C00
000C00
300C00
300C00
30FF00
30FF00
3F0CC0
3F0CC0
0C0C30
0C0C30
0F3C0C
0F3C0C
30F003
30F003
C03003
C03003
C0CC0C
C0CC0C
30C30C
30C30C
330030
330030
0C00C0
0C00C0
000300
000300
ENDCHAR
STARTCHAR 3082
ENCODING 12418
SWIDTH 1000 0
DWIDTH 32 0
BBX 16 28 10 -2
BITMAP
0C00
0C00
0C00
0C00
FC00
FC00
0FC0
0FC0
0F00
0F00
3C30
3C30
CC0C
CC0C
3C03
3C03
0FC3
0FC3
0C03
0C03
0C03
0C03
0C0C
0C0C
0330
0330
00C0
00C0
ENDCHAR
STARTCHAR 3083
ENCODING 12419
SWIDTH 1000 0
DWIDTH 32 0
BBX 20 24 8 -2
BITMAP
0F3000
0F3000
30C000
30C000
0C0300
0C0300
0C3CC0
0C3CC0
CFC030
CFC030
3C0030
3C0030
030CC0
030CC0
030300
030300
00C000
00C000
003C00
003C00
000F00
000F00
000C00
000C00
ENDCHAR
STARTCHAR 3084
ENCODING 12420
SWIDTH 1000 0
DWIDTH 32 0
BBX 26 24 4 -2
BITMAP
03C00000
03C00000
0C300C00
0C300C00
0C00F300
0C00F300
030F0300
030F0300
F3F000C0
F3F000C0
0FC000C0
0FC000C0
0030C300
0030C300
00303C00
00303C00
000C0000
000C0000
000F0000
000F0000
0003FC00
0003FC00
0000F000
0000F000
ENDCHAR
STARTCHAR 3085
ENCODING 12421
SWIDTH 1000 0
DWIDTH 32 0
BBX 20 26 8 -2
BITMAP
000C00
000C00
003F00
003F00
C0CCC0
C0CCC0
C33C30
C33C30
C30C30
C30C30
C30C30
C30C30
C30C30
C30C30
C30C30
C30C30
CCCCC0
CCCCC0
FC3F00
FC3F00
300C00
300C00
003000
003000
00C000
00C000
ENDCHAR
STARTCHAR 3086
ENCODING 12422
SWIDTH 1000 0
DWIDTH 32 0
BBX 24 28 6 -2
BITMAP
000300
000300
C00CC0
C00CC0
C03F3C
C03F3C
C0C30C
C0C30C
C0C303
C0C303
C0C303
C0C303
C0C303
C0C303
C0C303
C0C303
C0C303
C0C303
C03303
C03303
C30F03
C30F03
CC003C
CC003C
3003C0
3003C0
003C00
003C00
ENDCHAR
STARTCHAR 3087
ENCODING 12423
SWIDTH 1000 0
DWIDTH 32 0
BBX 16 24 10 0
BITMAP
0300
0300
0300
0300
03F0
03F0
0300
0300
0300
0300
00C0
00C0
00C0
00C0
00C0
00C0
3F30
3F30
C030
C030
30CF
30CF
0F00
0F00
ENDCHAR
STARTCHAR 3088
ENCODING 12424
SWIDTH 1000 0
DWIDTH 32 0
BBX 16 28 10 -2
BITMAP
0300
0300
0300
0300
03F0
03F0
0300
0300
0300
0300
0300
0300
00C0
00C0
00C0
00C0
00C0
00C0
0030
0030
3F30
3F30
C0FC
C0FC
C0CF
C0CF
3F00
3F00
ENDCHAR
STARTCHAR 3089
ENCODING 12425
SWIDTH 1000 0
DWIDTH 32 0
BBX 14 26 12 -2
BITMAP
0F00
0F00
03C0
03C0
3C00
3C00
C000
C000
C000
C000
C000
C000
C000
C000
CFF0
CFF0
FC3C
FC3C
000C
000C
003C
003C
03F0
03F0
3C00
3C00
ENDCHAR
STARTCHAR 308A
ENCODING 12426
SWIDTH 1000 0
DWIDTH 32 0
BBX 14 26 8 -2
BITMAP
3000
3000
3000
3000
3000
3000
33C0
33C0
3CF0
3CF0
3C30
3C30
FC0C
FC0C
300C
300C
000C
000C
0030
0030
0030
0030
00C0
00C0
0300
0300
ENDCHAR
STARTCHAR 308B
ENCODING 12427
SWIDTH 1000 0
DWIDTH 32 0
BBX 22 26 6 -2
BITMAP
30FC00
30FC00
0F0C00
0F0C00
003000
003000
003000
003000
00C000
00C000
00CFC0
00CFC0
03F030
03F030
0F000C
0F000C
3C000C
3C000C
F03C0C
F03C0C
00C330
00C330
0030C0
0030C0
000F00
000F00
ENDCHAR
STARTCHAR 308C
ENCODING 12428
SWIDTH 1000 0
DWIDTH 32 0
BBX 28 26 2 0
BITMAP
03000000
03000000
03000000
03000000
0300F000
0300F000
3FC30C00
3FC30C00
030C0C00
030C0C00
030C0C00
030C0C00
33303000
33303000
33C03000
33C03000
0F003000
0F003000
0F003000
0F003000
33003030
33003030
CF000CC0
CF000CC0
03000300
03000300
ENDCHAR
STARTCHAR 308D
ENCODING 12429
SWIDTH 1000 0
DWIDTH 32 0
BBX 22 26 6 -2
BITMAP
30FC00
30FC00
0F0C00
0F0C00
003000
003000
003000
003000
00C000
00C000
00CFC0
00CFC0
03F030
03F030
0F003C
0F003C
3C000C
3C000C
F0003C
F0003C
000030
000030
0000C0
0000C0
000300
000300
ENDCHAR
STARTCHAR 308E
ENCODING 12430
SWIDTH 1000 0
DWIDTH 32 0
BBX 20 22 6 2
BITMAP
300000
300000
0C0000
0C0000
0C0000
0C0000
3F0000
3F0000
0C3C00
0C3C00
0CC3C0
0CC3C0
0F0030
0F0030
3C0030
3C0030
CC00C0
CC00C0
3C0300
3C0300
0C0000
0C0000
ENDCHAR
STARTCHAR 308F
ENCODING 12431
SWIDTH 1000 0
DWIDTH 32 0
BBX 22 24 6 0
BITMAP
300000
300000
0C0000
0C0000
0C0000
0C0000
FFC000
FFC000
0C03C0
0C03C0
0C3C30
0C3C30
0CC00C
0CC00C
0F000C
0F000C
3C0030
3C0030
CC00C0
CC00C0
3C0300
3C0300
0C0000
0C0000
ENDCHAR
STARTCHAR 3090
ENCODING 12432
SWIDTH 1000 0
DWIDTH 32 0
BBX 26 24 2 -2
BITMAP
3FF00000
3FF00000
30C00000
30C00000
00C0F000
00C0F000
00CF0C00
00CF0C00
00F00300
00F00300
03C003C0
03C003C0
0F0000C0
0F0000C0
330003C0
330003C0
C300F300
C300F300
33030300
33030300
0C00CC00
0C00CC00
00003000
00003000
ENDCHAR
STARTCHAR 3091
ENCODING 12433
SWIDTH 1000 0
DWIDTH 32 0
BBX 22 26 6 -2
BITMAP
03FC00
03FC00
003000
003000
00CF00
00CF00
03F0C0
03F0C0
0C00C0
0C00C0
003300
003300
00CC00
00CC00
003000
003000
03C000
03C000
0C00C0
0C00C0
330330
330330
CCCC3C
CCCC3C
0030C0
0030C0
ENDCHAR
STARTCHAR 3092
ENCODING 12434
SWIDTH 1000 0
DWIDTH 32 0
BBX 22 28 6 -2
BITMAP
00C000
00C000
00C000
00C000
0FFC00
0FFC00
00C000
00C000
0300F0
0300F0
0C030C
0C030C
3FCC30
3FCC30
F0F3C0
F0F3C0
003C00
003C00
03F000
03F000
0C3000
0C3000
303000
303000
0C00C0
0C00C0
03FF00
03FF00
ENDCHAR
STARTCHAR 3093
ENCODING 12435
SWIDTH 1000 0
DWIDTH 32 0
BBX 22 24 6 0
BITMAP
00C000
00C000
00C000
00C000
030000
030000
030000
030000
0C3C00
0C3C00
0CC300
0CC300
0F0300
0F0300
0C0300
0C0300
300300
300300
300300
300300
C000CC
C000CC
C00030
C00030
ENDCHAR
STARTCHAR 30A1
ENCODING 12449
SWIDTH 1000 0
DWIDTH 32 0
BBX 18 20 8 2
BITMAP
FFFFC0
FFFFC0
0003C0
0003C0
033C00
033C00
03C000
03C000
030000
030000
030000
030000
0C0000
0C0000
0C0000
0C0000
300000
300000
C00000
C00000
ENDCHAR
STARTCHAR 30A2
ENCODING 12450
SWIDTH 1000 0
DWIDTH 32 0
BBX 24 28 6 -2
BITMAP
FFFFFF
FFFFFF
00000C
00000C
0030F0
0030F0
003F00
003F00
003000
003000
003000
003000
003000
003000
00F000
00F000
00C000
00C000
030000
030000
030000
030000
0C0000
0C0000
300000
300000
C00000
C00000
ENDCHAR
STARTCHAR 30A3
ENCODING 12451
SWIDTH 1000 0
DWIDTH 32 0
BBX 14 20 8 2
BITMAP
003C
003C
03C0
03C0
3F00
3F00
C300
C300
0300
0300
0300
0300
0300
0300
0300
0300
0300
0300
0300
0300
ENDCHAR
STARTCHAR 30A4
ENCODING 12452
SWIDTH 1000 0
DWIDTH 32 0
BBX 24 28 4 -2
BITMAP
0000FF
0000FF
003FC0
003FC0
0FFC00
0FFC00
F00C00
F00C00
000C00
000C00
000C00
000C00
000C00
000C00
000C00
000C00
000C00
000C00
000C00
000C00
000C00
000C00
000C00
000C00
000C00
000C00
000C00
000C00
ENDCHAR
STARTCHAR 30A5
ENCODING 12453
SWIDTH 1000 0
DWIDTH 32 0
BBX 18 22 8 2
BITMAP
00C000
00C000
00C000
00C000
FFFFC0
FFFFC0
C000C0
C000C0
C000C0
C000C0
000300
000300
000300
000300
000C00
000C00
003000
003000
00C000
00C000
030000
030000
ENDCHAR
STARTCHAR 30A6
ENCODING 12454
SWIDTH 1000 0
DWIDTH 32 0
BBX 22 28 8 -2
BITMAP
003000
003000
003000
003000
FFFFFC
FFFFFC
C0000C
C0000C
C00030
C00030
000030
000030
0000C0
0000C0
0000C0
0000C0
000300
000300
000300
000300
000C00
000C00
003000
003000
00C000
00C000
030000
030000
ENDCHAR
STARTCHAR 30A7
ENCODING 12455
SWIDTH 1000 0
DWIDTH 32 0
BBX 22 14 6 6
BITMAP
0FFFC0
0FFFC0
003000
003000
003000
003000
003000
003000
003000
003000
003000
003000
FFFFFC
FFFFFC
ENDCHAR
STARTCHAR 30A8
ENCODING 12456
SWIDTH 1000 0
DWIDTH 32 0
BBX 26 18 4 4
BITMAP
0FFFFC00
0FFFFC00
000C0000
000C0000
000C0000
000C0000
000C0000
000C0000
000C0000
000C0000
000C0000
000C0000
000C0000
000C0000
000C0000
000C0000
FFFFFFC0
FFFFFFC0
ENDCHAR
STARTCHAR 30A9
ENCODING 12457
SWIDTH 1000 0
DWIDTH 32 0
BBX 18 20 8 2
BITMAP
000C00
000C00
000C00
000C00
FFFFC0
FFFFC0
003C00
003C00
00CC00
00CC00
030C00
030C00
0C0C00
0C0C00
30CC00
30CC00
C03C00
C03C00
000C00
000C00
ENDCHAR
STARTCHAR 30AA
ENCODING 12458
SWIDTH 1000 0
DWIDTH 32 0
BBX 24 28 6 -2
BITMAP
0000C0
0000C0
0000C0
0000C0
0000C0
0000C0
FFFFFF
FFFFFF
0003C0
0003C0
000CC0
000CC0
0030C0
0030C0
00C0C0
00C0C0
0300C0
0300C0
0C00C0
0C00C0
3000C0
3000C0
C00CC0
C00CC0
0003C0
0003C0
0000C0
0000C0
ENDCHAR
STARTCHAR 30AB
ENCODING 12459
SWIDTH 1000 0
DWIDTH 32 0
BBX 22 28 4 -2
BITMAP
003000
003000
003000
003000
003000
003000
FFFFFC
FFFFFC
00300C
00300C
00300C
00300C
00300C
00300C
00C00C
00C00C
00C00C
00C00C
030030
030030
030030
030030
0C0030
0C0030
300CC0
300CC0
C00300
C00300
ENDCHAR
STARTCHAR 30AC
ENCODING 12460
SWIDTH 1000 0
DWIDTH 32 0
BBX 26 30 4 -2
BITMAP
00000C00
00000C00
003003C0
003003C0
00300C00
00300C00
003003C0
003003C0
FFFFFC00
FFFFFC00
00300C00
00300C00
00300C00
00300C00
00300C00
00300C00
00C00C00
00C00C00
00C00C00
00C00C00
03003000
03003000
03003000
03003000
0C003000
0C003000
300CC000
300CC000
C0030000
C0030000
ENDCHAR
STARTCHAR 30AD
ENCODING 12461
SWIDTH 1000 0
DWIDTH 32 0
BBX 18 26 8 0
BITMAP
0C0000
0C0000
0C0000
0C0000
030000
030000
03FFC0
03FFC0
FFC000
FFC000
00C000
00C000
00C000
00C000
00FFC0
00FFC0
FFF000
FFF000
003000
003000
003000
003000
000C00
000C00
000C00
000C00
ENDCHAR
STARTCHAR 30AE
ENCODING 12462
SWIDTH 1000 0
DWIDTH 32 0
BBX 22 28 8 0
BITMAP
0000C0
0000C0
0C003C
0C003C
0C00C0
0C00C0
03003C
03003C
03FFC0
03FFC0
FFC000
FFC000
00C000
00C000
00C000
00C000
00FFC0
00FFC0
FFF000
FFF000
003000
003000
003000
003000
000C00
000C00
000C00
000C00
ENDCHAR
STARTCHAR 30AF
ENCODING 12463
SWIDTH 1000 0
DWIDTH 32 0
BBX 18 28 6 -2
BITMAP
030000
030000
030000
030000
0C0000
0C0000
0FFFC0
0FFFC0
0C00C0
0C00C0
300300
300300
C00300
C00300
000C00
000C00
003000
003000
00C000
00C000
030000
030000
0C0000
0C0000
300000
300000
C00000
C00000
ENDCHAR
STARTCHAR 30B0
ENCODING 12464
SWIDTH 1000 0
DWIDTH 32 0
BBX 24 30 6 -2
BITMAP
000030
000030
03000F
03000F
030030
030030
0C000F
0C000F
0FFFC0
0FFFC0
0C00C0
0C00C0
300300
300300
C00300
C00300
000C00
000C00
003000
003000
00C000
00C000
030000
030000
0C0000
0C0000
300000
300000
C00000
C00000
ENDCHAR
STARTCHAR 30B1
ENCODING 12465
SWIDTH 1000 0
DWIDTH 32 0
BBX 20 26 6 0
BITMAP
00C000
00C000
030000
030000
0C0000
0C0000
33FFF0
33FFF0
C00C00
C00C00
000C00
000C00
003000
003000
003000
003000
00C000
00C000
030000
030000
0C0000
0C0000
300000
300000
C00000
C00000
ENDCHAR
STARTCHAR 30B2
ENCODING 12466
SWIDTH 1000 0
DWIDTH 32 0
BBX 24 28 6 0
BITMAP
000030
000030
00C00F
00C00F
030000
030000
0C000F
0C000F
33FFF0
33FFF0
C00C00
C00C00
000C00
000C00
003000
003000
003000
003000
00C000
00C000
030000
030000
0C0000
0C0000
300000
300000
C00000
C00000
ENDCHAR
STARTCHAR 30B3
ENCODING 12467
SWIDTH 1000 0
DWIDTH 32 0
BBX 24 16 4 4
BITMAP
3FFFFC
3FFFFC
00000C
00000C
00000C
00000C
00000C
00000C
00000C
00000C
00000C
00000C
00000C
00000C
FFFFFF
FFFFFF
ENDCHAR
STARTCHAR 30B4
ENCODING 12468
SWIDTH 1000 0
DWIDTH 32 0
BBX 26 24 4 4
BITMAP
00000C00
00000C00
000003C0
000003C0
00000C00
00000C00
000003C0
000003C0
3FFFFC00
3FFFFC00
00000C00
00000C00
00000C00
00000C00
00000C00
00000C00
00000C00
00000C00
00000C00
00000C00
00000C00
00000C00
FFFFFF00
FFFFFF00
ENDCHAR
STARTCHAR 30B5
ENCODING 12469
SWIDTH 1000 0
DWIDTH 32 0
BBX 26 28 4 -2
BITMAP
0000C000
0000C000
00C0C000
00C0C000
00C0C000
00C0C000
00C0C000
00C0C000
FFFFFFC0
FFFFFFC0
00C0C000
00C0C000
00C0C000
00C0C000
00C0C000
00C0C000
00C0C000
00C0C000
0000C000
0000C000
0000C000
0000C000
0000C000
0000C000
00030000
00030000
000C0000
000C0000
ENDCHAR
STARTCHAR 30B6
ENCODING 12470
SWIDTH 1000 0
DWIDTH 32 0
BBX 26 30 4 -2
BITMAP
00000C00
00000C00
0000C3C0
0000C3C0
00C0CC00
00C0CC00
00C0C3C0
00C0C3C0
00C0C000
00C0C000
FFFFFFC0
FFFFFFC0
00C0C000
00C0C000
00C0C000
00C0C000
00C0C000
00C0C000
00C0C000
00C0C000
0000C000
0000C000
0000C000
0000C000
0000C000
0000C000
00030000
00030000
000C0000
000C0000
ENDCHAR
STARTCHAR 30B7
ENCODING 12471
SWIDTH 1000 0
DWIDTH 32 0
BBX 22 26 6 -2
BITMAP
3C0000
3C0000
0F0000
0F0000
000000
000000
00000C
00000C
3C0030
3C0030
0F00C0
0F00C0
000300
000300
000C00
000C00
003000
003000
00C000
00C000
030000
030000
3C0000
3C0000
F00000
F00000
ENDCHAR
STARTCHAR 30B8
ENCODING 12472
SWIDTH 1000 0
DWIDTH 32 0
BBX 24 30 6 -2
BITMAP
000030
000030
00000F
00000F
3C0030
3C0030
0F000F
0F000F
000000
000000
00000C
00000C
3C0030
3C0030
0F00C0
0F00C0
000300
000300
000C00
000C00
003000
003000
00C000
00C000
030000
030000
3C0000
3C0000
F00000
F00000
ENDCHAR
STARTCHAR 30B9
ENCODING 12473
SWIDTH 1000 0
DWIDTH 32 0
BBX 22 20 6 2
BITMAP
3FFFF0
3FFFF0
0000C0
0000C0
000300
000300
000C00
000C00
003000
003000
00CC00
00CC00
030300
030300
0C00C0
0C00C0
300030
300030
C0000C
C0000C
ENDCHAR
STARTCHAR 30BA
ENCODING 12474
SWIDTH 1000 0
DWIDTH 32 0
BBX 24 26 6 2
BITMAP
000030
000030
00000F
00000F
000030
000030
3FFFCF
3FFFCF
0000C0
0000C0
000300
000300
000C00
000C00
003000
003000
00CC00
00CC00
030300
030300
0C00C0
0C00C0
300030
300030
C0000C
C0000C
ENDCHAR
STARTCHAR 30BB
ENCODING 12475
SWIDTH 1000 0
DWIDTH 32 0
BBX 24 22 4 2
BITMAP
00C000
00C000
00C000
00C000
00CFFF
00CFFF
FFF003
FFF003
00C00C
00C00C
00C030
00C030
00C000
00C000
00C000
00C000
00C000
00C000
00C000
00C000
00FFF0
00FFF0
ENDCHAR
STARTCHAR 30BC
ENCODING 12476
SWIDTH 1000 0
DWIDTH 32 0
BBX 26 26 4 2
BITMAP
00000C00
00000C00
000003C0
000003C0
00C00C00
00C00C00
00C003C0
00C003C0
00CFFF00
00CFFF00
FFF00300
FFF00300
00C00C00
00C00C00
00C03000
00C03000
00C00000
00C00000
00C00000
00C00000
00C00000
00C00000
00C00000
00C00000
00FFF000
00FFF000
ENDCHAR
STARTCHAR 30BD
ENCODING 12477
SWIDTH 1000 0
DWIDTH 32 0
BBX 16 26 8 -2
BITMAP
0003
0003
0003
0003
C003
C003
F003
F003
300C
300C
000C
000C
000C
000C
0030
0030
00C0
00C0
0300
0300
0C00
0C00
3000
3000
C000
C000
ENDCHAR
STARTCHAR 30BE
ENCODING 12478
SWIDTH 1000 0
DWIDTH 32 0
BBX 22 30 8 -2
BITMAP
0000C0
0000C0
00003C
00003C
0000C0
0000C0
00033C
00033C
C00300
C00300
F00300
F00300
300C00
300C00
000C00
000C00
000C00
000C00
003000
003000
00C000
00C000
030000
030000
0C0000
0C0000
300000
300000
C00000
C00000
ENDCHAR
STARTCHAR 30BF
ENCODING 12479
SWIDTH 1000 0
DWIDTH 32 0
BBX 18 28 6 -2
BITMAP
030000
030000
030000
030000
0C0000
0C0000
0FFFC0
0FFFC0
0C00C0
0C00C0
300300
300300
C30300
C30300
00CC00
00CC00
003000
003000
00CC00
00CC00
030300
030300
0C0000
0C0000
300000
300000
C00000
C00000
ENDCHAR
STARTCHAR 30C0
ENCODING 12480
SWIDTH 1000 0
DWIDTH 32 0
BBX 24 30 6 -2
BITMAP
000030
000030
03000F
03000F
030030
030030
0C000F
0C000F
0FFFC0
0FFFC0
0C00C0
0C00C0
300300
300300
C30300
C30300
00CC00
00CC00
003000
003000
00CC00
00CC00
030300
030300
0C0000
0C0000
300000
300000
C00000
C00000
ENDCHAR
STARTCHAR 30C1
ENCODING 12481
SWIDTH 1000 0
DWIDTH 32 0
BBX 24 26 4 -2
BITMAP
000FF0
000FF0
0FF000
0FF000
000C00
000C00
000C00
000C00
000C00
000C00
FFFFFF
FFFFFF
000C00
000C00
003000
003000
003000
003000
00C000
00C000
030000
030000
0C0000
0C0000
300000
300000
ENDCHAR
STARTCHAR 30C2
ENCODING 12482
SWIDTH 1000 0
DWIDTH 32 0
BBX 26 30 4 -2
BITMAP
00000C00
00000C00
000003C0
000003C0
000FCC00
000FCC00
0FF003C0
0FF003C0
000C0000
000C0000
000C0000
000C0000
000C0000
000C0000
FFFFFF00
FFFFFF00
000C0000
000C0000
00300000
00300000
00300000
00300000
00C00000
00C00000
03000000
03000000
0C000000
0C000000
30000000
30000000
ENDCHAR
STARTCHAR 30C3
ENCODING 12483
SWIDTH 1000 0
DWIDTH 32 0
BBX 12 18 10 2
BITMAP
0030
0030
CC30
CC30
CC30
CC30
00C0
00C0
00C0
00C0
0300
0300
0C00
0C00
3000
3000
C000
C000
ENDCHAR
STARTCHAR 30C4
ENCODING 12484
SWIDTH 1000 0
DWIDTH 32 0
BBX 20 22 6 0
BITMAP
C0C030
C0C030
F0F030
F0F030
3030C0
3030C0
000300
000300
000C00
000C00
003000
003000
00C000
00C000
030000
030000
0C0000
0C0000
300000
300000
C00000
C00000
ENDCHAR
STARTCHAR 30C5
ENCODING 12485
SWIDTH 1000 0
DWIDTH 32 0
BBX 24 28 6 0
BITMAP
000030
000030
00000F
00000F
000030
000030
C0C03F
C0C03F
F0F030
F0F030
3030C0
3030C0
000300
000300
000C00
000C00
003000
003000
00C000
00C000
030000
030000
0C0000
0C0000
300000
300000
C00000
C00000
ENDCHAR
STARTCHAR 30C6
ENCODING 12486
SWIDTH 1000 0
DWIDTH 32 0
BBX 24 26 4 -2
BITMAP
0FFFF0
0FFFF0
000000
000000
000000
000000
000000
000000
FFFFFF
FFFFFF
000C00
000C00
000C00
000C00
003000
003000
003000
003000
00C000
00C000
030000
030000
0C0000
0C0000
300000
300000
ENDCHAR
STARTCHAR 30C7
ENCODING 12487
SWIDTH 1000 0
DWIDTH 32 0
BBX 26 30 4 -2
BITMAP
00000C00
00000C00
000003C0
000003C0
0FFFCC00
0FFFCC00
000003C0
000003C0
00000000
00000000
00000000
00000000
FFFFFF00
FFFFFF00
000C0000
000C0000
000C0000
000C0000
00300000
00300000
00300000
00300000
00C00000
00C00000
03000000
03000000
0C000000
0C000000
30000000
30000000
ENDCHAR
STARTCHAR 30C8
ENCODING 12488
SWIDTH 1000 0
DWIDTH 32 0
BBX 10 28 12 -2
BITMAP
C000
C000
C000
C000
C000
C000
C000
C000
F000
F000
CC00
CC00
C300
C300
C0C0
C0C0
C000
C000
C000
C000
C000
C000
C000
C000
C000
C000
C000
C000
ENDCHAR
STARTCHAR 30C9
ENCODING 12489
SWIDTH 1000 0
DWIDTH 32 0
BBX 18 30 12 -2
BITMAP
000C00
000C00
C003C0
C003C0
C00C00
C00C00
C003C0
C003C0
C00000
C00000
F00000
F00000
CC0000
CC0000
C30000
C30000
C0C000
C0C000
C00000
C00000
C00000
C00000
C00000
C00000
C00000
C00000
C00000
C00000
C00000
C00000
ENDCHAR
STARTCHAR 30CA
ENCODING 12490
SWIDTH 1000 0
DWIDTH 32 0
BBX 26 26 4 -2
BITMAP
000C0000
000C0000
000C0000
000C0000
000C0000
000C0000
000C0000
000C0000
FFFFFFC0
FFFFFFC0
000C0000
000C0000
000C0000
000C0000
00300000
00300000
00300000
00300000
00C00000
00C00000
03000000
03000000
0C000000
0C000000
30000000
30000000
ENDCHAR
STARTCHAR 30CB
ENCODING 12491
SWIDTH 1000 0
DWIDTH 32 0
BBX 26 16 4 6
BITMAP
0FFFFC00
0FFFFC00
00000000
00000000
00000000
00000000
00000000
00000000
00000000
00000000
00000000
00000000
00000000
00000000
FFFFFFC0
FFFFFFC0
ENDCHAR
STARTCHAR 30CC
ENCODING 12492
SWIDTH 1000 0
DWIDTH 32 0
BBX 20 24 6 -2
BITMAP
3FFFF0
3FFFF0
0000C0
0000C0
0000C0
0000C0
0C0300
0C0300
030300
030300
00CC00
00CC00
003000
003000
00CC00
00CC00
030300
030300
0C0000
0C0000
300000
300000
C00000
C00000
ENDCHAR
STARTCHAR 30CD
ENCODING 12493
SWIDTH 1000 0
DWIDTH 32 0
BBX 22 28 4 -2
BITMAP
00C000
00C000
003000
003000
000C00
000C00
0FFF00
0FFF00
000C00
000C00
003000
003000
00CCC0
00CCC0
030C30
030C30
0C0C0C
0C0C0C
300C00
300C00
C00C00
C00C00
000C00
000C00
000C00
000C00
000C00
000C00
ENDCHAR
STARTCHAR 30CE
ENCODING 12494
SWIDTH 1000 0
DWIDTH 32 0
BBX 18 20 6 4
BITMAP
0000C0
0000C0
0003C0
0003C0
000F00
000F00
000C00
000C00
003000
003000
00C000
00C000
030000
030000
0C0000
0C0000
300000
300000
C00000
C00000
ENDCHAR
STARTCHAR 30CF
ENCODING 12495
SWIDTH 1000 0
DWIDTH 32 0
BBX 24 16 4 6
BITMAP
003000
003000
00F000
00F000
00C0C0
00C0C0
030030
030030
03000C
03000C
0C000C
0C000C
300003
300003
C00000
C00000
ENDCHAR
STARTCHAR 30D0
ENCODING 12496
SWIDTH 1000 0
DWIDTH 32 0
BBX 26 22 4 6
BITMAP
00000C00
00000C00
000003C0
000003C0
00000C00
00000C00
003003C0
003003C0
00F00000
00F00000
00C0C000
00C0C000
03003000
03003000
03000C00
03000C00
0C000C00
0C000C00
30000300
30000300
C0000000
C0000000
ENDCHAR
STARTCHAR 30D1
ENCODING 12497
SWIDTH 1000 0
DWIDTH 32 0
BBX 26 20 4 6
BITMAP
00000300
00000300
00000CC0
00000CC0
00300300
00300300
00F00000
00F00000
00C0C000
00C0C000
03003000
03003000
03000C00
03000C00
0C000C00
0C000C00
30000300
30000300
C0000000
C0000000
ENDCHAR
STARTCHAR 30D2
ENCODING 12498
SWIDTH 1000 0
DWIDTH 32 0
BBX 12 22 12 2
BITMAP
C000
C000
C000
C000
C0F0
C0F0
CF00
CF00
F000
F000
C000
C000
C000
C000
C000
C000
C000
C000
C000
C000
3FF0
3FF0
ENDCHAR
STARTCHAR 30D3
ENCODING 12499
SWIDTH 1000 0
DWIDTH 32 0
BBX 18 26 12 2
BITMAP
000C00
000C00
0003C0
0003C0
C00C00
C00C00
C003C0
C003C0
C0F000
C0F000
CF0000
CF0000
F00000
F00000
C00000
C00000
C00000
C00000
C00000
C00000
C00000
C00000
C00000
C00000
3FF000
3FF000
ENDCHAR
STARTCHAR 30D4
ENCODING 12500
SWIDTH 1000 0
DWIDTH 32 0
BBX 18 24 12 2
BITMAP
000300
000300
C00CC0
C00CC0
C00300
C00300
C0F000
C0F000
CF0000
CF0000
F00000
F00000
C00000
C00000
C00000
C00000
C00000
C00000
C00000
C00000
C00000
C00000
3FF000
3FF000
ENDCHAR
STARTCHAR 30D5
ENCODING 12501
SWIDTH 1000 0
DWIDTH 32 0
BBX 20 22 6 0
BITMAP
FFFFF0
FFFFF0
000030
000030
0000C0
0000C0
000300
000300
000C00
000C00
003000
003000
00C000
00C000
030000
030000
0C0000
0C0000
300000
300000
C00000
C00000
ENDCHAR
STARTCHAR 30D6
ENCODING 12502
SWIDTH 1000 0
DWIDTH 32 0
BBX 24 28 6 0
BITMAP
000030
000030
00000F
00000F
000030
000030
FFFFCF
FFFFCF
000030
000030
0000C0
0000C0
000300
000300
000C00
000C00
003000
003000
00C000
00C000
030000
030000
0C0000
0C0000
300000
300000
C00000
C00000
ENDCHAR
STARTCHAR 30D7
ENCODING 12503
SWIDTH 1000 0
DWIDTH 32 0
BBX 24 26 6 0
BITMAP
000003
000003
00000C
00000C
FFFFF3
FFFFF3
000030
000030
0000C0
0000C0
000300
000300
000C00
000C00
003000
003000
00C000
00C000
030000
030000
0C0000
0C0000
300000
300000
C00000
C00000
ENDCHAR
STARTCHAR 30D8
ENCODING 12504
SWIDTH 1000 0
DWIDTH 32 0
BBX 22 16 6 2
BITMAP
030000
030000
0CC000
0CC000
303000
303000
C00C00
C00C00
000300
000300
0000C0
0000C0
000030
000030
00000C
00000C
ENDCHAR
STARTCHAR 30D9
ENCODING 12505
SWIDTH 1000 0
DWIDTH 32 0
BBX 24 26 6 2
BITMAP
000030
000030
00000F
00000F
000030
000030
00000F
00000F
000000
000000
030000
030000
0CC000
0CC000
303000
303000
C00C00
C00C00
000300
000300
0000C0
0000C0
000030
000030
00000C
00000C
ENDCHAR
STARTCHAR 30DA
ENCODING 12506
SWIDTH 1000 0
DWIDTH 32 0
BBX 22 24 6 2
BITMAP
00000C
00000C
000030
000030
00000C
00000C
000000
000000
030000
030000
0CC000
0CC000
303000
303000
C00C00
C00C00
000300
000300
0000C0
0000C0
000030
000030
00000C
00000C
ENDCHAR
STARTCHAR 30DB
ENCODING 12507
SWIDTH 1000 0
DWIDTH 32 0
BBX 26 24 4 0
BITMAP
000C0000
000C0000
000C0000
000C0000
FFFFFFC0
FFFFFFC0
003F0000
003F0000
00CCC000
00CCC000
030C3000
030C3000
0C0C0C00
0C0C0C00
300C0300
300C0300
C00C00C0
C00C00C0
00CC0000
00CC0000
003C0000
003C0000
000C0000
000C0000
ENDCHAR
STARTCHAR 30DC
ENCODING 12508
SWIDTH 1000 0
DWIDTH 32 0
BBX 26 28 4 0
BITMAP
00000C00
00000C00
000003C0
000003C0
000C0C00
000C0C00
000C03C0
000C03C0
000C0000
000C0000
FFFFFFC0
FFFFFFC0
00CCC000
00CCC000
030C3000
030C3000
0C0C0C00
0C0C0C00
300C0300
300C0300
C00C00C0
C00C00C0
00CC0000
00CC0000
003C0000
003C0000
000C0000
000C0000
ENDCHAR
STARTCHAR 30DD
ENCODING 12509
SWIDTH 1000 0
DWIDTH 32 0
BBX 28 26 4 0
BITMAP
000000C0
000000C0
000C0330
000C0330
000C00C0
000C00C0
000C0000
000C0000
FFFFFFC0
FFFFFFC0
00CCC000
00CCC000
030C3000
030C3000
0C0C0C00
0C0C0C00
300C0300
300C0300
C00C00C0
C00C00C0
00CC0000
00CC0000
003C0000
003C0000
000C0000
000C0000
ENDCHAR
STARTCHAR 30DE
ENCODING 12510
SWIDTH 1000 0
DWIDTH 32 0
BBX 22 18 6 2
BITMAP
FFFFFC
FFFFFC
000030
000030
0000C0
0000C0
000300
000300
000C00
000C00
033000
033000
00C000
00C000
003000
003000
000C00
000C00
ENDCHAR
STARTCHAR 30DF
ENCODING 12511
SWIDTH 1000 0
DWIDTH 32 0
BBX 20 22 6 2
BITMAP
3F0000
3F0000
00FF00
00FF00
000000
000000
000000
000000
3F0000
3F0000
00FF00
00FF00
000000
000000
C00000
C00000
3F0000
3F0000
00FF00
00FF00
0000F0
0000F0
ENDCHAR
STARTCHAR 30E0
ENCODING 12512
SWIDTH 1000 0
DWIDTH 32 0
BBX 24 22 6 2
BITMAP
000C00
000C00
003C00
003C00
003000
003000
00C000
00C000
00C000
00C000
030000
030000
030000
030000
0C00C0
0C00C0
300030
300030
FFFFCC
FFFFCC
000003
000003
ENDCHAR
STARTCHAR 30E1
ENCODING 12513
SWIDTH 1000 0
DWIDTH 32 0
BBX 20 24 6 0
BITMAP
000030
000030
0000F0
0000F0
0000C0
0000C0
0C0300
0C0300
030300
030300
00FC00
00FC00
003000
003000
00CC00
00CC00
030300
030300
0C0000
0C0000
300000
300000
C00000
C00000
ENDCHAR
STARTCHAR 30E2
ENCODING 12514
SWIDTH 1000 0
DWIDTH 32 0
BBX 24 20 4 2
BITMAP
03FFF0
03FFF0
000C00
000C00
000C00
000C00
000C00
000C00
000C00
000C00
FFFFFF
FFFFFF
000C00
000C00
000C00
000C00
000C00
000C00
000FFC
000FFC
ENDCHAR
STARTCHAR 30E3
ENCODING 12515
SWIDTH 1000 0
DWIDTH 32 0
BBX 18 20 8 2
BITMAP
0C0000
0C0000
0C0000
0C0000
FFFFC0
FFFFC0
0300C0
0300C0
030300
030300
00C000
00C000
00C000
00C000
003000
003000
003000
003000
003000
003000
ENDCHAR
STARTCHAR 30E4
ENCODING 12516
SWIDTH 1000 0
DWIDTH 32 0
BBX 22 24 6 0
BITMAP
0C0000
0C0000
0C0000
0C0000
FFFFFC
FFFFFC
030030
030030
0300C0
0300C0
030000
030000
00C000
00C000
00C000
00C000
00C000
00C000
003000
003000
003000
003000
003000
003000
ENDCHAR
STARTCHAR 30E5
ENCODING 12517
SWIDTH 1000 0
DWIDTH 32 0
BBX 20 12 6 8
BITMAP
0FFF00
0FFF00
000300
000300
000300
000300
000300
000300
000300
000300
FFFFF0
FFFFF0
ENDCHAR
STARTCHAR 30E6
ENCODING 12518
SWIDTH 1000 0
DWIDTH 32 0
BBX 26 14 4 6
BITMAP
3FFFF000
3FFFF000
00003000
00003000
00003000
00003000
00003000
00003000
0000C000
0000C000
00000000
00000000
FFFFFFC0
FFFFFFC0
ENDCHAR
STARTCHAR 30E7
ENCODING 12519
SWIDTH 1000 0
DWIDTH 32 0
BBX 14 18 10 4
BITMAP
FFFC
FFFC
000C
000C
000C
000C
000C
000C
FFFC
FFFC
000C
000C
000C
000C
000C
000C
FFFC
FFFC
ENDCHAR
STARTCHAR 30E8
ENCODING 12520
SWIDTH 1000 0
DWIDTH 32 0
BBX 22 24 6 0
BITMAP
FFFFFC
FFFFFC
00000C
00000C
00000C
00000C
00000C
00000C
00000C
00000C
FFFFFC
FFFFFC
00000C
00000C
00000C
00000C
00000C
00000C
00000C
00000C
00000C
00000C
FFFFFC
FFFFFC
ENDCHAR
STARTCHAR 30E9
ENCODING 12521
SWIDTH 1000 0
DWIDTH 32 0
BBX 22 26 6 -2
BITMAP
0FFFC0
0FFFC0
000000
000000
000000
000000
FFFFFC
FFFFFC
000030
000030
0000C0
0000C0
000300
000300
000C00
000C00
003000
003000
00C000
00C000
030000
030000
0C0000
0C0000
300000
300000
ENDCHAR
STARTCHAR 30EA
ENCODING 12522
SWIDTH 1000 0
DWIDTH 32 0
BBX 10 28 10 -2
BITMAP
00C0
00C0
00C0
00C0
C0C0
C0C0
C0C0
C0C0
C0C0
C0C0
C0C0
C0C0
C0C0
C0C0
C0C0
C0C0
C0C0
C0C0
00C0
00C0
0300
0300
0C00
0C00
3000
3000
C000
C000
ENDCHAR
STARTCHAR 30EB
ENCODING 12523
SWIDTH 1000 0
DWIDTH 32 0
BBX 24 28 4 -2
BITMAP
000300
000300
030300
030300
030300
030300
030300
030300
030300
030300
030300
030300
030300
030300
030300
030300
030300
030300
0C0303
0C0303
0C030C
0C030C
300330
300330
3003C0
3003C0
C00300
C00300
ENDCHAR
STARTCHAR 30EC
ENCODING 12524
SWIDTH 1000 0
DWIDTH 32 0
BBX 20 24 8 0
BITMAP
300000
300000
300000
300000
300000
300000
300030
300030
3000C0
3000C0
300300
300300
300C00
300C00
303000
303000
30C000
30C000
330000
330000
3C0000
3C0000
F00000
F00000
ENDCHAR
STARTCHAR 30ED
ENCODING 12525
SWIDTH 1000 0
DWIDTH 32 0
BBX 20 20 8 2
BITMAP
FFFFF0
FFFFF0
C00030
C00030
C00030
C00030
C00030
C00030
C00030
C00030
C00030
C00030
C00030
C00030
C00030
C00030
C00030
C00030
FFFFF0
FFFFF0
ENDCHAR
STARTCHAR 30EE
ENCODING 12526
SWIDTH 1000 0
DWIDTH 32 0
BBX 18 18 8 2
BITMAP
FFFFC0
FFFFC0
C000C0
C000C0
C000C0
C000C0
000300
000300
000300
000300
000C00
000C00
003000
003000
00C000
00C000
030000
030000
ENDCHAR
STARTCHAR 30EF
ENCODING 12527
SWIDTH 1000 0
DWIDTH 32 0
BBX 22 24 8 -2
BITMAP
FFFFFC
FFFFFC
C0000C
C0000C
C00030
C00030
000030
000030
0000C0
0000C0
0000C0
0000C0
000300
000300
000300
000300
000C00
000C00
003000
003000
00C000
00C000
030000
030000
ENDCHAR
STARTCHAR 30F0
ENCODING 12528
SWIDTH 1000 0
DWIDTH 32 0
BBX 26 26 4 0
BITMAP
000C0000
000C0000
000C0000
000C0000
000C0000
000C0000
0FFFF000
0FFFF000
0C0C0000
0C0C0000
0C0C0000
0C0C0000
0C0C0000
0C0C0000
0C0C0000
0C0C0000
FFFFFFC0
FFFFFFC0
000C0000
000C0000
000C0000
000C0000
000C0000
000C0000
000C0000
000C0000
ENDCHAR
STARTCHAR 30F1
ENCODING 12529
SWIDTH 1000 0
DWIDTH 32 0
BBX 26 18 4 4
BITMAP
0FFFFC00
0FFFFC00
00003000
00003000
0000C000
0000C000
000F0000
000F0000
000C0000
000C0000
000C0000
000C0000
000C0000
000C0000
000C0000
000C0000
FFFFFFC0
FFFFFFC0
ENDCHAR
STARTCHAR 30F2
ENCODING 12530
SWIDTH 1000 0
DWIDTH 32 0
BBX 20 24 6 0
BITMAP
FFFFF0
FFFFF0
000030
000030
FFFFF0
FFFFF0
0000C0
0000C0
000300
000300
000C00
000C00
003000
003000
00C000
00C000
030000
030000
0C0000
0C0000
300000
300000
C00000
C00000
ENDCHAR
STARTCHAR 30F3
ENCODING 12531
SWIDTH 1000 0
DWIDTH 32 0
BBX 22 24 6 -2
BITMAP
3C0000
3C0000
0F0000
0F0000
00000C
00000C
000030
000030
0000C0
0000C0
000300
000300
000C00
000C00
003000
003000
00C000
00C000
030000
030000
3C0000
3C0000
F00000
F00000
ENDCHAR
STARTCHAR 30F4
ENCODING 12532
SWIDTH 1000 0
DWIDTH 32 0
BBX 24 30 8 -2
BITMAP
000030
000030
00000F
00000F
003030
003030
00300F
00300F
FFFFFC
FFFFFC
C00030
C00030
000030
000030
0000C0
0000C0
0000C0
0000C0
000300
000300
000300
000300
000C00
000C00
003000
003000
00C000
00C000
030000
030000
ENDCHAR
STARTCHAR 30F5
ENCODING 12533
SWIDTH 1000 0
DWIDTH 32 0
BBX 16 20 10 4
BITMAP
0300
0300
0300
0300
FFFF
FFFF
0303
0303
0303
0303
0303
0303
0C03
0C03
0C03
0C03
3033
3033
C00C
C00C
ENDCHAR
STARTCHAR 30F6
ENCODING 12534
SWIDTH 1000 0
DWIDTH 32 0
BBX 16 20 8 2
BITMAP
0300
0300
0C00
0C00
0FFF
0FFF
3030
3030
C030
C030
00C0
00C0
00C0
00C0
0300
0300
0C00
0C00
3000
3000
ENDCHAR
STARTCHAR 30FB
ENCODING 12539
SWIDTH 1000 0
DWIDTH 32 0
BBX 8 8 12 8
BITMAP
3C
3C
FF
FF
FF
FF
3C
3C
ENDCHAR
STARTCHAR 3105
ENCODING 12549
SWIDTH 1000 0
DWIDTH 32 0
BBX 24 30 4 -4
BITMAP
030000
030000
0F0000
0F0000
3C0000
3C0000
FFFFFF
FFFFFF
00003F
00003F
00000F
00000F
00000F
00000F
00000F
00000F
00000F
00000F
00000F
00000F
00000F
00000F
00000C
00000C
003C3C
003C3C
000FF0
000FF0
0003C0
0003C0
ENDCHAR
STARTCHAR 3106
ENCODING 12550
SWIDTH 1000 0
DWIDTH 32 0
BBX 24 28 4 -2
BITMAP
00C000
00C000
03C000
03C000
0F0000
0F0000
3FFFFF
3FFFFF
00000F
00000F
00000F
00000F
00003C
00003C
003C3C
003C3C
000FF0
000FF0
0003C0
0003C0
000FF0
000FF0
003C3C
003C3C
03C00C
03C00C
FC0000
FC0000
ENDCHAR
STARTCHAR 3107
ENCODING 12551
SWIDTH 1000 0
DWIDTH 32 0
BBX 24 16 4 4
BITMAP
FFFFFF
FFFFFF
F0000F
F0000F
F0000F
F0000F
F0000F
F0000F
F0000F
F0000F
F0000F
F0000F
F0000F
F0000F
F0000F
F0000F
ENDCHAR
STARTCHAR 3108
ENCODING 12552
SWIDTH 1000 0
DWIDTH 32 0
BBX 24 24 4 0
BITMAP
FFFFFC
FFFFFC
3C0000
3C0000
3C0000
3C0000
3C0000
3C0000
3C0000
3C0000
3C0000
3C0000
3C0000
3C0000
3C0000
3C0000
3C0000
3C0000
3C0000
3C0000
3C0000
3C0000
0FFFFF
0FFFFF
ENDCHAR
STARTCHAR 3109
ENCODING 12553
SWIDTH 1000 0
DWIDTH 32 0
BBX 24 30 4 -4
BITMAP
00C000
00C000
03C000
03C000
0F0000
0F0000
3FFFFF
3FFFFF
003C0F
003C0F
003C0F
003C0F
003C0F
003C0F
003C0F
003C0F
00F00F
00F00F
00F00F
00F00F
03C00F
03C00F
03000C
03000C
0C3C3C
0C3C3C
F00FF0
F00FF0
0003C0
0003C0
ENDCHAR
STARTCHAR 310A
ENCODING 12554
SWIDTH 1000 0
DWIDTH 32 0
BBX 28 26 2 0
BITMAP
000C0000
000C0000
000F0000
000F0000
000F0000
000F0000
000F0000
000F0000
FFFFFFF0
FFFFFFF0
000F0000
000F0000
000F0000
000F0000
000C0000
000C0000
003C0000
003C0000
00F00000
00F00000
03C00C00
03C00C00
0FFFFF00
0FFFFF00
000003C0
000003C0
ENDCHAR
STARTCHAR 310B
ENCODING 12555
SWIDTH 1000 0
DWIDTH 32 0
BBX 24 28 4 -4
BITMAP
FFFFC0
FFFFC0
0003C0
0003C0
000F00
000F00
003C00
003C00
00FFFF
00FFFF
00000F
00000F
00000F
00000F
00000F
00000F
00000F
00000F
00000F
00000F
00000C
00000C
003C3C
003C3C
000FF0
000FF0
0003C0
0003C0
ENDCHAR
STARTCHAR 310C
ENCODING 12556
SWIDTH 1000 0
DWIDTH 32 0
BBX 24 30 4 -4
BITMAP
003000
003000
0C3C00
0C3C00
0C3C00
0C3C00
3C3C00
3C3C00
3FFFFF
3FFFFF
003C0F
003C0F
003C0F
003C0F
003C0F
003C0F
003C0F
003C0F
00F00F
00F00F
00F00F
00F00F
03C00F
03C00F
0F000C
0F000C
3C033C
3C033C
F000F0
F000F0
ENDCHAR
STARTCHAR 310D
ENCODING 12557
SWIDTH 1000 0
DWIDTH 32 0
BBX 18 26 6 -2
BITMAP
03C3C0
03C3C0
030300
030300
0F0F00
0F0F00
0C0C00
0C0C00
3C3C00
3C3C00
303000
303000
F0F000
F0F000
303000
303000
3C3C00
3C3C00
0C0C00
0C0C00
0F0F00
0F0F00
030300
030300
03C3C0
03C3C0
ENDCHAR
STARTCHAR 310E
ENCODING 12558
SWIDTH 1000 0
DWIDTH 32 0
BBX 26 28 2 -4
BITMAP
FFFFFFC0
FFFFFFC0
003C0000
003C0000
003C0000
003C0000
00F00000
00F00000
03C00000
03C00000
0FFFFF00
0FFFFF00
00000F00
00000F00
00000F00
00000F00
00000F00
00000F00
00000F00
00000F00
00000F00
00000F00
00000C00
00000C00
00033C00
00033C00
0000F000
0000F000
ENDCHAR
STARTCHAR 310F
ENCODING 12559
SWIDTH 1000 0
DWIDTH 32 0
BBX 28 26 0 -2
BITMAP
0FFFFFF0
0FFFFFF0
03C00000
03C00000
03C00000
03C00000
03C00000
03C00000
03C00000
03C00000
03C00000
03C00000
03C00000
03C00000
03C00000
03C00000
03C00000
03C00000
03000000
03000000
03000000
03000000
0C000000
0C000000
F0000000
F0000000
ENDCHAR
STARTCHAR 3110
ENCODING 12560
SWIDTH 1000 0
DWIDTH 32 0
BBX 16 30 8 -4
BITMAP
000C
000C
300F
300F
3C0F
3C0F
3C0F
3C0F
3C0F
3C0F
3C0F
3C0F
300F
300F
F03F
F03F
F0CF
F0CF
FF0F
FF0F
000F
000F
000F
000F
000F
000F
000F
000F
000F
000F
ENDCHAR
STARTCHAR 3111
ENCODING 12561
SWIDTH 1000 0
DWIDTH 32 0
BBX 12 28 10 -2
BITMAP
03C0
03C0
03C0
03C0
0300
0300
0F00
0F00
0C00
0C00
3C00
3C00
F000
F000
3C00
3C00
0C00
0C00
0F00
0F00
0300
0300
03C0
03C0
00F0
00F0
00F0
00F0
ENDCHAR
STARTCHAR 3112
ENCODING 12562
SWIDTH 1000 0
DWIDTH 32 0
BBX 28 26 2 -2
BITMAP
FFFFFFF0
FFFFFFF0
000F0000
000F0000
000F0000
000F0000
000F0000
000F0000
000F0000
000F0000
000F0000
000F0000
000F0000
000F0000
000F0000
000F0000
000F0000
000F0000
000F0000
000F0000
000F0000
000F0000
000F0000
000F0000
000F0000
000F0000
ENDCHAR
STARTCHAR 3113
ENCODING 12563
SWIDTH 1000 0
DWIDTH 32 0
BBX 28 26 2 0
BITMAP
000C0000
000C0000
000F0000
000F0000
0C0F0C00
0C0F0C00
0F0F0F00
0F0F0F00
0F0F0F00
0F0F0F00
0F0F0F00
0F0F0F00
0F0F0F00
0F0F0F00
0F0F0F00
0F0F0F00
0FFFFF00
0FFFFF00
000F0000
000F0000
000F0000
000F0000
000F0000
000F0000
FFFFFFF0
FFFFFFF0
ENDCHAR
STARTCHAR 3114
ENCODING 12564
SWIDTH 1000 0
DWIDTH 32 0
BBX 16 30 6 -4
BITMAP
000F
000F
003C
003C
00F0
00F0
03C0
03C0
0F0F
0F0F
3C3C
3C3C
F0F0
F0F0
03F0
03F0
0FF0
0FF0
3CF0
3CF0
F0F0
F0F0
00F0
00F0
00F0
00F0
00F0
00F0
00F0
00F0
ENDCHAR
STARTCHAR 3115
ENCODING 12565
SWIDTH 1000 0
DWIDTH 32 0
BBX 28 28 0 -4
BITMAP
03FFFFF0
03FFFFF0
000000F0
000000F0
000000F0
000000F0
000000F0
000000F0
03FFFFF0
03FFFFF0
03C00000
03C00000
03C00000
03C00000
03C00000
03C00000
03C00000
03C00000
03C00000
03C00000
03000000
03000000
0F000000
0F000000
0C000000
0C000000
F0000000
F0000000
ENDCHAR
STARTCHAR 3116
ENCODING 12566
SWIDTH 1000 0
DWIDTH 32 0
BBX 16 24 8 0
BITMAP
FFFF
FFFF
F00F
F00F
F00F
F00F
F00F
F00F
FF0F
FF0F
F3CF
F3CF
F0FF
F0FF
F00F
F00F
F00F
F00F
F00F
F00F
F00F
F00F
FFFF
FFFF
ENDCHAR
STARTCHAR 3117
ENCODING 12567
SWIDTH 1000 0
DWIDTH 32 0
BBX 22 28 4 -4
BITMAP
FFFFFC
FFFFFC
03C03C
03C03C
03C03C
03C03C
03C03C
03C03C
03C03C
03C03C
03C03C
03C03C
03C030
03C030
03CCF0
03CCF0
03C3C0
03C3C0
03C000
03C000
03C000
03C000
03C000
03C000
03C000
03C000
03C000
03C000
ENDCHAR
STARTCHAR 3118
ENCODING 12568
SWIDTH 1000 0
DWIDTH 32 0
BBX 26 30 2 -4
BITMAP
00300000
00300000
003C0000
003C0000
003C0000
003C0000
FFFFFFC0
FFFFFFC0
00F00000
00F00000
00F00000
00F00000
00F00000
00F00000
03FFFF00
03FFFF00
00000F00
00000F00
00000F00
00000F00
00000C00
00000C00
00003C00
00003C00
00003000
00003000
003CC000
003CC000
000F0000
000F0000
ENDCHAR
STARTCHAR 3119
ENCODING 12569
SWIDTH 1000 0
DWIDTH 32 0
BBX 24 26 4 0
BITMAP
003000
003000
003C00
003C00
003C00
003C00
003C00
003C00
003C00
003C00
003000
003000
00F000
00F000
00C000
00C000
03C000
03C000
0F03C0
0F03C0
3C00F0
3C00F0
FFFFFC
FFFFFC
00000F
00000F
ENDCHAR
STARTCHAR 311A
ENCODING 12570
SWIDTH 1000 0
DWIDTH 32 0
BBX 22 30 6 -4
BITMAP
F0003C
F0003C
3C00F0
3C00F0
0F03C0
0F03C0
03CF00
03CF00
003C00
003C00
00F000
00F000
00F000
00F000
00F000
00F000
00F000
00F000
00F000
00F000
00F000
00F000
00F000
00F000
00F000
00F000
00F000
00F000
00F000
00F000
ENDCHAR
STARTCHAR 311B
ENCODING 12571
SWIDTH 1000 0
DWIDTH 32 0
BBX 28 24 2 0
BITMAP
FFFFFFF0
FFFFFFF0
000F0000
000F0000
000F0000
000F0000
000F0000
000F0000
03FC0000
03FC0000
0F000000
0F000000
3C000000
3C000000
3C000000
3C000000
3C000000
3C000000
3C0003C0
3C0003C0
0F000F00
0F000F00
03FFFC00
03FFFC00
ENDCHAR
STARTCHAR 311C
ENCODING 12572
SWIDTH 1000 0
DWIDTH 32 0
BBX 28 28 2 -2
BITMAP
000C0000
000C0000
000F0000
000F0000
000F0000
000F0000
FFFFFFF0
FFFFFFF0
000F0000
000F0000
000F0000
000F0000
03FC0000
03FC0000
0F000000
0F000000
3C000000
3C000000
3C000000
3C000000
3C000000
3C000000
3C0003C0
3C0003C0
0F000F00
0F000F00
03FFFC00
03FFFC00
ENDCHAR
STARTCHAR 311D
ENCODING 12573
SWIDTH 1000 0
DWIDTH 32 0
BBX 26 24 2 0
BITMAP
0300C000
0300C000
03C0F000
03C0F000
03C0F000
03C0F000
FFFFFFC0
FFFFFFC0
03C0F000
03C0F000
03C0F000
03C0F000
03C0F000
03C0F000
03C3C000
03C3C000
03C3C000
03C3C000
03CF0000
03CF0000
03C00000
03C00000
00FFFC00
00FFFC00
ENDCHAR
STARTCHAR 311E
ENCODING 12574
SWIDTH 1000 0
DWIDTH 32 0
BBX 28 26 2 -2
BITMAP
FFFFFFF0
FFFFFFF0
03CF0000
03CF0000
03CF0000
03CF0000
0F0F0000
0F0F0000
0FFFFFC0
0FFFFFC0
000F03C0
000F03C0
000F03C0
000F03C0
000F03C0
000F03C0
000C03C0
000C03C0
003C03C0
003C03C0
00F00300
00F00300
03C00F00
03C00F00
0F003C00
0F003C00
ENDCHAR
STARTCHAR 311F
ENCODING 12575
SWIDTH 1000 0
DWIDTH 32 0
BBX 24 26 4 -2
BITMAP
FFC000
FFC000
03C000
03C000
03C000
03C000
03C000
03C000
00C000
00C000
00F000
00F000
00F000
00F000
003000
003000
003C00
003C00
000F00
000F00
0003C0
0003C0
0000F0
0000F0
00003F
00003F
ENDCHAR
STARTCHAR 3120
ENCODING 12576
SWIDTH 1000 0
DWIDTH 32 0
BBX 20 26 6 0
BITMAP
030000
030000
03C000
03C000
0F0300
0F0300
0F03C0
0F03C0
3C0300
3C0300
300F00
300F00
FFFC00
FFFC00
00F000
00F000
03C000
03C000
0F0F00
0F0F00
3C03C0
3C03C0
FFFFF0
FFFFF0
000030
000030
ENDCHAR
STARTCHAR 3121
ENCODING 12577
SWIDTH 1000 0
DWIDTH 32 0
BBX 20 24 6 -2
BITMAP
FFFFF0
FFFFF0
0000F0
0000F0
0003C0
0003C0
0C03C0
0C03C0
030F00
030F00
00FF00
00FF00
003C00
003C00
003C00
003C00
00FF00
00FF00
03C3C0
03C3C0
0F0000
0F0000
3C0000
3C0000
ENDCHAR
STARTCHAR 3122
ENCODING 12578
SWIDTH 1000 0
DWIDTH 32 0
BBX 24 28 4 -2
BITMAP
FFFFF0
FFFFF0
0F00F0
0F00F0
0F00F0
0F00F0
0F00F0
0F00F0
0C00C0
0C00C0
3C03C0
3C03C0
3FFFFF
3FFFFF
00000F
00000F
00000F
00000F
00000F
00000F
00000C
00000C
00003C
00003C
0000F0
0000F0
0003C0
0003C0
ENDCHAR
STARTCHAR 3123
ENCODING 12579
SWIDTH 1000 0
DWIDTH 32 0
BBX 22 28 6 -2
BITMAP
300000
300000
3C0000
3C0000
3C0000
3C0000
3C0000
3C0000
300000
300000
F00000
F00000
F00000
F00000
FFFFFC
FFFFFC
00003C
00003C
00003C
00003C
00003C
00003C
000030
000030
0000F0
0000F0
0003C0
0003C0
ENDCHAR
STARTCHAR 3124
ENCODING 12580
SWIDTH 1000 0
DWIDTH 32 0
BBX 26 28 2 -2
BITMAP
00300000
00300000
003C0000
003C0000
003C0000
003C0000
003C0000
003C0000
FFFFFFC0
FFFFFFC0
003FC000
003FC000
0033C000
0033C000
00F3C000
00F3C000
00F3C000
00F3C000
00C3C000
00C3C000
03C3C000
03C3C000
03C3C000
03C3C000
0F03C000
0F03C000
FC00FFC0
FC00FFC0
ENDCHAR
STARTCHAR 3125
ENCODING 12581
SWIDTH 1000 0
DWIDTH 32 0
BBX 22 22 4 2
BITMAP
003000
003000
003000
003000
003000
003000
00F000
00F000
00F000
00F000
00C000
00C000
03C000
03C000
0F0000
0F0000
3C0000
3C0000
F00000
F00000
FFFFFC
FFFFFC
ENDCHAR
STARTCHAR 3126
ENCODING 12582
SWIDTH 1000 0
DWIDTH 32 0
BBX 28 26 2 -2
BITMAP
00C30000
00C30000
00F3C000
00F3C000
00F3C000
00F3C000
00F3C000
00F3C000
00F3C000
00F3C000
00F3C000
00F3C000
00F3C000
00F3C000
00F3C000
00F3C000
00F3C000
00F3C000
00C3C000
00C3C000
03C3C0C0
03C3C0C0
0F03C0F0
0F03C0F0
FC00FFF0
FC00FFF0
ENDCHAR
STARTCHAR 3127
ENCODING 12583
SWIDTH 1000 0
DWIDTH 32 0
BBX 4 30 14 -4
BITMAP
C0
C0
F0
F0
F0
F0
F0
F0
F0
F0
F0
F0
F0
F0
F0
F0
F0
F0
F0
F0
F0
F0
F0
F0
F0
F0
F0
F0
F0
F0
ENDCHAR
STARTCHAR 3128
ENCODING 12584
SWIDTH 1000 0
DWIDTH 32 0
BBX 24 28 2 -2
BITMAP
00000C
00000C
00000F
00000F
00000F
00000F
03C00C
03C00C
00F03C
00F03C
003C30
003C30
000FF0
000FF0
0003C0
0003C0
0003C0
0003C0
000FF0
000FF0
003C3C
003C3C
00F00F
00F00F
03C000
03C000
FC0000
FC0000
ENDCHAR
STARTCHAR 3129
ENCODING 12585
SWIDTH 1000 0
DWIDTH 32 0
BBX 24 20 4 2
BITMAP
00000C
00000C
30000F
30000F
3C000F
3C000F
3C000F
3C000F
3C000F
3C000F
3C000F
3C000F
F0000F
F0000F
F000FF
F000FF
FFFF0F
FFFF0F
00000F
00000F
ENDCHAR
STARTCHAR 3220
ENCODING 12832
SWIDTH 1000 0
DWIDTH 32 0
BBX 26 28 4 -2
BITMAP
0C000C00
0C000C00
30000300
30000300
30000300
30000300
C00000C0
C00000C0
C00000C0
C00000C0
C00030C0
C00030C0
CFFFFCC0
CFFFFCC0
C00000C0
C00000C0
C00000C0
C00000C0
C00000C0
C00000C0
C00000C0
C00000C0
30000300
30000300
30000300
30000300
0C000C00
0C000C00
ENDCHAR
STARTCHAR 3221
ENCODING 12833
SWIDTH 1000 0
DWIDTH 32 0
BBX 26 28 4 -2
BITMAP
0C000C00
0C000C00
30000300
30000300
3000C300
3000C300
C3FFF0C0
C3FFF0C0
C00000C0
C00000C0
C00000C0
C00000C0
C00000C0
C00000C0
C00000C0
C00000C0
C00000C0
C00000C0
C00030C0
C00030C0
CFFFFCC0
CFFFFCC0
30000300
30000300
30000300
30000300
0C000C00
0C000C00
ENDCHAR
STARTCHAR 3222
ENCODING 12834
SWIDTH 1000 0
DWIDTH 32 0
BBX 26 28 4 -2
BITMAP
0C000C00
0C000C00
3000C300
3000C300
33FFF300
33FFF300
C00000C0
C00000C0
C00000C0
C00000C0
C00300C0
C00300C0
C0FFC0C0
C0FFC0C0
C00000C0
C00000C0
C00000C0
C00000C0
C00030C0
C00030C0
CFFFFCC0
CFFFFCC0
30000300
30000300
30000300
30000300
0C000C00
0C000C00
ENDCHAR
STARTCHAR 3223
ENCODING 12835
SWIDTH 1000 0
DWIDTH 32 0
BBX 26 28 4 -2
BITMAP
0C000C00
0C000C00
30000300
30000300
3C000F00
3C000F00
CFFFFFC0
CFFFFFC0
CC330CC0
CC330CC0
CC330CC0
CC330CC0
CC330CC0
CC330CC0
CCF30CC0
CCF30CC0
CF03FCC0
CF03FCC0
CC000CC0
CC000CC0
CFFFFCC0
CFFFFCC0
3C000F00
3C000F00
30000300
30000300
0C000C00
0C000C00
ENDCHAR
STARTCHAR 3224
ENCODING 12836
SWIDTH 1000 0
DWIDTH 32 0
BBX 26 28 4 -2
BITMAP
0C000C00
0C000C00
3000C300
3000C300
33FFF300
33FFF300
C03000C0
C03000C0
C030C0C0
C030C0C0
C3FFF0C0
C3FFF0C0
C030C0C0
C030C0C0
C030C0C0
C030C0C0
C030C0C0
C030C0C0
C030CCC0
C030CCC0
CFFFFCC0
CFFFFCC0
30000300
30000300
30000300
30000300
0C000C00
0C000C00
ENDCHAR
STARTCHAR 3225
ENCODING 12837
SWIDTH 1000 0
DWIDTH 32 0
BBX 26 28 4 -2
BITMAP
0C300C00
0C300C00
303C0300
303C0300
300C3300
300C3300
CFFFFCC0
CFFFFCC0
C00000C0
C00000C0
C00300C0
C00300C0
C0C300C0
C0C300C0
C0C3C0C0
C0C3C0C0
C0C0C0C0
C0C0C0C0
C0C0C0C0
C0C0C0C0
C30030C0
C30030C0
33003300
33003300
30000300
30000300
0C000C00
0C000C00
ENDCHAR
STARTCHAR 3226
ENCODING 12838
SWIDTH 1000 0
DWIDTH 32 0
BBX 26 28 4 -2
BITMAP
0C000C00
0C000C00
30300300
30300300
30300300
30300300
C03000C0
C03000C0
C030FCC0
C030FCC0
C0FFC0C0
C0FFC0C0
CF3000C0
CF3000C0
C03000C0
C03000C0
C03000C0
C03000C0
C03000C0
C03000C0
C03C0CC0
C03C0CC0
300FF300
300FF300
30000300
30000300
0C000C00
0C000C00
ENDCHAR
STARTCHAR 3227
ENCODING 12839
SWIDTH 1000 0
DWIDTH 32 0
BBX 26 28 4 -2
BITMAP
0C0C0C00
0C0C0C00
30030300
30030300
30C30300
30C30300
C0C300C0
C0C300C0
C0C300C0
C0C300C0
C0C3C0C0
C0C3C0C0
C0C0C0C0
C0C0C0C0
C0C0C0C0
C0C0C0C0
C300C0C0
C300C0C0
C300F0C0
C300F0C0
CC0030C0
CC0030C0
30003300
30003300
30000300
30000300
0C000C00
0C000C00
ENDCHAR
STARTCHAR 3228
ENCODING 12840
SWIDTH 1000 0
DWIDTH 32 0
BBX 26 28 4 -2
BITMAP
0C300C00
0C300C00
30300300
30300300
3030C300
3030C300
C3FFF0C0
C3FFF0C0
C030C0C0
C030C0C0
C030C0C0
C030C0C0
C033C0C0
C033C0C0
C03300C0
C03300C0
C0F300C0
C0F300C0
C0C330C0
C0C330C0
C3033CC0
C3033CC0
3C03F300
3C03F300
30000300
30000300
0C000C00
0C000C00
ENDCHAR
STARTCHAR 3229
ENCODING 12841
SWIDTH 1000 0
DWIDTH 32 0
BBX 26 28 4 -2
BITMAP
0C000C00
0C000C00
300C0300
300C0300
300C0300
300C0300
C00C00C0
C00C00C0
C00C00C0
C00C00C0
C00C30C0
C00C30C0
CFFFFCC0
CFFFFCC0
C00C00C0
C00C00C0
C00C00C0
C00C00C0
C00C00C0
C00C00C0
C00C00C0
C00C00C0
300C0300
300C0300
300C0300
300C0300
0C000C00
0C000C00
ENDCHAR
STARTCHAR 4E00
ENCODING 19968
SWIDTH 1000 0
DWIDTH 32 0
BBX 26 4 4 12
BITMAP
00000300
00000300
FFFFFFC0
FFFFFFC0
ENDCHAR
STARTCHAR 4E01
ENCODING 19969
SWIDTH 1000 0
DWIDTH 32 0
BBX 26 32 4 -4
BITMAP
00000300
00000300
FFFFFFC0
FFFFFFC0
000F0000
000F0000
000F0000
000F0000
000F0000
000F0000
000F0000
000F0000
000F0000
000F0000
000F0000
000F0000
000F0000
000F0000
000F0000
000F0000
000F0000
000F0000
000F0000
000F0000
000F0000
000F0000
00CF0000
00CF0000
003F0000
003F0000
000C0000
000C0000
ENDCHAR
STARTCHAR 4E03
ENCODING 19971
SWIDTH 1000 0
DWIDTH 32 0
BBX 30 28 2 -2
BITMAP
000C0000
000C0000
000F0000
000F0000
000F0000
000F0000
000F0000
000F0000
000F0030
000F0030
000F0FFC
000F0FFC
00FFF000
00FFF000
FF0F0000
FF0F0000
000F0000
000F0000
000F0000
000F0000
000F0030
000F0030
000F0030
000F0030
000FFFFC
000FFFFC
0003FFF0
0003FFF0
ENDCHAR
STARTCHAR 4E07
ENCODING 19975
SWIDTH 1000 0
DWIDTH 32 0
BBX 30 30 2 -4
BITMAP
00000030
00000030
FFFFFFFC
FFFFFFFC
003C0000
003C0000
003C0000
003C0000
003C0300
003C0300
003FFFC0
003FFFC0
003C0F00
003C0F00
003C0F00
003C0F00
00F00F00
00F00F00
00F00F00
00F00F00
03C00F00
03C00F00
03C00F00
03C00F00
0F000F00
0F000F00
3C00FC00
3C00FC00
C0003000
C0003000
ENDCHAR
STARTCHAR 4E08
ENCODING 19976
SWIDTH 1000 0
DWIDTH 32 0
BBX 30 32 2 -4
BITMAP
0003C000
0003C000
0003C030
0003C030
3FFFFFFC
3FFFFFFC
0003C000
0003C000
0003C000
0003C000
0C03C000
0C03C000
0C03C000
0C03C000
0303C000
0303C000
030F0000
030F0000
00CF0000
00CF0000
003C0000
003C0000
003F0000
003F0000
00F0F000
00F0F000
03C03F00
03C03F00
3C000FFC
3C000FFC
C00003F0
C00003F0
ENDCHAR
STARTCHAR 4E09
ENCODING 19977
SWIDTH 1000 0
DWIDTH 32 0
BBX 30 26 2 0
BITMAP
00000300
00000300
0FFFFFC0
0FFFFFC0
00000000
00000000
00000000
00000000
00000000
00000000
00000C00
00000C00
03FFFF00
03FFFF00
00000000
00000000
00000000
00000000
00000000
00000000
00000000
00000000
00000030
00000030
FFFFFFFC
FFFFFFFC
ENDCHAR
STARTCHAR 4E0A
ENCODING 19978
SWIDTH 1000 0
DWIDTH 32 0
BBX 30 28 2 -2
BITMAP
000C0000
000C0000
000F0000
000F0000
000F0000
000F0000
000F0000
000F0000
000F0C00
000F0C00
000FFF00
000FFF00
000F0000
000F0000
000F0000
000F0000
000F0000
000F0000
000F0000
000F0000
000F0000
000F0000
000F0000
000F0000
000F0030
000F0030
FFFFFFFC
FFFFFFFC
ENDCHAR
STARTCHAR 4E0B
ENCODING 19979
SWIDTH 1000 0
DWIDTH 32 0
BBX 30 30 2 -4
BITMAP
00000030
00000030
FFFFFFFC
FFFFFFFC
000F0000
000F0000
000F0000
000F0000
000F0000
000F0000
000FF000
000FF000
000F3F00
000F3F00
000F0FC0
000F0FC0
000F0300
000F0300
000F0000
000F0000
000F0000
000F0000
000F0000
000F0000
000F0000
000F0000
000F0000
000F0000
000C0000
000C0000
ENDCHAR
STARTCHAR 4E0C
ENCODING 19980
SWIDTH 1000 0
DWIDTH 32 0
BBX 30 30 2 -4
BITMAP
00000030
00000030
FFFFFFFC
FFFFFFFC
00F0C000
00F0C000
00F0F000
00F0F000
00F0F000
00F0F000
00F0F000
00F0F000
00F0F000
00F0F000
00F0F000
00F0F000
00F0F000
00F0F000
00F0F000
00F0F000
00F0F000
00F0F000
03C0F000
03C0F000
0F00F000
0F00F000
3C00F000
3C00F000
C000F000
C000F000
ENDCHAR
STARTCHAR 4E0D
ENCODING 19981
SWIDTH 1000 0
DWIDTH 32 0
BBX 30 32 2 -4
BITMAP
00000030
00000030
FFFFFFFC
FFFFFFFC
0003C000
0003C000
0003C000
0003C000
000F0000
000F0000
000F3000
000F3000
003FFC00
003FFC00
00F3CF00
00F3CF00
03C3C3C0
03C3C3C0
0F03C3F0
0F03C3F0
3C03C0FC
3C03C0FC
C003C030
C003C030
0003C000
0003C000
0003C000
0003C000
0003C000
0003C000
0003C000
0003C000
ENDCHAR
STARTCHAR 4E0E
ENCODING 19982
SWIDTH 1000 0
DWIDTH 32 0
BBX 30 32 2 -4
BITMAP
03000000
03000000
03C00000
03C00000
03C000C0
03C000C0
03FFFFF0
03FFFFF0
03C00000
03C00000
03C00000
03C00000
03C00030
03C00030
0FFFFFFC
0FFFFFFC
030000F0
030000F0
000000F0
000000F0
000030F0
000030F0
FFFFFCF0
FFFFFCF0
000000F0
000000F0
000000F0
000000F0
00000FC0
00000FC0
00000300
00000300
ENDCHAR
STARTCHAR 4E10
ENCODING 19984
SWIDTH 1000 0
DWIDTH 32 0
BBX 28 32 4 -4
BITMAP
00000300
00000300
FFFFFFC0
FFFFFFC0
003C0000
003C0000
303C3000
303C3000
3C3FFC00
3C3FFC00
3C3C0000
3C3C0000
3C3C00C0
3C3C00C0
3FFFFFF0
3FFFFFF0
F00003C0
F00003C0
000003C0
000003C0
000003C0
000003C0
000003C0
000003C0
000003C0
000003C0
000303C0
000303C0
0000FF00
0000FF00
00003C00
00003C00
ENDCHAR
STARTCHAR 4E11
ENCODING 19985
SWIDTH 1000 0
DWIDTH 32 0
BBX 30 30 2 -4
BITMAP
000000C0
000000C0
0FFFFFF0
0FFFFFF0
003C03C0
003C03C0
003C03C0
003C03C0
003C03C0
003C03C0
003C0FC0
003C0FC0
003C0F00
003C0F00
0FFFFF00
0FFFFF00
00F00F00
00F00F00
00F00F00
00F00F00
00F00F00
00F00F00
03C03C00
03C03C00
03C03C00
03C03C00
03C03C30
03C03C30
FFFFFFFC
FFFFFFFC
ENDCHAR
STARTCHAR 4E13
ENCODING 19987
SWIDTH 1000 0
DWIDTH 32 0
BBX 30 32 2 -4
BITMAP
00030000
00030000
0003C000
0003C000
000F0300
000F0300
0FFFFFC0
0FFFFFC0
000F0000
000F0000
003C0030
003C0030
FFFFFFFC
FFFFFFFC
003C0000
003C0000
00F00300
00F00300
03FFFFC0
03FFFFC0
00C00F00
00C00F00
00003C00
00003C00
00F0F000
00F0F000
000FC000
000FC000
0003F000
0003F000
0000C000
0000C000
ENDCHAR
STARTCHAR 4E14
ENCODING 19988
SWIDTH 1000 0
DWIDTH 32 0
BBX 30 28 2 -2
BITMAP
03000C00
03000C00
03FFFF00
03FFFF00
03C03C00
03C03C00
03C03C00
03C03C00
03C03C00
03C03C00
03FFFC00
03FFFC00
03C03C00
03C03C00
03C03C00
03C03C00
03FFFC00
03FFFC00
03C03C00
03C03C00
03C03C00
03C03C00
03C03C00
03C03C00
03C03C30
03C03C30
FFFFFFFC
FFFFFFFC
ENDCHAR
STARTCHAR 4E15
ENCODING 19989
SWIDTH 1000 0
DWIDTH 32 0
BBX 30 32 2 -4
BITMAP
000000C0
000000C0
3FFFFFF0
3FFFFFF0
0003C000
0003C000
0003C000
0003C000
000F0000
000F0000
000F3000
000F3000
003FFC00
003FFC00
00F3CF00
00F3CF00
03C3C3C0
03C3C3C0
0F03C3F0
0F03C3F0
3C03C0FC
3C03C0FC
C003C030
C003C030
0003C000
0003C000
0003C000
0003C000
0003C030
0003C030
FFFFFFFC
FFFFFFFC
ENDCHAR
STARTCHAR 4E16
ENCODING 19990
SWIDTH 1000 0
DWIDTH 32 0
BBX 30 32 2 -4
BITMAP
0C0C0C00
0C0C0C00
0F0F0F00
0F0F0F00
0F0F0F00
0F0F0F00
0F0F0F00
0F0F0F00
0F0F0F30
0F0F0F30
FFFFFFFC
FFFFFFFC
0F0F0F00
0F0F0F00
0F0F0F00
0F0F0F00
0F0F0F00
0F0F0F00
0F0F0F00
0F0F0F00
0F0FFF00
0F0FFF00
0F0C0C00
0F0C0C00
0F000000
0F000000
0F0000C0
0F0000C0
3FFFFFF0
3FFFFFF0
0C000000
0C000000
ENDCHAR
STARTCHAR 4E18
ENCODING 19992
SWIDTH 1000 0
DWIDTH 32 0
BBX 30 32 2 -4
BITMAP
00000300
00000300
0003FFC0
0003FFC0
03FFFC00
03FFFC00
03C00000
03C00000
03C00000
03C00000
03C00000
03C00000
03C000C0
03C000C0
03FFFFF0
03FFFFF0
03C0F000
03C0F000
03C0F000
03C0F000
03C0F000
03C0F000
03C0F000
03C0F000
03C0F000
03C0F000
03C0F000
03C0F000
03C0F030
03C0F030
FFFFFFFC
FFFFFFFC
ENDCHAR
STARTCHAR 4E19
ENCODING 19993
SWIDTH 1000 0
DWIDTH 32 0
BBX 30 32 2 -4
BITMAP
00000030
00000030
FFFFFFFC
FFFFFFFC
000F0000
000F0000
000F0000
000F0000
300F0030
300F0030
3FFFFFFC
3FFFFFFC
3C0F00F0
3C0F00F0
3C0F00F0
3C0F00F0
3C0FC0F0
3C0FC0F0
3C3CF0F0
3C3CF0F0
3C3C3CF0
3C3C3CF0
3CF03FF0
3CF03FF0
3F000CF0
3F000CF0
3C0000F0
3C0000F0
3C000FF0
3C000FF0
3C0000C0
3C0000C0
ENDCHAR
STARTCHAR 4E1A
ENCODING 19994
SWIDTH 1000 0
DWIDTH 32 0
BBX 30 30 2 -2
BITMAP
00C0C000
00C0C000
00F0F000
00F0F000
00F0F000
00F0F000
00F0F0C0
00F0F0C0
C0F0F0F0
C0F0F0F0
30F0F0F0
30F0F0F0
3CF0F3C0
3CF0F3C0
3CF0F3C0
3CF0F3C0
0FF0F300
0FF0F300
0FF0FF00
0FF0FF00
0CF0FC00
0CF0FC00
00F0F000
00F0F000
00F0F000
00F0F000
00F0F030
00F0F030
FFFFFFFC
FFFFFFFC
ENDCHAR
STARTCHAR 4E1B
ENCODING 19995
SWIDTH 1000 0
DWIDTH 32 0
BBX 30 32 2 -4
BITMAP
03003000
03003000
03C03F00
03C03F00
03C03C00
03C03C00
03C03C00
03C03C00
03C03C00
03C03C00
03C03C00
03C03C00
03C03C00
03C03C00
03C03C00
03C03C00
03C03C00
03C03C00
0F30F300
0F30F300
0F3CF3C0
0F3CF3C0
3C0FC0F0
3C0FC0F0
300300FC
300300FC
C00C0030
C00C0030
00000030
00000030
FFFFFFFC
FFFFFFFC
ENDCHAR
STARTCHAR 4E1C
ENCODING 19996
SWIDTH 1000 0
DWIDTH 32 0
BBX 28 32 2 -4
BITMAP
000F0000
000F0000
003C00C0
003C00C0
3FFFFFF0
3FFFFFF0
00F00000
00F00000
00F30000
00F30000
03C3C000
03C3C000
03C3C300
03C3C300
0FFFFFC0
0FFFFFC0
0303C000
0303C000
00C3CC00
00C3CC00
03F3C300
03F3C300
03C3C3C0
03C3C3C0
0F03C3F0
0F03C3F0
3C03C0F0
3C03C0F0
C03FC0C0
C03FC0C0
00030000
00030000
ENDCHAR
STARTCHAR 4E1D
ENCODING 19997
SWIDTH 1000 0
DWIDTH 32 0
BBX 30 30 2 -2
BITMAP
00C00C00
00C00C00
00F00F00
00F00F00
03C03C00
03C03C00
03003000
03003000
0F30F300
0F30F300
0C3CC3C0
0C3CC3C0
3FF3FF00
3FF3FF00
03C0CC00
03C0CC00
0F003C00
0F003C00
0C00F000
0C00F000
3FF3FFC0
3FF3FFC0
0C00C000
0C00C000
00000000
00000000
00000030
00000030
FFFFFFFC
FFFFFFFC
ENDCHAR
STARTCHAR 4E1E
ENCODING 19998
SWIDTH 1000 0
DWIDTH 32 0
BBX 30 32 2 -4
BITMAP
00000C00
00000C00
03FFFF00
03FFFF00
00003C00
00003C00
0000F000
0000F000
000FC000
000FC000
0033C030
0033C030
3FF3CCFC
3FF3CCFC
00FFFFC0
00FFFFC0
003FFF00
003FFF00
00F3C300
00F3C300
03C3C3C0
03C3C3C0
0F03C3C0
0F03C3C0
3C03C0FC
3C03C0FC
C003C030
C003C030
0003C0C0
0003C0C0
0FFFFFF0
0FFFFFF0
ENDCHAR
STARTCHAR 4E22
ENCODING 20002
SWIDTH 1000 0
DWIDTH 32 0
BBX 28 32 2 -4
BITMAP
00003C00
00003C00
00FFFF00
00FFFF00
3FFF0000
3FFF0000
000F0000
000F0000
000F0C00
000F0C00
0FFFFF00
0FFFFF00
000F0000
000F0000
000F00C0
000F00C0
FFFFFFF0
FFFFFFF0
000F0000
000F0000
003CC000
003CC000
00F0F000
00F0F000
03C03C00
03C03C00
0F03FF00
0F03FF00
3FFF0FC0
3FFF0FC0
0F000300
0F000300
ENDCHAR
STARTCHAR 4E24
ENCODING 20004
SWIDTH 1000 0
DWIDTH 32 0
BBX 30 32 2 -4
BITMAP
00000030
00000030
FFFFFFFC
FFFFFFFC
003CF000
003CF000
003CF000
003CF000
303CF030
303CF030
3FFFFFFC
3FFFFFFC
3C3CF0F0
3C3CF0F0
3C3CF0F0
3C3CF0F0
3C3FFCF0
3C3FFCF0
3CF3CFF0
3CF3CFF0
3CC30FF0
3CC30FF0
3F0C0CF0
3F0C0CF0
3C0000F0
3C0000F0
3C000CF0
3C000CF0
3C0003F0
3C0003F0
300000C0
300000C0
ENDCHAR
STARTCHAR 4E25
ENCODING 20005
SWIDTH 1000 0
DWIDTH 32 0
BBX 30 32 2 -4
BITMAP
00000030
00000030
3FFFFFFC
3FFFFFFC
003CF0C0
003CF0C0
0F3CF0F0
0F3CF0F0
03FCF3C0
03FCF3C0
0CFCFC30
0CFCFC30
0FFFFFFC
0FFFFFFC
0F000000
0F000000
0F000000
0F000000
0F000000
0F000000
0F000000
0F000000
0F000000
0F000000
0C000000
0C000000
3C000000
3C000000
30000000
30000000
C0000000
C0000000
ENDCHAR
STARTCHAR 4E27
ENCODING 20007
SWIDTH 1000 0
DWIDTH 32 0
BBX 30 32 2 -4
BITMAP
000F0000
000F0000
000F0300
000F0300
3FFFFFC0
3FFFFFC0
0C0F0300
0C0F0300
03CF0FC0
03CF0FC0
00FF3C00
00FF3C00
00CF3030
00CF3030
FFFFFFFC
FFFFFFFC
03CF00C0
03CF00C0
03CF03F0
03CF03F0
03C3C300
03C3C300
03C0F000
03C0F000
03C03C00
03C03C00
03FF0F00
03FF0F00
0FF003FC
0FF003FC
03C000F0
03C000F0
ENDCHAR
STARTCHAR 4E28
ENCODING 20008
SWIDTH 1000 0
DWIDTH 32 0
BBX 4 32 14 -4
BITMAP
F0
F0
F0
F0
F0
F0
F0
F0
F0
F0
F0
F0
F0
F0
F0
F0
F0
F0
F0
F0
F0
F0
F0
F0
F0
F0
F0
F0
F0
F0
F0
F0
ENDCHAR
STARTCHAR 4E2A
ENCODING 20010
SWIDTH 1000 0
DWIDTH 32 0
BBX 28 32 4 -4
BITMAP
000C0000
000C0000
003F0000
003F0000
003C0000
003C0000
00F30000
00F30000
00F3C000
00F3C000
03CCF000
03CCF000
0F0F3F00
0F0F3F00
3C0F0FF0
3C0F0FF0
C00F03C0
C00F03C0
000F0000
000F0000
000F0000
000F0000
000F0000
000F0000
000F0000
000F0000
000F0000
000F0000
000F0000
000F0000
000C0000
000C0000
ENDCHAR
STARTCHAR 4E2B
ENCODING 20011
SWIDTH 1000 0
DWIDTH 32 0
BBX 24 32 6 -4
BITMAP
000030
000030
C0003C
C0003C
3C00FF
3C00FF
0F00F0
0F00F0
0FC3C0
0FC3C0
030C00
030C00
003C00
003C00
003C00
003C00
003C00
003C00
003C00
003C00
003C00
003C00
003C00
003C00
003C00
003C00
003C00
003C00
003C00
003C00
003000
003000
ENDCHAR
STARTCHAR 4E2C
ENCODING 20012
SWIDTH 1000 0
DWIDTH 32 0
BBX 16 32 8 -4
BITMAP
003C
003C
003C
003C
003C
003C
3C3C
3C3C
0F3C
0F3C
0F3C
0F3C
03FC
03FC
003C
003C
003F
003F
00FC
00FC
C3FC
C3FC
3F3C
3F3C
3C3C
3C3C
303C
303C
003C
003C
0030
0030
ENDCHAR
STARTCHAR 4E2D
ENCODING 20013
SWIDTH 1000 0
DWIDTH 32 0
BBX 26 32 4 -4
BITMAP
00300000
00300000
003C0000
003C0000
003C0000
003C0000
C03C0300
C03C0300
FFFFFFC0
FFFFFFC0
F03C0F00
F03C0F00
F03C0F00
F03C0F00
F03C0F00
F03C0F00
F03C0F00
F03C0F00
FFFFFF00
FFFFFF00
C03C0C00
C03C0C00
003C0000
003C0000
003C0000
003C0000
003C0000
003C0000
003C0000
003C0000
00300000
00300000
ENDCHAR
STARTCHAR 4E30
ENCODING 20016
SWIDTH 1000 0
DWIDTH 32 0
BBX 28 32 2 -4
BITMAP
000C0000
000C0000
000FC000
000FC000
000F0300
000F0300
3FFFFFC0
3FFFFFC0
000F0000
000F0000
000F0000
000F0000
000F0C00
000F0C00
0FFFFF00
0FFFFF00
000F0000
000F0000
000F0000
000F0000
000F00C0
000F00C0
FFFFFFF0
FFFFFFF0
000F0000
000F0000
000F0000
000F0000
000F0000
000F0000
000C0000
000C0000
ENDCHAR
STARTCHAR 4E32
ENCODING 20018
SWIDTH 1000 0
DWIDTH 32 0
BBX 26 32 6 -4
BITMAP
003C0000
003C0000
303C0C00
303C0C00
3FFFFF00
3FFFFF00
3C3C3C00
3C3C3C00
3C3C3C00
3C3C3C00
3FFFFC00
3FFFFC00
303C3000
303C3000
C03C0300
C03C0300
FFFFFFC0
FFFFFFC0
F03C0F00
F03C0F00
F03C0F00
F03C0F00
F03C0F00
F03C0F00
FFFFFF00
FFFFFF00
C03C0C00
C03C0C00
003C0000
003C0000
00300000
00300000
ENDCHAR
STARTCHAR 4E34
ENCODING 20020
SWIDTH 1000 0
DWIDTH 32 0
BBX 30 32 2 -4
BITMAP
03003000
03003000
03C0FC00
03C0FC00
03C0F030
03C0F030
C3C3FFFC
C3C3FFFC
F3C3F000
F3C3F000
F3CF3F00
F3CF3F00
F3CC0FF0
F3CC0FF0
F3F000C0
F3F000C0
F3CC0030
F3CC0030
F3CFFFFC
F3CFFFFC
F3CF3CF0
F3CF3CF0
C3CF3CF0
C3CF3CF0
03CF3CF0
03CF3CF0
03CF3CF0
03CF3CF0
03CFFFF0
03CFFFF0
030C00C0
030C00C0
ENDCHAR
STARTCHAR 4E36
ENCODING 20022
SWIDTH 1000 0
DWIDTH 32 0
BBX 12 16 8 8
BITMAP
C000
C000
3000
3000
3C00
3C00
3FC0
3FC0
0FF0
0FF0
0FF0
0FF0
03C0
03C0
0300
0300
ENDCHAR
STARTCHAR 4E38
ENCODING 20024
SWIDTH 1000 0
DWIDTH 32 0
BBX 28 32 4 -4
BITMAP
00F00000
00F00000
00F00000
00F00000
00F00000
00F00000
00F00C00
00F00C00
3FFFFF00
3FFFFF00
00F03C00
00F03C00
00F03C00
00F03C00
03F03C00
03F03C00
00FF3C00
00FF3C00
00FFFC00
00FFFC00
00F33C00
00F33C00
03C03C00
03C03C00
03C03CC0
03C03CC0
0F003CF0
0F003CF0
3C003FF0
3C003FF0
C0000FC0
C0000FC0
ENDCHAR
STARTCHAR 4E39
ENCODING 20025
SWIDTH 1000 0
DWIDTH 32 0
BBX 30 32 2 -4
BITMAP
03000300
03000300
03FFFFC0
03FFFFC0
03C00F00
03C00F00
03CC0F00
03CC0F00
03CF0F00
03CF0F00
03C3CF00
03C3CF00
03C30F00
03C30F00
03C00F30
03C00F30
FFFFFFFC
FFFFFFFC
03C00F00
03C00F00
03C00F00
03C00F00
0F000F00
0F000F00
0F000F00
0F000F00
0C00CF00
0C00CF00
0C003F00
0C003F00
30000C00
30000C00
ENDCHAR
STARTCHAR 4E3A
ENCODING 20026
SWIDTH 1000 0
DWIDTH 32 0
BBX 30 32 2 -4
BITMAP
000C0000
000C0000
0C0F0000
0C0F0000
0F0F0000
0F0F0000
03CF0000
03CF0000
030F0030
030F0030
3FFFFFFC
3FFFFFFC
000F00F0
000F00F0
000F00F0
000F00F0
003FC0F0
003FC0F0
003CF0F0
003CF0F0
003C3CF0
003C3CF0
00F030F0
00F030F0
00F000F0
00F000F0
03C000F0
03C000F0
0F003FC0
0F003FC0
F0000300
F0000300
ENDCHAR
STARTCHAR 4E3B
ENCODING 20027
SWIDTH 1000 0
DWIDTH 32 0
BBX 30 30 2 -2
BITMAP
003C0000
003C0000
000FC000
000FC000
00030300
00030300
0FFFFFC0
0FFFFFC0
000F0000
000F0000
000F0000
000F0000
000F0000
000F0000
000F0C00
000F0C00
03FFFF00
03FFFF00
000F0000
000F0000
000F0000
000F0000
000F0000
000F0000
000F0000
000F0000
000F0030
000F0030
FFFFFFFC
FFFFFFFC
ENDCHAR
STARTCHAR 4E3D
ENCODING 20029
SWIDTH 1000 0
DWIDTH 32 0
BBX 30 32 2 -4
BITMAP
00000030
00000030
FFFFFFFC
FFFFFFFC
00000000
00000000
300CC030
300CC030
3FFFFFFC
3FFFFFFC
3C3CF0F0
3C3CF0F0
3C3CF0F0
3C3CF0F0
3F3CFCF0
3F3CFCF0
3FFCFFF0
3FFCFFF0
3CFCF3F0
3CFCF3F0
3C3CF0F0
3C3CF0F0
3C3CF0F0
3C3CF0F0
3C3CF0F0
3C3CF0F0
3C3CF0F0
3C3CF0F0
3CFCF3F0
3CFCF3F0
3030C0C0
3030C0C0
ENDCHAR
STARTCHAR 4E3E
ENCODING 20030
SWIDTH 1000 0
DWIDTH 32 0
BBX 30 32 2 -4
BITMAP
0C300300
0C300300
030F03C0
030F03C0
03F3CF00
03F3CF00
00C33C00
00C33C00
3FFFFFF0
3FFFFFF0
003CF000
003CF000
00FC3C00
00FC3C00
03CF0F00
03CF0F00
0F0F03F0
0F0F03F0
3CFFF0FC
3CFFF0FC
C00F0030
C00F0030
000F0C00
000F0C00
0FFFFF00
0FFFFF00
000F0000
000F0000
000F0000
000F0000
000F0000
000F0000
ENDCHAR
STARTCHAR 4E3F
ENCODING 20031
SWIDTH 1000 0
DWIDTH 32 0
BBX 16 32 4 -4
BITMAP
000F
000F
000F
000F
000F
000F
000F
000F
000F
000F
000F
000F
000F
000F
000F
000F
000F
000F
003F
003F
003C
003C
00F0
00F0
03C0
03C0
0F00
0F00
3C00
3C00
C000
C000
ENDCHAR
STARTCHAR 4E43
ENCODING 20035
SWIDTH 1000 0
DWIDTH 32 0
BBX 28 32 2 -4
BITMAP
00000300
00000300
3FFFFFC0
3FFFFFC0
03C00F00
03C00F00
03C00F00
03C00F00
03C03C00
03C03C00
03C0F000
03C0F000
03C00F00
03C00F00
03C003C0
03C003C0
03C000F0
03C000F0
03C000F0
03C000F0
03C000F0
03C000F0
0F0000F0
0F0000F0
0F0000F0
0F0000F0
0C0030F0
0C0030F0
3000FFC0
3000FFC0
C0000F00
C0000F00
ENDCHAR
STARTCHAR 4E45
ENCODING 20037
SWIDTH 1000 0
DWIDTH 32 0
BBX 30 32 2 -4
BITMAP
00300000
00300000
003C0000
003C0000
00F00C00
00F00C00
00FFFF00
00FFFF00
00F03C00
00F03C00
03C03C00
03C03C00
0F00F000
0F00F000
3000F000
3000F000
0003C000
0003C000
0003F000
0003F000
000F3C00
000F3C00
003C0C00
003C0C00
00F00F00
00F00F00
03C003F0
03C003F0
0F0000FC
0F0000FC
F0000030
F0000030
ENDCHAR
STARTCHAR 4E47
ENCODING 20039
SWIDTH 1000 0
DWIDTH 32 0
BBX 30 32 2 -4
BITMAP
00003FF0
00003FF0
00FFFC00
00FFFC00
3FFF0000
3FFF0000
000F0000
000F0000
000F0000
000F0000
000F0000
000F0000
000F0030
000F0030
FFFFFFFC
FFFFFFFC
000F0000
000F0000
000F0000
000F0000
000F0000
000F0000
000F0030
000F0030
000F0030
000F0030
000F003C
000F003C
000FFFFC
000FFFFC
0003FFF0
0003FFF0
ENDCHAR
STARTCHAR 4E48
ENCODING 20040
SWIDTH 1000 0
DWIDTH 32 0
BBX 30 32 2 -4
BITMAP
00030000
00030000
000FC000
000FC000
000F0000
000F0000
003C0000
003C0000
003C0C00
003C0C00
00F03F00
00F03F00
03C03C00
03C03C00
0F00F000
0F00F000
3C03CC00
3C03CC00
C003C300
C003C300
000F03C0
000F03C0
003C00F0
003C00F0
00F000F0
00F000F0
03FFFFFC
03FFFFFC
0FFC003C
0FFC003C
03000030
03000030
ENDCHAR
STARTCHAR 4E49
ENCODING 20041
SWIDTH 1000 0
DWIDTH 32 0
BBX 30 32 2 -4
BITMAP
00300000
00300000
000C0300
000C0300
0C0F03C0
0C0F03C0
0C03C3C0
0C03C3C0
03030F00
03030F00
03000F00
03000F00
00C00F00
00C00F00
00C03C00
00C03C00
00303C00
00303C00
003CF000
003CF000
000FC000
000FC000
000FC000
000FC000
003CF000
003CF000
00F03F00
00F03F00
0F000FFC
0F000FFC
F00000F0
F00000F0
ENDCHAR
STARTCHAR 4E4B
ENCODING 20043
SWIDTH 1000 0
DWIDTH 32 0
BBX 30 30 2 -2
BITMAP
003C0000
003C0000
000FC000
000FC000
00030300
00030300
0FFFFFC0
0FFFFFC0
00000F00
00000F00
00003C00
00003C00
0000F000
0000F000
0003C000
0003C000
000F0000
000F0000
00F00000
00F00000
03C00000
03C00000
0FF00000
0FF00000
FC3C0000
FC3C0000
300FFFFC
300FFFFC
0003FFF0
0003FFF0
ENDCHAR
STARTCHAR 4E4C
ENCODING 20044
SWIDTH 1000 0
DWIDTH 32 0
BBX 30 32 2 -4
BITMAP
00FC0000
00FC0000
03F00300
03F00300
0FFFFFC0
0FFFFFC0
3F000F00
3F000F00
CF000F00
CF000F00
0F003F00
0F003F00
0F000C30
0F000C30
0FFFFFFC
0FFFFFFC
0C0000F0
0C0000F0
000000F0
000000F0
00000CF0
00000CF0
FFFFFFF0
FFFFFFF0
000000F0
000000F0
000000F0
000000F0
00000FF0
00000FF0
000003C0
000003C0
ENDCHAR
STARTCHAR 4E4D
ENCODING 20045
SWIDTH 1000 0
DWIDTH 32 0
BBX 30 32 2 -4
BITMAP
03000000
03000000
0FC00000
0FC00000
0F000030
0F000030
0FFFFFFC
0FFFFFFC
3C3C0000
3C3C0000
303C0000
303C0000
C03C0300
C03C0300
003FFFC0
003FFFC0
003C0000
003C0000
003C00C0
003C00C0
003FFFF0
003FFFF0
003C0000
003C0000
003C0000
003C0000
003C0000
003C0000
003C0000
003C0000
00300000
00300000
ENDCHAR
STARTCHAR 4E4E
ENCODING 20046
SWIDTH 1000 0
DWIDTH 32 0
BBX 28 32 4 -4
BITMAP
0000F000
0000F000
000FFC00
000FFC00
00FF0000
00FF0000
3FCF0C00
3FCF0C00
0C0F0F00
0C0F0F00
0F0F3C00
0F0F3C00
03CF3000
03CF3000
030FC0C0
030FC0C0
FFFFFFF0
FFFFFFF0
000F0000
000F0000
000F0000
000F0000
000F0000
000F0000
000F0000
000F0000
00CF0000
00CF0000
003F0000
003F0000
000C0000
000C0000
ENDCHAR
STARTCHAR 4E4F
ENCODING 20047
SWIDTH 1000 0
DWIDTH 32 0
BBX 30 32 2 -4
BITMAP
00003C00
00003C00
000FFFC0
000FFFC0
3FFFC000
3FFFC000
000C0000
000C0000
0003C000
0003C000
0000F0C0
0000F0C0
0FFFFFF0
0FFFFFF0
00000FC0
00000FC0
00003F00
00003F00
0003FC00
0003FC00
003FC000
003FC000
03FC0000
03FC0000
0FC00000
0FC00000
3CFC0000
3CFC0000
FC3FFFFC
FC3FFFFC
300FFFF0
300FFFF0
ENDCHAR
STARTCHAR 4E50
ENCODING 20048
SWIDTH 1000 0
DWIDTH 32 0
BBX 30 32 2 -4
BITMAP
00000C00
00000C00
0303FF00
0303FF00
03FFC000
03FFC000
03C30000
03C30000
03C3C000
03C3C000
03C3C000
03C3C000
03C3C300
03C3C300
3FFFFFC0
3FFFFFC0
0003C000
0003C000
00C3CC00
00C3CC00
03F3C300
03F3C300
03C3C3C0
03C3C3C0
0F03C0F0
0F03C0F0
3C33C03C
3C33C03C
C00FC030
C00FC030
00030000
00030000
ENDCHAR
STARTCHAR 4E52
ENCODING 20050
SWIDTH 1000 0
DWIDTH 32 0
BBX 30 32 2 -4
BITMAP
00000C00
00000C00
003FFF00
003FFF00
0FFFFC00
0FFFFC00
0F000000
0F000000
0F0000C0
0F0000C0
0FFFFFF0
0FFFFFF0
0F00F000
0F00F000
0F00F000
0F00F000
0F00F030
0F00F030
FFFFFFFC
FFFFFFFC
00C00000
00C00000
03F00000
03F00000
03C00000
03C00000
0F000000
0F000000
30000000
30000000
C0000000
C0000000
ENDCHAR
STARTCHAR 4E53
ENCODING 20051
SWIDTH 1000 0
DWIDTH 32 0
BBX 30 32 2 -4
BITMAP
00000C00
00000C00
003FFF00
003FFF00
0FFFFC00
0FFFFC00
0F000000
0F000000
0F0000C0
0F0000C0
0FFFFFF0
0FFFFFF0
0F00F000
0F00F000
0F00F000
0F00F000
0F00F030
0F00F030
FFFFFFFC
FFFFFFFC
0000C000
0000C000
00003C00
00003C00
00000FC0
00000FC0
000003F0
000003F0
000003F0
000003F0
000000C0
000000C0
ENDCHAR
STARTCHAR 4E54
ENCODING 20052
SWIDTH 1000 0
DWIDTH 32 0
BBX 30 32 2 -4
BITMAP
0000FFC0
0000FFC0
3FFFFC00
3FFFFC00
003C0000
003C0000
003C0000
003C0000
00F00030
00F00030
FFFFFFFC
FFFFFFFC
03C03C00
03C03C00
0F000FC0
0F000FC0
3FC033FC
3FC033FC
C3C03CF0
C3C03CF0
03C03C00
03C03C00
03C03C00
03C03C00
03C03C00
03C03C00
03003C00
03003C00
0C003C00
0C003C00
30003000
30003000
ENDCHAR
STARTCHAR 4E56
ENCODING 20054
SWIDTH 1000 0
DWIDTH 32 0
BBX 28 32 4 -4
BITMAP
0003F000
0003F000
00FFFF00
00FFFF00
3FCF0000
3FCF0000
000F00C0
000F00C0
FFFFFFF0
FFFFFFF0
030F3000
030F3000
03CF3CC0
03CF3CC0
FFCF3FF0
FFCF3FF0
03CF3F00
03CF3F00
03CF3CC0
03CF3CC0
FFCF3FF0
FFCF3FF0
33CF0FC0
33CF0FC0
000F0000
000F0000
000F0000
000F0000
000F0000
000F0000
000F0000
000F0000
ENDCHAR
STARTCHAR 4E58
ENCODING 20056
SWIDTH 1000 0
DWIDTH 32 0
BBX 28 32 4 -4
BITMAP
0003F000
0003F000
3FFFFF00
3FFFFF00
000F0000
000F0000
03CF3CC0
03CF3CC0
FFCF3FF0
FFCF3FF0
03CF3F00
03CF3F00
03CF3CC0
03CF3CC0
FFCF3FF0
FFCF3FF0
303FCFC0
303FCFC0
00FFC000
00FFC000
00FF3000
00FF3000
03CF3C00
03CF3C00
0F0F0FC0
0F0F0FC0
3C0F03F0
3C0F03F0
C00F00C0
C00F00C0
000F0000
000F0000
ENDCHAR
STARTCHAR 4E59
ENCODING 20057
SWIDTH 1000 0
DWIDTH 32 0
BBX 28 28 4 -2
BITMAP
00003000
00003000
3FFFFC00
3FFFFC00
0000F000
0000F000
0003C000
0003C000
000F0000
000F0000
003C0000
003C0000
00F00000
00F00000
03C00000
03C00000
0F000000
0F000000
3C0000C0
3C0000C0
F00000C0
F00000C0
F00000F0
F00000F0
FFFFFFF0
FFFFFFF0
3FFFFFC0
3FFFFFC0
ENDCHAR
STARTCHAR 4E5C
ENCODING 20060
SWIDTH 1000 0
DWIDTH 32 0
BBX 30 32 2 -4
BITMAP
03000000
03000000
03C00000
03C00000
03C00000
03C00000
03C000C0
03C000C0
03C03FF0
03C03FF0
03CFF3C0
03CFF3C0
03FC03C0
03FC03C0
FFC003C0
FFC003C0
03C003C0
03C003C0
03C0C3C0
03C0C3C0
03C03FC0
03C03FC0
03C00F30
03C00F30
03C00030
03C00030
03C0003C
03C0003C
03FFFFFC
03FFFFFC
00FFFFF0
00FFFFF0
ENDCHAR
STARTCHAR 4E5D
ENCODING 20061
SWIDTH 1000 0
DWIDTH 32 0
BBX 30 32 2 -4
BITMAP
00300000
00300000
003C0000
003C0000
003C0000
003C0000
003C0C00
003C0C00
3FFFFF00
3FFFFF00
003C3C00
003C3C00
003C3C00
003C3C00
003C3C00
003C3C00
003C3C00
003C3C00
00F03C00
00F03C00
00F03C00
00F03C00
03C03C00
03C03C00
03C03C30
03C03C30
0F003C30
0F003C30
3C003FFC
3C003FFC
C0000FF0
C0000FF0
ENDCHAR
STARTCHAR 4E5E
ENCODING 20062
SWIDTH 1000 0
DWIDTH 32 0
BBX 30 32 2 -4
BITMAP
03C00000
03C00000
0F0000C0
0F0000C0
3CFFFFF0
3CFFFFF0
30000000
30000000
C0000000
C0000000
00000C00
00000C00
0FFFFF00
0FFFFF00
00003C00
00003C00
0000FF00
0000FF00
0003F000
0003F000
000F0000
000F0000
003C0000
003C0000
00C00000
00C00000
03C00030
03C00030
00FFFFFC
00FFFFFC
003FFFC0
003FFFC0
ENDCHAR
STARTCHAR 4E5F
ENCODING 20063
SWIDTH 1000 0
DWIDTH 32 0
BBX 30 32 2 -4
BITMAP
000C0000
000C0000
000F0000
000F0000
000F0000
000F0000
0C0F0000
0C0F0000
0F0F0F00
0F0F0F00
0F0FFFC0
0F0FFFC0
0FFF0F00
0FFF0F00
FF0F0F00
FF0F0F00
0F0F0F00
0F0F0F00
0F0F3F00
0F0F3F00
0F0F0C00
0F0F0C00
0F0C0030
0F0C0030
0F000030
0F000030
0F00003C
0F00003C
0FFFFFFC
0FFFFFFC
03FFFFF0
03FFFFF0
ENDCHAR
STARTCHAR 4E60
ENCODING 20064
SWIDTH 1000 0
DWIDTH 32 0
BBX 28 32 2 -4
BITMAP
000000C0
000000C0
3FFFFFF0
3FFFFFF0
000003C0
000003C0
030003C0
030003C0
00F003C0
00F003C0
003C03C0
003C03C0
003C03C0
003C03C0
00300FC0
00300FC0
0000F3C0
0000F3C0
000FC3C0
000FC3C0
00FF03C0
00FF03C0
0FF003C0
0FF003C0
FF0003C0
FF0003C0
300003C0
300003C0
00003FC0
00003FC0
00000300
00000300
ENDCHAR
STARTCHAR 4E61
ENCODING 20065
SWIDTH 1000 0
DWIDTH 32 0
BBX 28 32 2 -4
BITMAP
000C0000
000C0000
003F0000
003F0000
00FC0C00
00FC0C00
03C00F00
03C00F00
0F003C00
0F003C00
3FFFF000
3FFFF000
0C03C0C0
0C03C0C0
003C00F0
003C00F0
03C003C0
03C003C0
3FFFFF00
3FFFFF00
0C003C00
0C003C00
0000F000
0000F000
000FC000
000FC000
003F0000
003F0000
03F00000
03F00000
FC000000
FC000000
ENDCHAR
STARTCHAR 4E66
ENCODING 20070
SWIDTH 1000 0
DWIDTH 32 0
BBX 30 32 2 -4
BITMAP
000F0300
000F0300
000F00F0
000F00F0
000F0330
000F0330
0FFFFFC0
0FFFFFC0
000F0F00
000F0F00
000F0F00
000F0F00
000F0F00
000F0F00
000F0F30
000F0F30
FFFFFFFC
FFFFFFFC
000F00F0
000F00F0
000F00F0
000F00F0
000F00F0
000F00F0
000F00F0
000F00F0
000F0FC0
000F0FC0
000F0300
000F0300
000F0000
000F0000
ENDCHAR
STARTCHAR 4E69
ENCODING 20073
SWIDTH 1000 0
DWIDTH 32 0
BBX 30 32 2 -4
BITMAP
0C00C000
0C00C000
0F00F000
0F00F000
0F30F000
0F30F000
0FFCF000
0FFCF000
0F00F000
0F00F000
0F00F000
0F00F000
0F00F000
0F00F000
0F00F000
0F00F000
CF30F000
CF30F000
FFFCF000
FFFCF000
F0F0F000
F0F0F000
F0F0F000
F0F0F000
F0F0F030
F0F0F030
F0F0F030
F0F0F030
FFF03FFC
FFF03FFC
F0F00FF0
F0F00FF0
ENDCHAR
STARTCHAR 4E70
ENCODING 20080
SWIDTH 1000 0
DWIDTH 32 0
BBX 30 32 2 -4
BITMAP
000000C0
000000C0
3FFFFFF0
3FFFFFF0
000303C0
000303C0
0C03F3C0
0C03F3C0
03F3CF00
03F3CF00
00C3CC00
00C3CC00
3003C000
3003C000
0F03C000
0F03C000
0FCF0000
0FCF0000
030F0030
030F0030
FFFFFFFC
FFFFFFFC
000F0000
000F0000
003CF000
003CF000
00F03FC0
00F03FC0
03C00FFC
03C00FFC
3C0003F0
3C0003F0
ENDCHAR
STARTCHAR 4E71
ENCODING 20081
SWIDTH 1000 0
DWIDTH 32 0
BBX 30 32 2 -4
BITMAP
00F00000
00F00000
3FFC3C00
3FFC3C00
03C03C00
03C03C00
03C03C00
03C03C00
03C03C00
03C03C00
FFFC3C00
FFFC3C00
03C03C00
03C03C00
03C03C00
03C03C00
33CC3C00
33CC3C00
3FFF3C00
3FFF3C00
3C3C3C00
3C3C3C00
3C3C3C00
3C3C3C00
3C3C3C00
3C3C3C00
3C3C3C0C
3C3C3C0C
3FFC3FFC
3FFC3FFC
30300FF0
30300FF0
ENDCHAR
STARTCHAR 4E73
ENCODING 20083
SWIDTH 1000 0
DWIDTH 32 0
BBX 28 32 2 -4
BITMAP
00FCC000
00FCC000
0FFFF000
0FFFF000
F0CCF000
F0CCF000
33F0F000
33F0F000
0CF0F000
0CF0F000
3FFCF000
3FFCF000
0030F000
0030F000
00F0F000
00F0F000
00F0F000
00F0F000
3FFCF000
3FFCF000
FCF0F000
FCF0F000
30F0F000
30F0F000
00F0F0C0
00F0F0C0
00F0F0C0
00F0F0C0
0FC0FFF0
0FC0FFF0
03003FC0
03003FC0
ENDCHAR
STARTCHAR 4E7E
ENCODING 20094
SWIDTH 1000 0
DWIDTH 32 0
BBX 30 32 2 -4
BITMAP
0F003000
0F003000
0F00F030
0F00F030
FFFCFFFC
FFFCFFFC
0F00F000
0F00F000
CF30C000
CF30C000
FFF30000
FFF30000
F0F000C0
F0F000C0
FFF0FFF0
FFF0FFF0
F0F003C0
F0F003C0
FFF003C0
FFF003C0
CF000F00
CF000F00
0F000C00
0F000C00
FFF03C00
FFF03C00
0F00F030
0F00F030
0F003FFC
0F003FFC
0F000FF0
0F000FF0
ENDCHAR
STARTCHAR 4E86
ENCODING 20102
SWIDTH 1000 0
DWIDTH 32 0
BBX 22 32 6 -4
BITMAP
000030
000030
FFFFFC
FFFFFC
0000F0
0000F0
0003C0
0003C0
000F00
000F00
003C00
003C00
003C00
003C00
003C00
003C00
003C00
003C00
003C00
003C00
003C00
003C00
003C00
003C00
003C00
003C00
0C3C00
0C3C00
03FC00
03FC00
00F000
00F000
ENDCHAR
STARTCHAR 4E88
ENCODING 20104
SWIDTH 1000 0
DWIDTH 32 0
BBX 30 32 2 -4
BITMAP
00000C00
00000C00
0FFFFF00
0FFFFF00
00003C00
00003C00
00C3C000
00C3C000
003F0000
003F0000
000C0030
000C0030
FFFFFFFC
FFFFFFFC
000F00F0
000F00F0
000F0300
000F0300
000F0000
000F0000
000F0000
000F0000
000F0000
000F0000
000F0000
000F0000
000F0000
000F0000
00FC0000
00FC0000
00300000
00300000
ENDCHAR
STARTCHAR 4E89
ENCODING 20105
SWIDTH 1000 0
DWIDTH 32 0
BBX 30 32 2 -4
BITMAP
00300000
00300000
003C0C00
003C0C00
00FFFF00
00FFFF00
03C03C00
03C03C00
0F00F0C0
0F00F0C0
3FFFFFF0
3FFFFFF0
C00F03C0
C00F03C0
000F03C0
000F03C0
FFFFFFFC
FFFFFFFC
000F03C0
000F03C0
000F03C0
000F03C0
0FFFFFC0
0FFFFFC0
000F0300
000F0300
000F0000
000F0000
00FF0000
00FF0000
000C0000
000C0000
ENDCHAR
ENDFONT
